<?xml version="1.0" encoding="utf-8"?>
<!-- Generator: Adobe Illustrator 24.0.3, SVG Export Plug-In . SVG Version: 6.00 Build 0)  -->
<svg version="1.1" id="Layer_1" xmlns="http://www.w3.org/2000/svg" xmlns:xlink="http://www.w3.org/1999/xlink" x="0px" y="0px"
	 viewBox="0 0 1000 159" style="enable-background:new 0 0 1000 159;" xml:space="preserve">
<style type="text/css">
	.st0{fill:#FFFFFF;}
	.st1{clip-path:url(#SVGID_4_);}
	.st2{fill:#B7B7B7;}
	.st3{fill:#152E42;}
	.st4{fill:#FF383F;}
	.st5{fill:#FF2E2E;}
	.st6{fill:none;stroke:#FFFFFF;stroke-width:15.3862;stroke-linecap:round;stroke-linejoin:round;stroke-miterlimit:10;}
	.st7{fill:#142E42;}
	.st8{fill:#F33B41;}
	.st9{fill:none;stroke:#7D4E24;stroke-width:7.7364;stroke-linejoin:round;stroke-miterlimit:10;}
	.st10{fill:#9D9D9C;}
	.st11{fill:#FFC2C7;}
	.st12{fill:#1D1D1B;}
	.st13{fill:#00B7A9;}
	.st14{clip-path:url(#SVGID_5_);}
	.st15{fill:none;stroke:#9D9D9C;stroke-width:9.1815;stroke-linecap:round;stroke-linejoin:round;stroke-miterlimit:10;}
	.st16{fill:#004482;}
	.st17{fill:#E8E8E8;}
	.st18{fill:#853600;}
	.st19{fill:#A3A3A3;}
	.st20{fill:none;stroke:#171C38;stroke-width:14.3006;stroke-linecap:round;stroke-miterlimit:10;}
	.st21{fill:#4BF7CD;}
	.st22{fill:#0051B2;}
	.st23{fill:#003972;}
	.st24{fill:#003560;}
	.st25{fill:none;stroke:#003972;stroke-width:1.5024;stroke-miterlimit:10;}
	.st26{fill:#67BDF9;}
	.st27{fill:#181818;}
	.st28{fill:#FE6666;}
	.st29{fill:#2C2C2C;}
	.st30{opacity:0.35;}
	.st31{fill:#212120;}
	.st32{fill:#EBEFF1;}
	.st33{fill:#106A9B;}
	.st34{fill:#0A405C;}
	.st35{fill:#B3E3F3;}
	.st36{fill:none;stroke:#FFFFFF;stroke-width:7.4346;stroke-linecap:round;stroke-linejoin:round;stroke-miterlimit:10;}
	.st37{fill:none;stroke:#152E42;stroke-width:21.5959;stroke-miterlimit:10;}
	.st38{fill:none;stroke:#7D4E24;stroke-width:9.289;stroke-linejoin:round;stroke-miterlimit:10;}
	.st39{fill:#E2E2E2;}
	.st40{fill:#CBBBA0;}
	.st41{fill:#91232B;}
	.st42{fill:#F95D68;}
	.st43{fill:#08B189;}
	.st44{fill:#EA7134;}
	.st45{fill:#FA7F38;}
	.st46{fill:#936037;}
	.st47{fill:#166ABF;}
	.st48{fill:#E6E7E8;}
	.st49{fill:#5E5F5E;}
	.st50{fill:#00B38C;}
	.st51{fill:#FB7F38;}
	.st52{fill:#231F20;}
	.st53{fill:#CEB89B;}
	.st54{fill:#656868;}
	.st55{fill:#0D2D40;}
	.st56{fill:none;stroke:#7D4E24;stroke-width:15.5063;stroke-linejoin:round;stroke-miterlimit:10;}
	.st57{fill:#EF413D;}
	.st58{clip-path:url(#SVGID_7_);fill:#656868;}
	.st59{fill:#132436;}
	.st60{fill:#F9C0C7;}
	.st61{fill:#939598;}
	.st62{fill:#C3C6C8;}
	.st63{fill:#08B28A;}
	.st64{fill:#F2893B;}
	.st65{fill:#F4A21D;}
	.st66{fill:#FF94DE;}
	.st67{clip-path:url(#SVGID_11_);fill:#9D9D9C;}
	.st68{clip-path:url(#SVGID_13_);fill:#9D9D9C;}
	.st69{fill:#0F2133;}
	.st70{fill:#DB7F0A;}
	.st71{fill:#174056;}
	.st72{fill:#B2B2B2;}
	.st73{fill:#F1F2F2;}
	.st74{fill:#686868;}
	.st75{clip-path:url(#SVGID_17_);fill:#686868;}
	.st76{fill:#ADADAD;}
	.st77{fill:#D1D3D4;}
	.st78{clip-path:url(#SVGID_19_);}
	.st79{fill:#FDD344;}
	.st80{fill:none;stroke:#9C209C;stroke-width:13.782;stroke-linejoin:round;stroke-miterlimit:10;}
	.st81{fill:none;stroke:#7D4E24;stroke-width:13.782;stroke-linejoin:round;stroke-miterlimit:10;}
	.st82{fill:#9C209C;}
	.st83{fill:#1E425B;}
	.st84{fill:none;stroke:#9C209C;stroke-width:13.8404;stroke-linejoin:round;stroke-miterlimit:10;}
	.st85{fill:none;stroke:#7D4E24;stroke-width:13.8404;stroke-linejoin:round;stroke-miterlimit:10;}
	.st86{fill:#37E6BF;}
	.st87{fill:#9B9B9A;}
	.st88{fill:#1F4B6E;}
	.st89{fill:#194060;}
	.st90{fill:#EE3E43;}
	.st91{fill:#E897C1;}
	.st92{fill:#32647F;}
	.st93{fill:#24517D;}
	.st94{fill:#396A90;}
	.st95{fill:#683D17;}
	.st96{fill:none;stroke:#7E4F23;stroke-width:14.2126;stroke-linejoin:round;stroke-miterlimit:10;}
	.st97{fill:#74B8E5;}
	.st98{fill:#6AB4D8;}
	.st99{clip-path:url(#SVGID_23_);fill:#686868;}
	.st100{fill:#1D1C1A;}
	.st101{fill:#F8C0C5;}
	.st102{fill:#FFC200;}
	.st103{fill:#E5AC0C;}
	.st104{fill:#FFC952;}
	.st105{opacity:0.2;}
</style>
<g>
	<g>
		<g>
			<defs>
				<rect id="SVGID_1_" y="-11" width="1000" height="170"/>
			</defs>
			<clipPath id="SVGID_4_">
				<use xlink:href="#SVGID_1_"  style="overflow:visible;"/>
			</clipPath>
			<g class="st1">
				<g>
					<g>
						<g>
							<path class="st3" d="M549.7,136.2l10.5-0.1c-0.2-21.3-12.2-23.7-17.4-24.7c-0.4-0.1-0.8-0.2-1.1-0.2l-2.4,10.3
								c0.5,0.1,0.9,0.2,1.4,0.3c2,0.4,4.1,0.8,5.6,2.3C548.5,126.2,549.6,130.4,549.7,136.2z"/>
						</g>
					</g>
					<g>
						<g>
							
								<rect x="541.5" y="144" transform="matrix(1.408126e-02 -0.9999 0.9999 1.408126e-02 397.7818 702.026)" class="st0" width="26.8" height="10.5"/>
						</g>
					</g>
					<g>
						<g>
							<circle class="st0" cx="554" cy="165.4" r="6.7"/>
						</g>
					</g>
					<g>
						<polygon class="st5" points="565.1,193.1 523.1,194.5 527.1,145.1 553.3,143.4 						"/>
					</g>
					<g>
						<path class="st7" d="M554.4,146l-0.2-20.6c0-9.1-4.5-15.7-13.5-15.7l0,0c-9.1,0-12.6,6.6-12.6,15.7l0,20.6"/>
					</g>
					<g>
						<path class="st3" d="M562.5,100.1c0.3,2.2-0.4,4.4-1.8,5.5c-2.8,2.2-9.9,5-20.3,5c-10.4,0-16.1-2.8-19-5
							c-1.5-1.1-2.3-3.5-1.8-5.7l3-15.6c2.1-11,9.5-18.7,18.1-18.7h0c8.8,0,18.5,7.1,20.3,18.6L562.5,100.1z"/>
					</g>
					<g>
						<path class="st0" d="M543.4,111.2h-5c-1.7,0-3.1-1.4-3.1-3.1V86.4c0-1.7,1.4-3.1,3.1-3.1h5c1.7,0,3.1,1.4,3.1,3.1v21.7
							C546.6,109.8,545.2,111.2,543.4,111.2z"/>
					</g>
					<g>
						
							<ellipse transform="matrix(0.3797 -0.9251 0.9251 0.3797 287.0025 543.3784)" class="st0" cx="548.7" cy="57.7" rx="14.7" ry="4.7"/>
					</g>
					<g>
						
							<ellipse transform="matrix(0.9251 -0.3797 0.3797 0.9251 18.0008 206.6465)" class="st10" cx="532.9" cy="57.7" rx="4.7" ry="14.7"/>
					</g>
					<path class="st0" d="M543.3,69h-4.9c-9.6,0-17.3,7.8-17.3,17.3l0,0c0,9.6,7.8,17.3,17.3,17.3h4.9c9.6,0,17.3-7.8,17.3-17.3l0,0
						C560.6,76.8,552.9,69,543.3,69z"/>
					<g>
						<path class="st0" d="M545.2,69c8.2,0,14.9,6.7,14.9,14.9l-2.2-5.4c0,0,0.9,6.1-6.3,7.8c-4.1,1-13.8-1.8-11.1-15l3.6-3
							L545.2,69z"/>
					</g>
					<g>
						<path class="st11" d="M542.4,84.2l-0.7,1c-0.4,0.5-1.2,0.6-1.7,0l-0.8-1c-0.6-0.7-0.1-1.7,0.8-1.7h1.6
							C542.4,82.5,542.9,83.5,542.4,84.2z"/>
					</g>
					<g>
						<path class="st3" d="M529.4,70.9c5.4,20.7,28.3,10.4,29.4,28.9c0.5,8.1,3.9-16.8,0.7-23.5c-4.1-8.6-11.8-10.3-16.4-10.6
							C534.4,65.1,531.2,69.1,529.4,70.9z"/>
					</g>
					<g>
						<g>
							<path class="st12" d="M538.6,91.7c-0.5,0-0.9-0.4-0.9-0.9c0-0.5,0.4-0.9,0.9-0.9c0.5,0,1-0.4,1-1c0-0.5,0.4-0.9,0.9-0.9
								c0.5,0,0.9,0.4,0.9,0.9C541.3,90.5,540.1,91.7,538.6,91.7z"/>
						</g>
					</g>
					<g>
						<g>
							<path class="st12" d="M542.1,91.7c-1.5,0-2.7-1.2-2.7-2.7c0-0.5,0.4-0.9,0.9-0.9c0.5,0,0.9,0.4,0.9,0.9c0,0.5,0.4,1,1,1
								c0.5,0,0.9,0.4,0.9,0.9C543,91.3,542.6,91.7,542.1,91.7z"/>
						</g>
					</g>
					<g>
						
							<rect x="534.6" y="106" transform="matrix(-1 -4.499968e-11 4.499968e-11 -1 1081.616 223.876)" class="st3" width="12.3" height="11.8"/>
					</g>
					<g>
						<g>
							
								<rect x="512.2" y="144.5" transform="matrix(8.106006e-03 -1 1 8.106006e-03 372.0474 674.5806)" class="st0" width="27.7" height="10.5"/>
						</g>
					</g>
					<g>
						<g>
							<path class="st3" d="M530.9,135.9c0.1-5.6,1.1-9.5,2.9-11.3c1.3-1.3,3.2-1.6,5.2-1.9c0.7-0.1,1.5-0.2,2.2-0.4l-2.4-10.3
								c-0.4,0.1-0.9,0.2-1.4,0.3c-2.9,0.4-7.2,1.1-10.9,4.7c-4,3.9-6,10-6.1,18.7L530.9,135.9z"/>
						</g>
					</g>
					<g>
						<defs>
							<path id="SVGID_3_" d="M520.9,209.3h13.3c5.8,0,10.4-5.1,9.7-10.9l-0.8-6.7c-0.6-4.9-4.7-8.6-9.7-8.6h-11.8
								c-5,0-9.1,3.7-9.7,8.6l-0.8,6.7C510.6,204.2,515.1,209.3,520.9,209.3z"/>
						</defs>
						<clipPath id="SVGID_5_">
							<use xlink:href="#SVGID_3_"  style="overflow:visible;"/>
						</clipPath>
						<g class="st14">
							<g>
								<g>
									<g>
										<circle class="st0" cx="508.8" cy="152.4" r="0.6"/>
									</g>
								</g>
								<g>
									<g>
										<circle class="st0" cx="504.2" cy="152.4" r="0.6"/>
									</g>
								</g>
								<g>
									<g>
										<circle class="st0" cx="508.8" cy="157.1" r="0.6"/>
									</g>
								</g>
								<g>
									<g>
										<circle class="st0" cx="504.2" cy="157.1" r="0.6"/>
									</g>
								</g>
							</g>
							<g>
								<g>
									<g>
										<circle class="st0" cx="504.2" cy="152.4" r="0.6"/>
									</g>
								</g>
								<g>
									<g>
										<circle class="st0" cx="499.5" cy="152.4" r="0.6"/>
									</g>
								</g>
								<g>
									<g>
										<circle class="st0" cx="504.2" cy="157.1" r="0.6"/>
									</g>
								</g>
								<g>
									<g>
										<circle class="st0" cx="499.5" cy="157.1" r="0.6"/>
									</g>
								</g>
							</g>
							<g>
								<g>
									<g>
										<circle class="st0" cx="508.8" cy="157.1" r="0.6"/>
									</g>
								</g>
								<g>
									<g>
										<circle class="st0" cx="504.2" cy="157.1" r="0.6"/>
									</g>
								</g>
							</g>
							<g>
								<g>
									<g>
										<circle class="st0" cx="504.2" cy="157.1" r="0.6"/>
									</g>
								</g>
								<g>
									<g>
										<circle class="st0" cx="499.5" cy="157.1" r="0.6"/>
									</g>
								</g>
							</g>
							<g>
								<g>
									<g>
										<circle class="st0" cx="499.5" cy="152.4" r="0.6"/>
									</g>
								</g>
								<g>
									<g>
										<circle class="st0" cx="494.9" cy="152.4" r="0.6"/>
									</g>
								</g>
								<g>
									<g>
										<circle class="st0" cx="499.5" cy="157.1" r="0.6"/>
									</g>
								</g>
								<g>
									<g>
										<circle class="st0" cx="494.9" cy="157.1" r="0.6"/>
									</g>
								</g>
							</g>
							<g>
								<g>
									<g>
										<circle class="st0" cx="494.9" cy="152.4" r="0.6"/>
									</g>
								</g>
								<g>
									<g>
										<circle class="st0" cx="490.3" cy="152.4" r="0.6"/>
									</g>
								</g>
								<g>
									<g>
										<circle class="st0" cx="494.9" cy="157.1" r="0.6"/>
									</g>
								</g>
								<g>
									<g>
										<circle class="st0" cx="490.3" cy="157.1" r="0.6"/>
									</g>
								</g>
							</g>
							<g>
								<g>
									<g>
										<circle class="st0" cx="499.5" cy="157.1" r="0.6"/>
									</g>
								</g>
								<g>
									<g>
										<circle class="st0" cx="494.9" cy="157.1" r="0.6"/>
									</g>
								</g>
							</g>
							<g>
								<g>
									<g>
										<circle class="st0" cx="494.9" cy="157.1" r="0.6"/>
									</g>
								</g>
								<g>
									<g>
										<circle class="st0" cx="490.3" cy="157.1" r="0.6"/>
									</g>
								</g>
							</g>
							<g>
								<g>
									<g>
										<circle class="st0" cx="527.4" cy="152.4" r="0.6"/>
									</g>
								</g>
								<g>
									<g>
										<circle class="st0" cx="522.7" cy="152.4" r="0.6"/>
									</g>
								</g>
								<g>
									<g>
										<circle class="st0" cx="527.4" cy="157.1" r="0.6"/>
									</g>
								</g>
								<g>
									<g>
										<circle class="st0" cx="522.7" cy="157.1" r="0.6"/>
									</g>
								</g>
							</g>
							<g>
								<g>
									<g>
										<circle class="st0" cx="522.7" cy="152.4" r="0.6"/>
									</g>
								</g>
								<g>
									<g>
										<circle class="st0" cx="518.1" cy="152.4" r="0.6"/>
									</g>
								</g>
								<g>
									<g>
										<circle class="st0" cx="522.7" cy="157.1" r="0.6"/>
									</g>
								</g>
								<g>
									<g>
										<circle class="st0" cx="518.1" cy="157.1" r="0.6"/>
									</g>
								</g>
							</g>
							<g>
								<g>
									<g>
										<circle class="st0" cx="527.4" cy="157.1" r="0.6"/>
									</g>
								</g>
								<g>
									<g>
										<circle class="st0" cx="522.7" cy="157.1" r="0.6"/>
									</g>
								</g>
							</g>
							<g>
								<g>
									<g>
										<circle class="st0" cx="522.7" cy="157.1" r="0.6"/>
									</g>
								</g>
								<g>
									<g>
										<circle class="st0" cx="518.1" cy="157.1" r="0.6"/>
									</g>
								</g>
							</g>
							<g>
								<g>
									<g>
										<circle class="st0" cx="518.1" cy="152.4" r="0.6"/>
									</g>
								</g>
								<g>
									<g>
										<circle class="st0" cx="513.5" cy="152.4" r="0.6"/>
									</g>
								</g>
								<g>
									<g>
										<circle class="st0" cx="518.1" cy="157.1" r="0.6"/>
									</g>
								</g>
								<g>
									<g>
										<circle class="st0" cx="513.5" cy="157.1" r="0.6"/>
									</g>
								</g>
							</g>
							<g>
								<g>
									<g>
										<circle class="st0" cx="513.5" cy="152.4" r="0.6"/>
									</g>
								</g>
								<g>
									<g>
										<circle class="st0" cx="508.8" cy="152.4" r="0.6"/>
									</g>
								</g>
								<g>
									<g>
										<circle class="st0" cx="513.5" cy="157.1" r="0.6"/>
									</g>
								</g>
								<g>
									<g>
										<circle class="st0" cx="508.8" cy="157.1" r="0.6"/>
									</g>
								</g>
							</g>
							<g>
								<g>
									<g>
										<circle class="st0" cx="518.1" cy="157.1" r="0.6"/>
									</g>
								</g>
								<g>
									<g>
										<circle class="st0" cx="513.5" cy="157.1" r="0.6"/>
									</g>
								</g>
							</g>
							<g>
								<g>
									<g>
										<circle class="st0" cx="513.5" cy="157.1" r="0.6"/>
									</g>
								</g>
								<g>
									<g>
										<circle class="st0" cx="508.8" cy="157.1" r="0.6"/>
									</g>
								</g>
							</g>
							<g>
								<g>
									<g>
										<circle class="st0" cx="546" cy="152.4" r="0.6"/>
									</g>
								</g>
								<g>
									<g>
										<circle class="st0" cx="541.3" cy="152.4" r="0.6"/>
									</g>
								</g>
								<g>
									<g>
										<circle class="st0" cx="546" cy="157.1" r="0.6"/>
									</g>
								</g>
								<g>
									<g>
										<circle class="st0" cx="541.3" cy="157.1" r="0.6"/>
									</g>
								</g>
							</g>
							<g>
								<g>
									<g>
										<circle class="st0" cx="541.3" cy="152.4" r="0.6"/>
									</g>
								</g>
								<g>
									<g>
										<circle class="st0" cx="536.7" cy="152.4" r="0.6"/>
									</g>
								</g>
								<g>
									<g>
										<circle class="st0" cx="541.3" cy="157.1" r="0.6"/>
									</g>
								</g>
								<g>
									<g>
										<circle class="st0" cx="536.7" cy="157.1" r="0.6"/>
									</g>
								</g>
							</g>
							<g>
								<g>
									<g>
										<circle class="st0" cx="546" cy="157.1" r="0.6"/>
									</g>
								</g>
								<g>
									<g>
										<circle class="st0" cx="541.3" cy="157.1" r="0.6"/>
									</g>
								</g>
							</g>
							<g>
								<g>
									<g>
										<circle class="st0" cx="541.3" cy="157.1" r="0.6"/>
									</g>
								</g>
								<g>
									<g>
										<circle class="st0" cx="536.7" cy="157.1" r="0.6"/>
									</g>
								</g>
							</g>
							<g>
								<g>
									<g>
										<circle class="st0" cx="536.7" cy="152.4" r="0.6"/>
									</g>
								</g>
								<g>
									<g>
										<circle class="st0" cx="532" cy="152.4" r="0.6"/>
									</g>
								</g>
								<g>
									<g>
										<circle class="st0" cx="536.7" cy="157.1" r="0.6"/>
									</g>
								</g>
								<g>
									<g>
										<circle class="st0" cx="532" cy="157.1" r="0.6"/>
									</g>
								</g>
							</g>
							<g>
								<g>
									<g>
										<circle class="st0" cx="532" cy="152.4" r="0.6"/>
									</g>
								</g>
								<g>
									<g>
										<circle class="st0" cx="527.4" cy="152.4" r="0.6"/>
									</g>
								</g>
								<g>
									<g>
										<circle class="st0" cx="532" cy="157.1" r="0.6"/>
									</g>
								</g>
								<g>
									<g>
										<circle class="st0" cx="527.4" cy="157.1" r="0.6"/>
									</g>
								</g>
							</g>
							<g>
								<g>
									<g>
										<circle class="st0" cx="536.7" cy="157.1" r="0.6"/>
									</g>
								</g>
								<g>
									<g>
										<circle class="st0" cx="532" cy="157.1" r="0.6"/>
									</g>
								</g>
							</g>
							<g>
								<g>
									<g>
										<circle class="st0" cx="532" cy="157.1" r="0.6"/>
									</g>
								</g>
								<g>
									<g>
										<circle class="st0" cx="527.4" cy="157.1" r="0.6"/>
									</g>
								</g>
							</g>
							<g>
								<g>
									<g>
										<circle class="st0" cx="564.5" cy="152.4" r="0.6"/>
									</g>
								</g>
								<g>
									<g>
										<circle class="st0" cx="559.9" cy="152.4" r="0.6"/>
									</g>
								</g>
								<g>
									<g>
										<circle class="st0" cx="564.5" cy="157.1" r="0.6"/>
									</g>
								</g>
								<g>
									<g>
										<circle class="st0" cx="559.9" cy="157.1" r="0.6"/>
									</g>
								</g>
							</g>
							<g>
								<g>
									<g>
										<circle class="st0" cx="559.9" cy="152.4" r="0.6"/>
									</g>
								</g>
								<g>
									<g>
										<circle class="st0" cx="555.2" cy="152.4" r="0.6"/>
									</g>
								</g>
								<g>
									<g>
										<circle class="st0" cx="559.9" cy="157.1" r="0.6"/>
									</g>
								</g>
								<g>
									<g>
										<circle class="st0" cx="555.2" cy="157.1" r="0.6"/>
									</g>
								</g>
							</g>
							<g>
								<g>
									<g>
										<circle class="st0" cx="564.5" cy="157.1" r="0.6"/>
									</g>
								</g>
								<g>
									<g>
										<circle class="st0" cx="559.9" cy="157.1" r="0.6"/>
									</g>
								</g>
							</g>
							<g>
								<g>
									<g>
										<circle class="st0" cx="559.9" cy="157.1" r="0.6"/>
									</g>
								</g>
								<g>
									<g>
										<circle class="st0" cx="555.2" cy="157.1" r="0.6"/>
									</g>
								</g>
							</g>
							<g>
								<g>
									<g>
										<circle class="st0" cx="555.2" cy="152.4" r="0.6"/>
									</g>
								</g>
								<g>
									<g>
										<circle class="st0" cx="550.6" cy="152.4" r="0.6"/>
									</g>
								</g>
								<g>
									<g>
										<circle class="st0" cx="555.2" cy="157.1" r="0.6"/>
									</g>
								</g>
								<g>
									<g>
										<circle class="st0" cx="550.6" cy="157.1" r="0.6"/>
									</g>
								</g>
							</g>
							<g>
								<g>
									<g>
										<circle class="st0" cx="550.6" cy="152.4" r="0.6"/>
									</g>
								</g>
								<g>
									<g>
										<circle class="st0" cx="546" cy="152.4" r="0.6"/>
									</g>
								</g>
								<g>
									<g>
										<circle class="st0" cx="550.6" cy="157.1" r="0.6"/>
									</g>
								</g>
								<g>
									<g>
										<circle class="st0" cx="546" cy="157.1" r="0.6"/>
									</g>
								</g>
							</g>
							<g>
								<g>
									<g>
										<circle class="st0" cx="555.2" cy="157.1" r="0.6"/>
									</g>
								</g>
								<g>
									<g>
										<circle class="st0" cx="550.6" cy="157.1" r="0.6"/>
									</g>
								</g>
							</g>
							<g>
								<g>
									<g>
										<circle class="st0" cx="550.6" cy="157.1" r="0.6"/>
									</g>
								</g>
								<g>
									<g>
										<circle class="st0" cx="546" cy="157.1" r="0.6"/>
									</g>
								</g>
							</g>
						</g>
					</g>
					<g>
						<circle class="st11" cx="527.1" cy="82.7" r="3.6"/>
					</g>
				</g>
				<g>
					<g>
						<path class="st15" d="M353.9,129.5c2.8,3.1,2.6,8-3.9,3.9c-5.6-3.6-14.2-10.3-14.2-10.3"/>
						<circle class="st10" cx="330.9" cy="123.7" r="6.3"/>
						<g>
							<g>
								<g>
									<g>
										<g>
											<g>
												<path class="st3" d="M343.4,204.3c2.5,0,4.9-1.7,5.5-4.3c0-0.1,2.2-8.5,5.4-17.8c5.4-16.2,8.8-20.8,10-22.1
													c2.2-2.3,2.1-5.9-0.2-8.1c-2.3-2.2-5.9-2.1-8.1,0.2c-2.3,2.4-4.5,6.2-7,11.7c-1.8,4-3.7,9-5.6,14.7
													c-3.2,9.6-5.5,18.1-5.6,18.5c-0.8,3.1,1,6.2,4.1,7C342.5,204.2,342.9,204.3,343.4,204.3z"/>
											</g>
										</g>
									</g>
									<g>
										<g>
											<path class="st3" d="M384,205.1c1.2,0,2.4-0.4,3.5-1.2c2.5-1.9,3-5.5,1.1-8c-2.8-3.7-6-8.2-8.3-12.6
												c-6.1-12.2-7.4-17.3-7.4-28.3c0-3.2-2.6-5.7-5.7-5.7c-3.2,0-5.7,2.6-5.7,5.7c0,12.8,1.8,19.7,8.6,33.4
												c2.6,5.3,6.2,10.2,9.4,14.4C380.6,204.3,382.3,205.1,384,205.1z"/>
										</g>
									</g>
								</g>
								<g>
									<g>
										<g>
											<g>
												<path class="st3" d="M382.3,115.7c0.3,2-0.6,4-2.1,5c-2.9,1.9-10.2,4.2-20.8,3.8c-10.5-0.4-16.2-3.3-19.1-5.4
													c-1.5-1.1-2.2-3.3-1.6-5.4l3.6-14.2c2.5-10.1,10.4-16.9,19-16.5h0c8.9,0.4,18.4,7.3,19.9,18L382.3,115.7z"/>
											</g>
											<g>
												<path class="st10" d="M362.5,132.9l-5.6-0.2c-1.6-0.1-2.9-1.4-2.8-3l0.9-22.4c0.1-1.6,1.4-2.9,3-2.8l5.6,0.2
													c1.6,0.1,2.9,1.4,2.8,3l-0.9,22.4C365.5,131.7,364.1,132.9,362.5,132.9z"/>
											</g>
											<g>
												
													<ellipse transform="matrix(0.4175 -0.9087 0.9087 0.4175 147.0888 380.0022)" class="st0" cx="369.9" cy="75.3" rx="14.9" ry="4.8"/>
											</g>
											<g>
												
													<ellipse transform="matrix(0.94 -0.3412 0.3412 0.94 -4.2179 125.2483)" class="st10" cx="354" cy="74.6" rx="4.8" ry="14.9"/>
											</g>
											<g>
												<path class="st19" d="M364.1,86.5l-5.1-0.2c-9.7-0.4-17.8,7.1-18.2,16.8l0,0.1c-0.4,9.7,7.1,17.8,16.8,18.2l5.1,0.2
													c9.7,0.4,17.8-7.1,18.2-16.8l0-0.1C381.3,95.1,373.8,86.9,364.1,86.5z"/>
											</g>
											<g>
												<path class="st0" d="M354.1,85.3c8.3,0.3,14.9-1.9,14.5,6.5l-2.1,3.7c0,0,0.6,6.2-6.7,7.6c-4.2,0.8-13.9-2.4-10.6-15.7
													l3.8-2.9L354.1,85.3z"/>
											</g>
											<g>
												<path class="st3" d="M347.7,88.2c1.9,6.8,26.3,12.8,26.6,31.6c0.1,8.2,10.4-13.8,5.4-23.3c-4.5-8.5-10.4-12.8-16.7-13.3
													C354.2,82.5,349.6,86.4,347.7,88.2z"/>
											</g>
											<g>
												<g>
													<path class="st12" d="M346.4,105.8c-0.4,0-0.7-0.4-0.7-0.9c0-0.4,0.4-0.7,0.9-0.7c0.5,0,0.9-0.3,1-0.8
														c0-0.4,0.4-0.7,0.9-0.7c0.4,0,0.7,0.4,0.7,0.9C348.9,104.9,347.7,105.9,346.4,105.8z"/>
												</g>
												<g>
													<path class="st12" d="M349.5,106.1c-1.3-0.1-2.3-1.3-2.2-2.7c0-0.4,0.4-0.7,0.9-0.7c0.4,0,0.7,0.4,0.7,0.9
														c0,0.5,0.3,0.9,0.8,1c0.5,0,0.9-0.3,1-0.8c0-0.4,0.4-0.7,0.9-0.7c0.4,0,0.7,0.4,0.7,0.9
														C352.1,105.2,350.9,106.2,349.5,106.1z"/>
												</g>
											</g>
											<g>
												<g>
													<circle class="st12" cx="346.5" cy="95.7" r="1.6"/>
												</g>
												<g>
													<path class="st12" d="M353.7,97.9c-0.1,0-0.1,0-0.2,0l-2.9-1.1c-0.2-0.1-0.4-0.3-0.4-0.5c0-0.2,0.1-0.4,0.4-0.5
														l2.7-1.1c0.3-0.1,0.6,0,0.7,0.3c0.1,0.3,0,0.6-0.3,0.7l-1.4,0.5l1.5,0.6c0.3,0.1,0.4,0.4,0.3,0.7
														C354.1,97.7,353.9,97.9,353.7,97.9z"/>
												</g>
												<g>
													<g>
														<path class="st12" d="M342.8,101.2c-3.4-0.3-5.9-3.3-5.6-6.7c0.3-3.4,3.3-5.9,6.7-5.6s5.9,3.3,5.6,6.7
															C349.2,99,346.2,101.5,342.8,101.2z M343.8,90.5c-2.5-0.2-4.7,1.6-5,4.1s1.6,4.7,4.1,5c2.5,0.2,4.7-1.6,5-4.1
															S346.3,90.8,343.8,90.5z"/>
													</g>
													<g>
														<path class="st12" d="M353.5,102.2c-3.4-0.3-5.9-3.3-5.6-6.7c0.3-3.4,3.3-5.9,6.7-5.6c3.4,0.3,5.9,3.3,5.6,6.7
															C359.9,100,356.9,102.5,353.5,102.2z M354.5,91.5c-2.5-0.2-4.7,1.6-5,4.1c-0.2,2.5,1.6,4.7,4.1,5s4.7-1.6,5-4.1
															S357,91.8,354.5,91.5z"/>
													</g>
												</g>
											</g>
											<g>
												<path class="st11" d="M349.8,100.3l-0.8,0.9c-0.5,0.5-1.3,0.4-1.7-0.1l-0.7-1c-0.5-0.8,0.1-1.8,1-1.7l1.6,0.1
													C350,98.6,350.4,99.6,349.8,100.3z"/>
											</g>
										</g>
										<g>
											<g>
												<path class="st0" d="M350.4,125.4c-0.4,14.4-4.8,28.6-4.8,28.6c19.9-2.5,29.8,0.8,29.8,0.8c6.9-9,1.4-24.1,1.4-24.1
													c-2.5-8.1-6.9-9.3-6.9-9.3s-7.8-2.5-15.6,2.4c-1.3,0.6,6.3,1.9,0-0.1L350.4,125.4z"/>
											</g>
										</g>
									</g>
								</g>
								<path class="st21" d="M354.4,122c0,0,1.9-0.3,7.2-1.1c5.7-0.9,8.6-0.7,8.6-0.7s0.5,0.8,1.4,2c0.9,1.2-5.5,4.8-9.3,5.3
									c-3.8,0.4-8.5-2.9-9.5-3.3L354.4,122z"/>
							</g>
							<g>
								<circle class="st22" cx="374.3" cy="101.3" r="10"/>
								<circle class="st21" cx="374.3" cy="101.3" r="8"/>
								<g>
									
										<image style="overflow:visible;" width="89" height="89" xlink:href="BF05CB3739E44579.png"  transform="matrix(1 0 0 1 330 57)">
									</image>
								</g>
								<circle class="st23" cx="374.3" cy="101.3" r="7.3"/>
							</g>
							<path class="st24" d="M367.4,94c0,0-5.9-7-11.7-7.2c-5.8-0.2-5.8-0.2-5.8-0.2l0.5-0.5c0,0,5.7-0.7,8.4-0.5s9.5,7.1,9.5,7.1
								l-0.1,0.8L367.4,94z"/>
							<path class="st23" d="M374.3,91.3c0,0-5-7.6-13.1-7.8c-8.1-0.2-10.9,2.7-10.9,2.7s7.2-1.2,12.3,2.2c5.1,3.3,5.5,5.2,5.5,5.2
								S370.4,91.5,374.3,91.3z"/>
							<polygon class="st23" points="375.5,108.2 375.2,113.1 373.7,113.1 373.4,108.1 							"/>
							<path class="st25" d="M374.3,113c0,0,0.4,6.2-2.2,12.3"/>
						</g>
						<g>
							<path class="st27" d="M348.8,110.2h-11.5c-0.6,0-1.2-0.5-1.2-1.2v0c0-1.3,1.1-2.5,2.5-2.5h9.6c1,0,1.9,0.8,1.9,1.9v0.6
								C349.9,109.6,349.4,110.2,348.8,110.2z"/>
							<path class="st27" d="M352.6,128.4h-21.8c-1.1,0-2-0.9-2-2v-15.3c0-1.1,0.9-2,2-2h21.8c1.1,0,2,0.9,2,2v15.3
								C354.6,127.5,353.7,128.4,352.6,128.4z"/>
							<path class="st28" d="M332,109.1v-0.4c0-0.6,0.5-1.1,1.1-1.1l0,0c0.6,0,1.1,0.5,1.1,1.1v0.4"/>
							<rect x="328.8" y="114.3" class="st29" width="25.8" height="11"/>
							<g>
								<path class="st30" d="M350.8,121.5c0-5.1-4.1-9.2-9.2-9.2c-5.1,0-9.2,4.1-9.2,9.2c0,2.7,1.2,5.2,3.1,6.9h12.1
									C349.6,126.7,350.8,124.2,350.8,121.5z"/>
							</g>
							<circle class="st31" cx="340.3" cy="120.8" r="9.2"/>
							<path class="st32" d="M352.3,112.8h-1.5c-0.4,0-0.7-0.3-0.7-0.7v-0.9c0-0.4,0.3-0.7,0.7-0.7h1.5c0.4,0,0.7,0.3,0.7,0.7v0.9
								C353,112.5,352.7,112.8,352.3,112.8z"/>
							<path class="st29" d="M344.7,108.1h-6.5c-0.5,0-1,0.4-1,1v0h8.5v0C345.7,108.5,345.2,108.1,344.7,108.1z"/>
							<circle class="st33" cx="340.3" cy="120.8" r="6"/>
							<g>
								<path class="st34" d="M337.5,116.5c1-1,2.2-1.6,3.5-1.7c-1.8-0.2-3.6,0.4-5,1.7c-2.3,2.3-2.3,6.2,0,8.5
									c1.4,1.4,3.2,1.9,5,1.7c-1.3-0.2-2.5-0.7-3.5-1.7C335.2,122.7,335.2,118.9,337.5,116.5z"/>
							</g>
							<circle class="st35" cx="342.6" cy="117.3" r="0.8"/>
							<circle class="st35" cx="344.1" cy="118.6" r="0.5"/>
						</g>
						<path class="st36" d="M369.4,123.8c0,0,4.2,2.3,7.3,7.2"/>
						<path class="st15" d="M375.7,131.6c2.8,3.1,2.6,8-3.9,3.9c-5.6-3.6-14.2-10.3-14.2-10.3"/>
						<circle class="st10" cx="356.8" cy="123.7" r="6.3"/>
					</g>
					<g>
						<path class="st0" d="M324.1,109.5c-0.2,0.1-0.3-0.2-0.2-0.3l0.7-0.9c0.4-0.5,0.6-1.1,0.4-1.6c-0.2-0.5-0.6-0.8-1.3-1l-1.1-0.3
							c-0.2,0-0.2-0.3,0-0.4l1-0.4c0.6-0.2,1.1-0.7,1.2-1.1c0.1-0.5-0.1-1-0.6-1.5l-0.8-0.8c-0.1-0.1,0-0.4,0.2-0.3l1.1,0.2
							c0.7,0.1,1.2,0,1.6-0.4c0.3-0.4,0.4-1,0.2-1.6l-0.3-1.1c-0.1-0.2,0.2-0.3,0.3-0.2l0.9,0.7c0.5,0.4,1.1,0.6,1.6,0.4
							c0.5-0.2,0.8-0.6,1-1.3l0.3-1.1c0-0.2,0.3-0.2,0.4,0l0.4,1c0.2,0.6,0.7,1.1,1.1,1.2c0.5,0.1,1-0.1,1.5-0.6l0.8-0.8
							c0.1-0.1,0.4,0,0.3,0.2l-0.2,1.1c-0.1,0.7,0,1.2,0.4,1.6c0.4,0.3,1,0.4,1.6,0.2l1.1-0.3c0.2-0.1,0.3,0.2,0.2,0.3l-0.7,0.9
							c-0.4,0.5-0.6,1.1-0.4,1.6c0.1,0.2,0,0.4-0.1,0.6c-0.3,0.3-0.8,0.2-0.9-0.2c-0.2-0.5-0.2-1.1,0-1.6c-0.6,0-1.1-0.2-1.5-0.6
							c-0.4-0.4-0.7-0.8-0.8-1.4c-0.5,0.3-1,0.3-1.6,0.2c-0.5-0.1-1-0.4-1.4-0.8c-0.3,0.5-0.7,0.8-1.2,1c-0.5,0.2-1.1,0.2-1.6,0
							c0,0.6-0.2,1.1-0.6,1.5c-0.4,0.4-0.8,0.7-1.4,0.8c0.3,0.5,0.3,1,0.2,1.6c-0.1,0.5-0.4,1-0.8,1.4c0.5,0.3,0.8,0.7,1,1.2
							c0.2,0.5,0.2,1.1,0,1.6c0.6,0,1,0.2,1.5,0.6c0.2,0.2,0.3,0.5,0.1,0.7c-0.2,0.3-0.6,0.4-0.8,0.1c-0.4-0.3-1-0.4-1.6-0.2
							L324.1,109.5z"/>
					</g>
				</g>
				<g>
					<path class="st37" d="M419.6,89.5c0,0-21.7-12.3-23.3-37.1"/>
					<g>
						<g>
							<circle class="st0" cx="395.2" cy="46.7" r="13.3"/>
						</g>
					</g>
					<g>
						<path class="st3" d="M478.9,112.3c-1-0.3-1.9-0.6-2.6-0.9c-2.9-1.1-6.9-3-11.7-5.6c-2.9-1.6-4.4-4.7-3.8-7.8
							c-3.1-1.5-6.5-2.9-9.9-3.9c-4-1.2-6.2-5.3-5-9.2c1.2-3.9,5.4-6.1,9.4-4.9c9.5,2.8,18.1,7.8,22.4,10.5
							c12.3,7.8,13,11.5,13.3,13.3c0.5,3-0.8,5.9-3.3,7.6C484.8,113.5,481.5,113.1,478.9,112.3z M477,108.5L477,108.5L477,108.5z"/>
					</g>
					<g>
						<path class="st3" d="M472.2,126.6c4.4,0,5.2-11.1,5.2-12.9c0-19.3-16.1-36.4-35.9-36.4c-19.8,0-35.9,15.7-35.9,35
							c0,1.3,0.2,14.3,4.3,14.3C417.2,126.6,464.4,126.6,472.2,126.6z"/>
					</g>
					<g>
						<g>
							<path class="st0" d="M447.2,52.7c0.1,0.6-1.1,1.7-0.8,2.2c0.3,0.5,1.9,0.2,2.3,0.6c0.5,0.4,0.1,1.9,0.7,2.2
								c0.6,0.3,1.6-0.9,2.2-0.8c0.6,0.1,1.3,1.5,1.9,1.4c0.6-0.1,0.7-1.7,1.3-1.9c0.6-0.3,1.9,0.5,2.4,0c0.4-0.4-0.4-1.8-0.1-2.3
								c0.3-0.5,1.9-0.7,2-1.3c0.1-0.6-1.4-1.2-1.5-1.8c-0.1-0.6,1.1-1.7,0.8-2.2c-0.3-0.5-1.9-0.2-2.3-0.6
								c-0.5-0.4-0.1-1.9-0.7-2.2c-0.6-0.3-1.6,0.9-2.2,0.8c-0.6-0.1-1.3-1.5-1.9-1.4c-0.6,0.1-0.7,1.7-1.3,1.9
								c-0.6,0.3-1.9-0.5-2.4,0c-0.4,0.4,0.4,1.8,0.1,2.3c-0.3,0.5-1.9,0.7-2,1.3C445.6,51.5,447.1,52,447.2,52.7z"/>
						</g>
						<g>
							<path class="st0" d="M457.7,50.8c0.1,0.6-1.1,1.7-0.8,2.2c0.3,0.5,1.9,0.2,2.3,0.6c0.5,0.4,0.1,1.9,0.7,2.2
								c0.6,0.3,1.6-0.9,2.2-0.8c0.6,0.1,1.3,1.5,1.9,1.4c0.6-0.1,0.7-1.7,1.3-1.9c0.6-0.3,1.9,0.5,2.4,0c0.4-0.4-0.4-1.8-0.1-2.3
								c0.3-0.5,1.9-0.7,2-1.3c0.1-0.6-1.4-1.2-1.5-1.8c-0.1-0.6,1.1-1.7,0.8-2.2c-0.3-0.5-1.9-0.2-2.3-0.6
								c-0.5-0.4-0.1-1.9-0.7-2.2c-0.6-0.3-1.6,0.9-2.2,0.8c-0.6-0.1-1.3-1.5-1.9-1.4c-0.6,0.1-0.7,1.7-1.3,1.9
								c-0.6,0.3-1.9-0.5-2.4,0c-0.4,0.4,0.4,1.8,0.1,2.3c-0.3,0.5-1.9,0.7-2,1.3C456.1,49.6,457.6,50.2,457.7,50.8z"/>
						</g>
						<g>
							<path class="st0" d="M408.5,59.4c0.1,0.6-1.1,1.7-0.8,2.2c0.3,0.5,1.9,0.2,2.3,0.6c0.5,0.4,0.1,1.9,0.7,2.2
								c0.6,0.3,1.6-0.9,2.2-0.8c0.6,0.1,1.3,1.5,1.9,1.4c0.6-0.1,0.7-1.7,1.3-1.9c0.6-0.3,1.9,0.5,2.4,0c0.4-0.4-0.4-1.8-0.1-2.3
								c0.3-0.5,1.9-0.7,2-1.3c0.1-0.6-1.4-1.2-1.5-1.8c-0.1-0.6,1.1-1.7,0.8-2.2c-0.3-0.5-1.9-0.2-2.3-0.6
								c-0.5-0.4-0.1-1.9-0.7-2.2c-0.6-0.3-1.6,0.9-2.2,0.8c-0.6-0.1-1.3-1.5-1.9-1.4c-0.6,0.1-0.7,1.7-1.3,1.9
								c-0.6,0.3-1.9-0.5-2.4,0c-0.4,0.4,0.4,1.8,0.1,2.3c-0.3,0.5-1.9,0.7-2,1.3C406.9,58.2,408.4,58.8,408.5,59.4z"/>
						</g>
					</g>
					<g>
						<path class="st21" d="M457.1,133.3l0.3-39.7c0-10-5.8-16.1-15.8-16.1l0,0c-10.1,0-16.2,5.6-16.2,15.5l0.1,40.2"/>
					</g>
					<g>
						<path class="st39" d="M441.3,50.7c-6.4,0-10.2,3.6-10.2,9.8l0,17.1c0,5.4,4.5,9.7,10,9.8l0,0c5.5,0,10-4.3,10.1-9.7l0.1-16
							c0-0.5,0-1-0.1-1.5C450,52.2,447.5,50.7,441.3,50.7z"/>
					</g>
					<g>
						<path class="st0" d="M438.8,32.6l-8.7,1.5c-12.6,2.2-21.1,14.1-18.9,26.4l0.4,2c2.2,12.3,14.4,20.6,27,18.4l8.7-1.5
							c12.6-2.2,21.1-14.1,18.9-26.4l-0.4-2C463.6,38.7,451.4,30.4,438.8,32.6z"/>
					</g>
					<g>
						
							<ellipse transform="matrix(0.218 -0.9759 0.9759 0.218 327.1456 448.3295)" class="st0" cx="443.3" cy="20" rx="19.3" ry="6.3"/>
					</g>
					<g>
						
							<ellipse transform="matrix(0.8367 -0.5477 0.5477 0.8367 55.2311 233.5982)" class="st10" cx="419.3" cy="24.2" rx="6.3" ry="19.4"/>
					</g>
					<g>
						<path class="st10" d="M414.2,44.9c1.4,2.5,4.7,5.7,16.7,2.5c3.6-1,7.2-4.5,3.3-14l-3,0.5C424.9,35,418.6,37.4,414.2,44.9z"/>
					</g>
					<g>
						<path class="st3" d="M425.4,112.8V135h-18.9c0,0-0.2-13.1-0.2-16c0-3,2.8-4.7,2.8-4.7"/>
					</g>
					<g>
						<polyline class="st3" points="457.2,112.8 457.2,135 477.3,135 477.3,113.1 473.5,114.3 						"/>
					</g>
					<g>
						<path class="st40" d="M488.8,102.2c-5.9-1.2-11.9,2.1-13.7,7.9c-1.7,5.4,1,11.1,6,13.6c1.8-0.3,3.7-1,5.4-2.2
							c4.1-2.8,6.1-7.6,5.3-12.5C491.7,107.5,491.3,105.4,488.8,102.2z"/>
					</g>
					<g>
						<g>
							<path class="st41" d="M450.5,55.2c1.1,6-2.9,11.7-9,12.8c-6.1,1.1-12-2.8-13.2-8.8c-1.1-6,3.8-7.3,9.9-8.4
								C444.4,49.6,449.4,49.2,450.5,55.2z"/>
							<path class="st0" d="M437.5,54.8l-1.3,0.3c-0.8,0.2-1.7-0.4-1.8-1.2l-0.5-2.6c-0.2-0.8,0.4-1.6,1.2-1.8l1.3-0.3
								c0.8-0.2,1.7,0.4,1.8,1.2l0.5,2.6C438.9,53.9,438.4,54.7,437.5,54.8z"/>
							<path class="st0" d="M441.6,54l-1.3,0.3c-0.8,0.2-1.7-0.4-1.8-1.2l-0.5-2.6c-0.2-0.8,0.4-1.6,1.2-1.8l1.3-0.3
								c0.8-0.2,1.7,0.4,1.8,1.2l0.5,2.6C443,53.1,442.4,53.9,441.6,54z"/>
						</g>
						<path class="st42" d="M428.5,59.8c1-0.4,2.1-0.7,3.2-0.9c6.3-1.1,12.4,1.1,16.5,5.3c-1.6,1.9-4,3.3-6.7,3.8
							C435.5,69.1,429.9,65.4,428.5,59.8z"/>
					</g>
					<g>
						<path class="st11" d="M439.9,46.9l-1.2,2.2c-0.3,0.5-0.9,0.6-1.4,0.3l-2-1.6c-0.6-0.5-0.3-1.4,0.4-1.5l3.2-0.5
							C439.7,45.5,440.3,46.2,439.9,46.9z"/>
					</g>
					<g>
						<path class="st43" d="M495.1,63.1c-0.4,0.9-3.7,0.1-4.4,0.9c-0.7,0.8,0.7,3.8-0.2,4.4c-0.9,0.5-3.1-2.1-4.1-1.8
							c-1,0.2-1.8,3.5-2.8,3.4c-1-0.1-1.2-3.4-2.2-3.8c-1-0.4-3.6,1.8-4.3,1.2c-0.8-0.7,1.1-3.5,0.5-4.3c-0.5-0.8-4-0.6-4.2-1.5
							c-0.2-1,3-2.2,3-3.2c0.1-1-2.9-2.7-2.5-3.6c0.4-0.9,3.7-0.1,4.4-0.9c0.7-0.8-0.7-3.8,0.2-4.4c0.9-0.5,3.1,2.1,4.1,1.8
							c1-0.2,1.8-3.5,2.8-3.4c1,0.1,1.2,3.4,2.2,3.8c1,0.4,3.6-1.8,4.3-1.2c0.8,0.7-1.1,3.5-0.5,4.3c0.5,0.8,4,0.6,4.2,1.5
							c0.2,1-3,2.2-3,3.2C492.5,60.4,495.5,62.1,495.1,63.1z"/>
						<path class="st44" d="M488.4,64.8l-11.2-4.6c-3.2-1.3-6.9,0.4-7.9,3.8l-2,3.9l-1.4,5.8l-6.3,25l-1.1,3.8l-1.8,6.3
							c-0.8,2.8,0.7,5.6,3.4,6.7c2.7,1.1,5.8,0.1,7.3-2.4l10.4-17.6l2.2-3.7l11.2-19C492.9,69.9,491.6,66.1,488.4,64.8z"/>
					</g>
					<g>
						<path class="st43" d="M506,83.7c-0.6,0.8-3.4-0.9-4.2-0.4c-0.8,0.5-0.5,3.7-1.4,3.9c-0.9,0.2-2.2-2.7-3.2-2.7
							c-1-0.1-2.6,2.7-3.5,2.4c-0.9-0.3-0.2-3.4-0.9-4c-0.8-0.6-3.7,0.7-4.2-0.1c-0.5-0.8,1.9-2.9,1.7-3.8c-0.2-0.9-3.4-1.6-3.4-2.5
							c0.1-0.9,3.3-1.2,3.6-2.1c0.3-0.9-1.9-3.2-1.2-4c0.6-0.8,3.4,0.9,4.2,0.4c0.8-0.5,0.5-3.7,1.4-3.9c0.9-0.2,2.2,2.7,3.2,2.7
							c1,0.1,2.6-2.7,3.5-2.4c0.9,0.3,0.2,3.4,0.9,4c0.8,0.6,3.7-0.7,4.2,0.1c0.5,0.8-1.9,2.9-1.7,3.8c0.2,0.9,3.4,1.6,3.4,2.5
							c-0.1,0.9-3.3,1.2-3.6,2.1C504.4,80.6,506.6,83,506,83.7z"/>
						<path class="st45" d="M499.5,83.5l-8.9-7.1c-2.6-2.1-6.4-1.4-8.2,1.3l-2.9,3l-2.9,4.9l-12.6,21l-2,3.1l-3.4,5.3
							c-1.5,2.3-1,5.3,1.2,7c2.2,1.7,5.3,1.6,7.3-0.3l14.3-13.2l3-2.8l15.4-14.3C502.2,89.3,502,85.5,499.5,83.5z"/>
					</g>
					<g>
						<path class="st43" d="M474.5,70.7c-0.3,0.9-3.5,0.5-4,1.3c-0.5,0.8,1.1,3.6,0.3,4.1c-0.8,0.6-3.1-1.6-4-1.3
							c-0.9,0.3-1.3,3.5-2.2,3.5c-0.9,0-1.5-3.1-2.5-3.4c-1-0.3-3.1,2.1-3.9,1.6c-0.8-0.5,0.6-3.4,0-4.1c-0.6-0.7-3.8-0.1-4.1-1
							c-0.3-0.9,2.5-2.4,2.5-3.3c0-0.9-3-2.2-2.7-3.2c0.3-0.9,3.5-0.5,4-1.3c0.5-0.8-1.1-3.6-0.3-4.1c0.8-0.6,3.1,1.6,4,1.3
							c0.9-0.3,1.3-3.5,2.2-3.5c0.9,0,1.5,3.1,2.5,3.4c1,0.3,3.1-2.1,3.9-1.6c0.8,0.5-0.6,3.4,0,4.1c0.6,0.7,3.8,0.1,4.1,1
							c0.3,0.9-2.5,2.4-2.5,3.3C471.8,68.5,474.8,69.8,474.5,70.7z"/>
						<path class="st45" d="M468.4,73c0,0-11.1-3.1-11.1-3.1c-2-0.6-4.2,0-5.6,1.5c-1.7,1.7-2.1,4.3-2.6,6.6
							c-0.8,3.6-1.1,7.3-1.6,11c-0.4,3-0.8,6-1.2,8.9c-0.4,3.3-0.9,6.7-1.3,10l-0.6,3.7l-1,6.1c-0.4,2.7,1.3,5.2,3.9,6
							c2.7,0.7,5.5-0.6,6.6-3l7.8-17.6l1.6-3.7l8.4-19C473.3,77.4,471.6,73.9,468.4,73z"/>
					</g>
					<g>
						
							<ellipse transform="matrix(3.656925e-03 -1 1 3.656925e-03 336.1079 542.5283)" class="st0" cx="440.3" cy="102.6" rx="13.3" ry="13.9"/>
					</g>
					<g>
						<path class="st0" d="M474.2,127.3c-0.7-0.1-1.5-0.3-2.2-0.6l-32.4-10.6c-4.5-1.9-6.7-7.6-5-12.8c1.8-5.2,6.9-7.9,11.4-6
							l32.4,10.6c4.5,1.9,6.7,7.6,5,12.8C481.8,125,478,127.6,474.2,127.3z"/>
					</g>
					<g>
						<ellipse class="st12" cx="439.7" cy="42.2" rx="2.3" ry="2.2"/>
					</g>
					<g>
						<ellipse class="st12" cx="433.9" cy="43.2" rx="2.3" ry="2.2"/>
					</g>
					<rect x="406.3" y="131.2" class="st46" width="71" height="22.8"/>
					<g>
						<path class="st0" d="M446,97.3c-4.5-1.9-9.6,0.8-11.4,6c-1.8,5.2,0.4,10.9,5,12.8l14.6,4.8l6.2-18.9L446,97.3z"/>
						<path class="st3" d="M474.2,127.3c3.8,0.4,7.7-2.2,9.1-6.6c1.8-5.2-0.4-10.9-5-12.8l-18-5.9l-6.2,18.9l17.8,5.8
							C472.7,127,473.4,127.2,474.2,127.3z"/>
					</g>
				</g>
				<g>
					<g>
						
							<ellipse transform="matrix(0.9251 -0.3797 0.3797 0.9251 -11.6624 82.0422)" class="st0" cx="202.2" cy="70.6" rx="5.8" ry="18"/>
					</g>
					<g>
						
							<ellipse transform="matrix(0.3797 -0.9251 0.9251 0.3797 72.0495 248.6276)" class="st0" cx="221.4" cy="70.6" rx="18" ry="5.8"/>
					</g>
					<g>
						<ellipse class="st0" cx="212.2" cy="100.4" rx="20.8" ry="19.1"/>
					</g>
					<g>
						<g>
							<path class="st0" d="M225.7,100.8c0,0.6-1.3,1.3-1.1,1.8c0.2,0.5,1.6,0.5,1.9,1c0.3,0.5-0.3,1.8,0.2,2.1
								c0.4,0.3,1.6-0.5,2.1-0.3c0.5,0.2,0.8,1.6,1.4,1.6c0.6,0,1-1.3,1.5-1.5c0.5-0.2,1.6,0.8,2.1,0.5c0.5-0.3,0-1.7,0.3-2.1
								c0.3-0.4,1.8-0.3,2-0.8c0.2-0.5-1-1.3-1-1.9c0-0.6,1.3-1.3,1.1-1.8c-0.2-0.5-1.6-0.5-1.9-1c-0.3-0.5,0.3-1.8-0.2-2.1
								c-0.4-0.3-1.6,0.5-2.1,0.3c-0.5-0.2-0.8-1.6-1.4-1.6c-0.6,0-1,1.3-1.5,1.5c-0.5,0.2-1.6-0.8-2.1-0.5c-0.5,0.3,0,1.7-0.3,2.1
								c-0.3,0.4-1.8,0.3-2,0.8C224.6,99.4,225.7,100.2,225.7,100.8z"/>
						</g>
						<g>
							<path class="st0" d="M189.5,100.9c0,0.6-1.2,1.3-1.1,1.8c0.2,0.5,1.6,0.5,1.9,0.9c0.3,0.5-0.3,1.8,0.2,2.1
								c0.4,0.3,1.6-0.5,2.1-0.4c0.5,0.2,0.8,1.6,1.4,1.6c0.6,0,1-1.4,1.5-1.5c0.5-0.2,1.6,0.8,2.1,0.5c0.5-0.3,0-1.7,0.3-2.1
								c0.3-0.4,1.8-0.3,1.9-0.8c0.2-0.5-1-1.3-1-1.9c0-0.6,1.2-1.3,1.1-1.8c-0.2-0.5-1.6-0.5-1.9-0.9c-0.3-0.5,0.3-1.8-0.2-2.1
								c-0.4-0.3-1.6,0.5-2.1,0.4c-0.5-0.2-0.8-1.6-1.4-1.6c-0.6,0-1,1.4-1.5,1.5c-0.5,0.2-1.6-0.8-2.1-0.5c-0.5,0.3,0,1.7-0.3,2.1
								c-0.3,0.4-1.8,0.3-1.9,0.8C188.4,99.5,189.5,100.3,189.5,100.9z"/>
						</g>
					</g>
					<g>
						<path class="st48" d="M237.9,143.7c-1.2,0-2.4-0.3-3.4-1c-5.8-3.9-14.9-6.6-18-7.3c-3.3-0.8-5.3-4-4.6-7.3
							c0.8-3.3,4-5.3,7.3-4.6c0.5,0.1,13.2,3.1,22.1,9.1c2.8,1.9,3.5,5.7,1.7,8.5C241.8,142.7,239.8,143.7,237.9,143.7z"/>
					</g>
					<g>
						<path class="st48" d="M188.7,143.7c-2,0-3.9-0.9-5.1-2.7c-1.9-2.8-1.1-6.6,1.7-8.5c8.9-6,21.5-8.9,22.1-9.1
							c3.3-0.8,6.6,1.3,7.3,4.6c0.8,3.3-1.3,6.6-4.6,7.3l0,0c-0.1,0-11,2.6-18,7.3C191.1,143.4,189.9,143.7,188.7,143.7z"/>
					</g>
					<g>
						<rect x="200.1" y="150.4" class="st49" width="12.2" height="70.5"/>
					</g>
					<g>
						
							<rect x="219.3" y="146.9" transform="matrix(0.9639 -0.2663 0.2663 0.9639 -40.9496 66.6797)" class="st49" width="12.2" height="74.8"/>
					</g>
					<g>
						<path class="st48" d="M201.9,154l-1-18.5c0-11.3,5.5-13.5,11.6-13.4l0,0c8.1,0,11.3,5.2,11.3,13.4l-0.6,18.5"/>
					</g>
					<g>
						<path class="st0" d="M206.6,106.2v17.1c0,3.2,2.6,5.8,5.8,5.8h0c3.2,0,5.8-2.6,5.8-5.8v-17.1"/>
					</g>
					<g>
						<circle class="st12" cx="216.6" cy="94.3" r="1.5"/>
					</g>
					<g>
						<circle class="st12" cx="207.5" cy="94.3" r="1.5"/>
					</g>
					<g>
						<g>
							<path class="st12" d="M210.4,106.1c-1.4,0-2.5-1.1-2.5-2.5c0-0.4,0.3-0.8,0.8-0.8c0.4,0,0.8,0.3,0.8,0.8
								c0,0.5,0.4,0.9,0.9,0.9s0.9-0.4,0.9-0.9c0-0.4,0.3-0.8,0.8-0.8c0.4,0,0.8,0.3,0.8,0.8C212.9,105,211.8,106.1,210.4,106.1z"/>
						</g>
						<g>
							<path class="st12" d="M213.8,106.1c-1.4,0-2.5-1.1-2.5-2.5c0-0.4,0.3-0.8,0.8-0.8c0.4,0,0.8,0.3,0.8,0.8
								c0,0.5,0.4,0.9,0.9,0.9s0.9-0.4,0.9-0.9c0-0.4,0.3-0.8,0.8-0.8c0.4,0,0.8,0.3,0.8,0.8C216.2,105,215.1,106.1,213.8,106.1z"/>
						</g>
					</g>
					<g>
						<path class="st11" d="M213.4,100.9l-0.9,1.1c-0.2,0.3-0.6,0.3-0.8,0l-0.9-1.1c-0.3-0.3,0-0.8,0.4-0.8h1.8
							C213.4,100,213.6,100.5,213.4,100.9z"/>
					</g>
					<g>
						<g>
							<path class="st50" d="M218.1,122c0.5-1.4,2.6,1.8,2.6,1.8s-1.4,4.9-3,5.8c-1.5,0.8-3.3,0.7-4.5-0.9l-0.7-1.1
								C212.5,127.5,217.9,125.1,218.1,122z"/>
						</g>
						<g>
							<path class="st50" d="M206.7,122c-0.5-1.8-2.9,2.2-2.9,2.2s1.7,4.4,3.2,5.3c1.5,0.8,3.6,0.8,4.7-0.8l0.7-1.1
								C212.5,127.5,206.9,125.1,206.7,122z"/>
						</g>
					</g>
					<g>
						<g>
							<path class="st52" d="M214.3,130.4l2.9,2c1,0.7,2.3,0,2.3-1.2v-3.9c0-1.2-1.3-1.9-2.3-1.2l-2.9,2
								C213.4,128.5,213.4,129.8,214.3,130.4z"/>
						</g>
						<g>
							<path class="st52" d="M210.6,128l-2.9-2c-1-0.7-2.3,0-2.3,1.2v3.9c0,1.2,1.3,1.9,2.3,1.2l2.9-2
								C211.5,129.8,211.5,128.5,210.6,128z"/>
						</g>
						<g>
							<path class="st52" d="M212.7,131h-0.6c-1,0-1.8-0.8-1.8-1.8v-0.3c0-1,0.8-1.8,1.8-1.8h0.6c1,0,1.8,0.8,1.8,1.8v0.3
								C214.6,130.2,213.7,131,212.7,131z"/>
						</g>
					</g>
					<g>
						<circle class="st11" cx="198.7" cy="99.7" r="2.6"/>
					</g>
					<g>
						<circle class="st11" cx="225.3" cy="99.7" r="2.6"/>
					</g>
					<g>
						<g>
							<path class="st52" d="M218.6,101.2c-4.1,0-7.5-3.4-7.5-7.5c0-4.1,3.4-7.5,7.5-7.5s7.5,3.4,7.5,7.5
								C226.1,97.8,222.7,101.2,218.6,101.2z M218.6,88.1c-3.1,0-5.6,2.5-5.6,5.6c0,3.1,2.5,5.6,5.6,5.6c3.1,0,5.6-2.5,5.6-5.6
								C224.2,90.6,221.7,88.1,218.6,88.1z"/>
						</g>
						<g>
							<path class="st52" d="M205.5,101.2c-4.1,0-7.5-3.4-7.5-7.5c0-4.1,3.4-7.5,7.5-7.5c4.1,0,7.5,3.4,7.5,7.5
								C213,97.8,209.7,101.2,205.5,101.2z M205.5,88.1c-3.1,0-5.6,2.5-5.6,5.6c0,3.1,2.5,5.6,5.6,5.6c3.1,0,5.6-2.5,5.6-5.6
								C211.1,90.6,208.6,88.1,205.5,88.1z"/>
						</g>
					</g>
					<g>
						<path class="st50" d="M212.8,139.6l-12.6-0.1v18l-4,41.3c-0.1,1.1,0.8,2.1,2,2.1l39.1,0.3c0.9,0,1.6-0.9,1.3-1.8l-14-42.4
							l0-17.4H212.8z"/>
					</g>
					<g>
						<path class="st50" d="M200.1,143.7v-18.4c0-0.2,0.1-0.4,0.4-0.5l1.1-0.4c0.3-0.1,0.7,0.1,0.7,0.5l1,19.9L200.1,143.7z"/>
					</g>
					<g>
						<path class="st50" d="M224.5,143.9V125c0-0.2-0.1-0.4-0.4-0.5l-1.1-0.4c-0.3-0.1-0.7,0.1-0.7,0.5l-1,20.4L224.5,143.9z"/>
					</g>
					<circle class="st52" cx="212.6" cy="133" r="0.5"/>
					<circle class="st52" cx="212.6" cy="135.7" r="0.5"/>
				</g>
				<g>
					<g>
						<path class="st0" d="M712.1,185.6c1.5,0.1,3-0.2,4.4-1.1c3.6-2.2,4.8-6.9,2.6-10.5c-1-1.7-6.5-13.4-16.3-20.4
							c-3.4-2.4-8.2-1.6-10.6,1.8c-2.4,3.4-1.6,8.2,1.8,10.6c6.2,4.4,9.8,12.1,12.1,15.8C707.4,184.1,709.7,185.4,712.1,185.6z"/>
					</g>
					<g>
						
							<ellipse transform="matrix(0.3797 -0.9251 0.9251 0.3797 342.6367 702.8737)" class="st53" cx="695.4" cy="95.9" rx="19" ry="6.1"/>
					</g>
					<g>
						
							<ellipse transform="matrix(0.9251 -0.3797 0.3797 0.9251 13.3231 259.4547)" class="st54" cx="664.5" cy="95.9" rx="6.1" ry="19"/>
					</g>
					<g>
						<g>
							<rect x="667" y="100.9" class="st0" width="26.4" height="17.4"/>
						</g>
						<g>
							<path class="st0" d="M687.9,89.9h-15.4c-4.5,0-8.1,3.6-8.1,8.1v1.2c0,4.5,3.6,8.1,8.1,8.1h15.4c4.5,0,8.1-3.6,8.1-8.1V98
								C695.9,93.5,692.3,89.9,687.9,89.9z"/>
						</g>
					</g>
					<g>
						<path class="st0" d="M714.2,181.4c0,0,0.1-4.7,0.1-6.4c-0.1-18.3-16.1-27.3-34.4-27.3c-18.3,0.1-34.3,4-34.2,22.3
							c0,1.2-0.2,11.6-0.2,11.6L714.2,181.4z"/>
					</g>
					<g>
						<path class="st8" d="M679.9,146.3L679.9,146.3c-9.3,0-14.3,5.4-14.3,14.7l-0.5,21.9l11.6,0.7l3,0l3.6,0l11-0.7l-1-21.5
							C691.7,148.7,689.2,146.3,679.9,146.3z"/>
					</g>
					<g>
						<g>
							<path class="st0" d="M672.6,147.9c-6.1,1.8-4.2,2.5-7.7,3.8c1.5,2.7-1.5,17.1-4.9,22.2l4.8,15.1l11.6,0c2.4,0,4.4-2,4.4-4.4
								l-0.1-26.2L672.6,147.9z"/>
						</g>
						<g>
							<path class="st0" d="M686.7,147.8c6.1,1.8,5.2,4,8.7,5.2c-1.5,2.7,5.3,11.9,8.7,16.9l-9.5,18.9l-23.7,0.1
								c-2.4,0,7.9-2,7.9-4.4l-0.1-22.6L686.7,147.8z"/>
						</g>
					</g>
					<g>
						<circle class="st0" cx="693.1" cy="158.8" r="7.7"/>
					</g>
					<g>
						<circle class="st57" cx="679.8" cy="146.6" r="16.4"/>
					</g>
					<g>
						<path class="st57" d="M680.4,166.2C677,174,669,177.9,669,177.9s-2.4-8.6,1.1-16.3c3.5-7.7,11.4-11.7,11.4-11.7
							S683.9,158.5,680.4,166.2z"/>
					</g>
					<g>
						<path class="st57" d="M689.4,161.6c3.5,7.7,1.2,16.3,1.2,16.3s-8-3.9-11.5-11.6c-3.5-7.7-1.2-16.3-1.2-16.3
							S685.9,153.9,689.4,161.6z"/>
					</g>
					<g>
						<g>
							<path class="st53" d="M651.6,134.6v-2.9c0-11,9-20,20-20h16c11,0,20,9,20,20v2.9c0,11-9,20-20,20h-16
								C660.6,154.6,651.6,145.6,651.6,134.6z"/>
						</g>
						<g>
							<g>
								<g>
									<path class="st53" d="M649.9,127.2c0.3,0.7-1,2.2-0.5,2.8c0.5,0.6,2.3-0.1,2.9,0.3c0.6,0.4,0.5,2.4,1.3,2.6
										c0.7,0.2,1.7-1.4,2.5-1.5c0.7,0,1.8,1.6,2.5,1.4c0.7-0.3,0.6-2.2,1.2-2.6c0.6-0.5,2.4,0.2,2.9-0.4c0.4-0.6-0.8-2.1-0.6-2.8
										c0.2-0.7,2.1-1.2,2.1-2c0-0.7-1.9-1.2-2.2-1.9c-0.3-0.7,1-2.2,0.5-2.8c-0.5-0.6-2.3,0.1-2.9-0.3c-0.6-0.4-0.5-2.4-1.3-2.6
										c-0.7-0.2-1.7,1.4-2.5,1.5c-0.7,0-1.8-1.6-2.5-1.4c-0.7,0.3-0.6,2.2-1.2,2.6c-0.6,0.5-2.4-0.2-2.9,0.4
										c-0.4,0.6,0.8,2.1,0.6,2.8c-0.2,0.7-2.1,1.2-2.1,2C647.8,126,649.7,126.5,649.9,127.2z"/>
								</g>
							</g>
							<g>
								<g>
									<path class="st54" d="M697,123.3c-0.3,0.7-2.2,1.1-2.2,1.8c0,0.8,1.8,1.3,2,2.1c0.2,0.7-1.1,2.2-0.7,2.8
										c0.4,0.6,2.2,0,2.8,0.5c0.6,0.5,0.3,2.4,1.1,2.7c0.7,0.3,1.8-1.3,2.6-1.3c0.8,0,1.7,1.7,2.4,1.5c0.7-0.2,0.7-2.1,1.4-2.5
										c0.6-0.4,2.4,0.4,2.9-0.2c0.5-0.6-0.7-2.1-0.4-2.9c0.3-0.7,2.2-1.1,2.2-1.8c0-0.8-1.8-1.3-2-2.1c-0.2-0.7,1.1-2.2,0.7-2.8
										c-0.4-0.6-2.2,0-2.8-0.5c-0.6-0.5-0.3-2.4-1.1-2.7c-0.7-0.3-1.8,1.3-2.6,1.3c-0.8,0-1.7-1.7-2.4-1.5
										c-0.7,0.2-0.7,2.1-1.4,2.5c-0.6,0.4-2.4-0.4-2.9,0.2C696.1,121,697.3,122.6,697,123.3z"/>
								</g>
							</g>
							<g>
								<defs>
									<path id="SVGID_6_" d="M651.6,134.6v-2.9c0-11,9-20,20-20h16c11,0,20,9,20,20v2.9c0,11-9,20-20,20h-16
										C660.6,154.6,651.6,145.6,651.6,134.6z"/>
								</defs>
								<clipPath id="SVGID_7_">
									<use xlink:href="#SVGID_6_"  style="overflow:visible;"/>
								</clipPath>
								<path class="st58" d="M691.6,132.8L691.6,132.8c0,6.9,4,13,9,16.9c4.8-3.9,7.2-9.9,7.2-16.6v0c0-6.9-2.6-13-7.6-16.9
									C695.4,120.1,691.6,126.1,691.6,132.8z"/>
								<path class="st58" d="M663.8,112.4c0,0.2,0,1,0,1.2c0,4.6,3.7,8.3,8.3,8.3s8.3-3.7,8.3-8.3c0-0.6-0.1-1.7-0.2-2.2h-9.6
									C668.3,111.3,666,111.6,663.8,112.4z"/>
							</g>
							<g>
								<g>
									<g>
										<path class="st12" d="M678.6,117.9c-0.4,0-0.7-0.3-0.7-0.7c0-0.5-0.4-0.9-0.9-0.9s-0.9,0.4-0.9,0.9c0,0.4-0.3,0.7-0.7,0.7
											c-0.4,0-0.7-0.3-0.7-0.7c0-1.3,1.1-2.4,2.4-2.4c1.3,0,2.4,1.1,2.4,2.4C679.4,117.6,679,117.9,678.6,117.9z"/>
									</g>
									<g>
										<path class="st12" d="M684.2,117.9c-0.4,0-0.7-0.3-0.7-0.7c0-0.5-0.4-0.9-0.9-0.9s-0.9,0.4-0.9,0.9c0,0.4-0.3,0.7-0.7,0.7
											s-0.7-0.3-0.7-0.7c0-1.3,1.1-2.4,2.4-2.4c1.3,0,2.4,1.1,2.4,2.4C684.9,117.6,684.6,117.9,684.2,117.9z"/>
									</g>
								</g>
								<g>
									<path class="st59" d="M685.1,121.7h-10.7c-3.2,0-5.7,2.6-5.7,5.7c0,0,3.9-0.1,11.3-0.1c8.2,0,10.9,0.1,10.9,0.1
										C690.8,124.2,688.2,121.7,685.1,121.7z"/>
								</g>
								<g>
									<path class="st60" d="M681.6,121.5l-1.3,1.6c-0.3,0.4-0.8,0.4-1.1,0l-1.4-1.6c-0.4-0.5-0.1-1.2,0.6-1.2h2.6
										C681.6,120.3,682,121,681.6,121.5z"/>
								</g>
							</g>
						</g>
					</g>
					<g>
						<g>
							<path class="st61" d="M643.1,143.8L637,150c-0.3,0.3-0.3,0.8,0,1.1l6.4,6.3c0.3,0.3,0.9,0.6,1.3,0.6l2.4,0.3
								c0.4,0.1,1-0.1,1.3-0.4l0.7-0.7l5,4.9l1.4-1.4l-5-4.9l0.7-0.7c0.3-0.3,0.5-0.9,0.4-1.3l-0.3-2.4c-0.1-0.4-0.4-1-0.7-1.3
								l-6.4-6.3C643.9,143.5,643.4,143.5,643.1,143.8z M645,155.2c0.2,0.2,0.2,0.5,0,0.6c-0.2,0.2-0.5,0.2-0.6,0l-5.3-5.3
								c-0.2-0.2-0.2-0.5,0-0.6c0.2-0.2,0.5-0.2,0.6,0L645,155.2z M647,153.2c0.2,0.2,0.2,0.5,0,0.6c-0.2,0.2-0.5,0.2-0.6,0
								l-5.3-5.3c-0.2-0.2-0.2-0.5,0-0.6c0.2-0.2,0.5-0.2,0.6,0L647,153.2z M649,151.2c0.2,0.2,0.2,0.5,0,0.6
								c-0.2,0.2-0.5,0.2-0.6,0l-5.3-5.3c-0.2-0.2-0.2-0.5,0-0.6c0.2-0.2,0.5-0.2,0.6,0L649,151.2z"/>
						</g>
					</g>
					<g>
						<g>
							<path class="st63" d="M711.1,159.8c-0.2,0.3-1.4-0.1-1.6,0.1c-0.3,0.3,0.1,1.5-0.3,1.6c-0.3,0.2-1-0.9-1.4-0.9
								c-0.4,0-0.8,1.2-1.2,1.1c-0.4-0.1-0.3-1.3-0.6-1.5c-0.3-0.2-1.4,0.5-1.6,0.2c-0.3-0.3,0.5-1.2,0.4-1.6
								c-0.2-0.3-1.4-0.4-1.4-0.8c0-0.4,1.2-0.7,1.2-1.1c0.1-0.4-0.9-1.1-0.7-1.5c0.2-0.3,1.4,0.1,1.6-0.1c0.3-0.3-0.1-1.5,0.3-1.6
								c0.3-0.2,1,0.9,1.4,0.9c0.4,0,0.8-1.2,1.2-1.1c0.4,0.1,0.3,1.3,0.6,1.5c0.3,0.2,1.4-0.5,1.6-0.2c0.3,0.3-0.5,1.2-0.4,1.6
								c0.2,0.3,1.4,0.4,1.4,0.8c0,0.4-1.2,0.7-1.2,1.1C710.3,158.7,711.3,159.5,711.1,159.8z"/>
						</g>
						<g>
							<path class="st64" d="M708.6,160.1c0,0-3.9-2.2-3.9-2.2c-1.3-0.7-2.5,0-3.1,1.2c-2,4-3.5,8.1-5,12.3l-0.6,1.4l-0.9,2.3
								c-0.4,1,0,2.1,0.9,2.7c0.9,0.5,2.1,0.3,2.7-0.6l4.6-6.1l1-1.3l4.9-6.5C710,162.2,709.7,160.8,708.6,160.1z"/>
						</g>
					</g>
					<g>
						<g>
							<path class="st63" d="M716.7,165.5c-0.3,0.2-1.2-0.6-1.5-0.5c-0.4,0.1-0.5,1.4-0.9,1.4c-0.4,0-0.6-1.2-0.9-1.3
								c-0.4-0.1-1.2,0.8-1.5,0.6c-0.3-0.2,0.3-1.3,0-1.6c-0.2-0.3-1.5-0.1-1.6-0.4c-0.1-0.4,1-0.9,1-1.3c0-0.4-1.1-0.9-1-1.3
								c0.1-0.4,1.3-0.2,1.6-0.5c0.2-0.3-0.4-1.4-0.1-1.6c0.3-0.2,1.2,0.6,1.5,0.5c0.4-0.1,0.5-1.4,0.9-1.4c0.4,0,0.6,1.2,0.9,1.3
								c0.4,0.1,1.2-0.8,1.5-0.6c0.3,0.2-0.3,1.3,0,1.6c0.2,0.3,1.5,0.1,1.6,0.4c0.1,0.4-1,0.9-1,1.3c0,0.4,1.1,0.9,1,1.3
								c-0.1,0.4-1.3,0.2-1.6,0.5C716.4,164.1,717,165.2,716.7,165.5z"/>
						</g>
					</g>
				</g>
				<g>
					<g>
						<path class="st65" d="M304.9,140.5c-2.8,0-5.4-1.7-6.4-4.4c0-0.1-3.9-9.6-12.2-15.6c-3.1-2.2-3.8-6.5-1.5-9.6
							c2.2-3.1,6.5-3.8,9.6-1.5c11.7,8.5,16.8,21.3,17,21.8c1.4,3.5-0.4,7.5-3.9,8.9C306.6,140.3,305.7,140.5,304.9,140.5z"/>
					</g>
					<g>
						<path class="st65" d="M261.1,140.5c-0.8,0-1.7-0.1-2.5-0.5c-3.5-1.4-5.3-5.4-3.9-8.9c0.2-0.5,5.2-13.3,17-21.8
							c3.1-2.2,7.4-1.5,9.6,1.5s1.5,7.4-1.5,9.6c-8.3,6-12.2,15.6-12.2,15.6C266.5,138.8,263.9,140.5,261.1,140.5z"/>
					</g>
					<g>
						<path class="st0" d="M296.3,145.2l-0.2-19.8c-2-12-4.3-14.2-13-14.2l0,0c-8.7,0-12.1,5-12.1,13.7l0,20.3"/>
					</g>
					<g>
						<path class="st66" d="M289,94.7v17.1c0,3.2-2.6,5.8-5.8,5.8h0c-3.2,0-5.8-2.6-5.8-5.8V94.7"/>
					</g>
					<g>
						<rect x="268.5" y="141.3" class="st3" width="13.1" height="85.2"/>
					</g>
					<g>
						<rect x="282.4" y="141.3" class="st3" width="13.1" height="85.2"/>
					</g>
					<g>
						<path class="st65" d="M282.5,108.6L282.5,108.6c9.2,0,14.1,5.2,14.1,14.4l0.5,21.6l-11.4,0.7l-3,0.1l-3.6,0l-11.2-0.6
							l0.9-21.1C270.9,111,273.3,108.6,282.5,108.6z"/>
					</g>
					<g>
						<path class="st0" d="M281.9,112.8h0.9c3.5,0,6.4-2.9,6.4-6.4V87.1c0-3.5-2.9-6.4-6.4-6.4h-0.9c-3.5,0-6.4,2.9-6.4,6.4v19.4
							C275.5,110,278.4,112.8,281.9,112.8z"/>
					</g>
					<g>
						<defs>
							<path id="SVGID_8_" d="M268.2,122.5c7-4.7,1-10.5,5.4-11.7c1.2-1,7.5,5.8,9.3,5.5c1.3-0.2,2-1.4,3.7-1.4c2.7,0,0.8-5.9,2.8-5
								c0.3,0,0.6,0.1,0.9,0.2c0.5,0.1-1.9,2.4,6.1,6.9c3.3,1.9,0.1,3.6-1.7,6.9c-1.3,2.2,2.7,3.8,0.3,3.8c-1.1,0,1.1,1.6,0,1
								c-2.3-1.3,4.6-1.1,1.6-2.2l0.4,17.4l-11.4,1.4l-3,0.1l-3.6,0l-11.2-0.6l0.8-17.7c-2.3,1,5.5,3.9,3.3,5.4
								c-1.2,0.8-0.4-6.2-1.7-6.2c-2.2,0-0.4,2.3-1.7,0.3C266.4,123.4,265.1,124.6,268.2,122.5z"/>
						</defs>
						<clipPath id="SVGID_9_">
							<use xlink:href="#SVGID_8_"  style="overflow:visible;"/>
						</clipPath>
					</g>
					<g>
						<path class="st3" d="M267.8,146.7L267.8,146.7c0,2.9,2.9,5.3,6.4,5.3h16.4c3.5,0,6.4-2.4,6.4-5.3v0v-4.1H268L267.8,146.7"/>
					</g>
					<g>
						<g>
							<g>
								<path class="st0" d="M303.8,86.5c0.4,0.6-0.8,2.1-0.6,2.8c0.2,0.7,2.1,1.2,2.1,2c0,0.7-1.9,1.2-2.1,1.9
									c-0.2,0.7,1,2.2,0.5,2.8c-0.4,0.6-2.2-0.2-2.8,0.3c-0.6,0.4-0.5,2.4-1.2,2.6c-0.7,0.2-1.7-1.4-2.5-1.4
									c-0.7,0-1.8,1.6-2.5,1.4c-0.7-0.2-0.5-2.1-1.2-2.6c-0.6-0.4-2.4,0.3-2.8-0.4c-0.4-0.6,0.8-2.1,0.6-2.8
									c-0.2-0.7-2.1-1.2-2.1-2c0-0.7,1.9-1.2,2.1-1.9c0.2-0.7-1-2.2-0.5-2.8c0.4-0.6,2.2,0.2,2.8-0.3c0.6-0.4,0.5-2.4,1.2-2.6
									c0.7-0.2,1.7,1.4,2.5,1.4c0.7,0,1.8-1.6,2.5-1.4c0.7,0.2,0.5,2.1,1.2,2.6C301.5,86.6,303.3,85.9,303.8,86.5z"/>
							</g>
						</g>
						<g>
							<defs>
								<path id="SVGID_10_" d="M281.5,104h2.5c9.6,0,17.3-7.7,17.3-17.3v-5.5c0-9.6-7.7-17.3-17.3-17.3h-2.5
									c-9.6,0-17.3,7.7-17.3,17.3v5.5C264.2,96.3,271.9,104,281.5,104z"/>
							</defs>
							<clipPath id="SVGID_11_">
								<use xlink:href="#SVGID_10_"  style="overflow:visible;"/>
							</clipPath>
							<path class="st67" d="M283.8,64.8v-1.2c-0.4-0.4-0.7-0.7-1.1-1.1h0c-10.4,0-18.8,8.4-18.8,18.8v1.2c0.4,0.4-0.9,0.8-0.5,1.2
								l0,0C273.8,83.8,283.8,75.2,283.8,64.8z"/>
						</g>
						<g>
							<g>
								<path class="st0" d="M276.1,91.4c0,0.8-1.9,1.2-2.1,1.9c-0.3,0.7,0.9,2.2,0.5,2.8c-0.5,0.6-2.2-0.2-2.8,0.3
									c-0.6,0.4-0.5,2.3-1.3,2.6c-0.7,0.2-1.7-1.4-2.4-1.5c-0.8,0-1.8,1.6-2.5,1.3c-0.7-0.3-0.5-2.2-1.1-2.6
									c-0.6-0.5-2.4,0.2-2.8-0.4c-0.4-0.6,0.8-2,0.6-2.8c-0.2-0.7-2.1-1.2-2-2c0-0.8,1.9-1.2,2.1-1.9c0.3-0.7-0.9-2.2-0.5-2.8
									c0.5-0.6,2.2,0.2,2.8-0.3c0.6-0.4,0.5-2.3,1.3-2.6c0.7-0.2,1.7,1.4,2.4,1.5c0.8,0,1.8-1.6,2.5-1.3c0.7,0.3,0.5,2.2,1.1,2.6
									c0.6,0.5,2.4-0.2,2.8,0.4c0.4,0.6-0.8,2-0.6,2.8C274.3,90.1,276.1,90.6,276.1,91.4z"/>
							</g>
						</g>
						<g>
							
								<ellipse transform="matrix(0.3797 -0.9251 0.9251 0.3797 133.7762 304.9363)" class="st0" cx="294.3" cy="52.7" rx="19.2" ry="6.2"/>
						</g>
						<g>
							
								<ellipse transform="matrix(0.9251 -0.3797 0.3797 0.9251 0.5407 107.7806)" class="st10" cx="273.5" cy="52.5" rx="6.2" ry="19.2"/>
						</g>
						<g>
							<path class="st0" d="M281.5,104h2.5c9.6,0,17.3-7.7,17.3-17.3v-5.5c0-9.6-7.7-17.3-17.3-17.3h-2.5c-9.6,0-17.3,7.7-17.3,17.3
								v5.5C264.2,96.3,271.9,104,281.5,104z"/>
						</g>
						<g>
							<defs>
								<path id="SVGID_12_" d="M281.5,104h2.5c9.6,0,17.3-7.7,17.3-17.3v-5.5c0-9.6-7.7-17.3-17.3-17.3h-2.5
									c-9.6,0-17.3,7.7-17.3,17.3v5.5C264.2,96.3,271.9,104,281.5,104z"/>
							</defs>
							<clipPath id="SVGID_13_">
								<use xlink:href="#SVGID_12_"  style="overflow:visible;"/>
							</clipPath>
							<path class="st68" d="M283.8,64.8v-1.2c-0.4-0.4-0.7-0.7-1.1-1.1h0c-10.4,0-18.8,8.4-18.8,18.8v1.2c0.4,0.4-0.9,0.8-0.5,1.2
								l0,0C273.8,83.8,283.8,75.2,283.8,64.8z"/>
						</g>
						<g>
							<g>
								<path class="st69" d="M283.8,75.3c0,0-5.6-0.9-12.4,4.6c0,0,7.5,2.3,12.4-1.1V75.3z"/>
							</g>
							<g>
								<path class="st69" d="M283.8,75.3c0,0,5.6-0.9,12.4,4.6c0,0-7.5,2.3-12.4-1.1V75.3z"/>
							</g>
						</g>
						<g>
							<g>
								<path class="st11" d="M281.3,74.1l1.7,2.2c0.4,0.5,1.1,0.5,1.5,0l1.8-2.2c0.5-0.6,0.1-1.6-0.8-1.6h-3.5
									C281.2,72.4,280.8,73.4,281.3,74.1z"/>
							</g>
							<g>
								<path class="st12" d="M281.7,70.5c-0.5,0-0.9-0.4-0.9-0.9c0-0.6-0.5-1.1-1.1-1.1c-0.6,0-1.1,0.5-1.1,1.1
									c0,0.5-0.4,0.9-0.9,0.9c-0.5,0-0.9-0.4-0.9-0.9c0-1.6,1.3-2.8,2.8-2.8c1.6,0,2.8,1.3,2.8,2.8
									C282.6,70.1,282.2,70.5,281.7,70.5z"/>
							</g>
							<g>
								<path class="st12" d="M289.4,70.5c-0.5,0-0.9-0.4-0.9-0.9c0-0.6-0.5-1.1-1.1-1.1c-0.6,0-1.1,0.5-1.1,1.1
									c0,0.5-0.4,0.9-0.9,0.9c-0.5,0-0.9-0.4-0.9-0.9c0-1.6,1.3-2.8,2.8-2.8c1.6,0,2.8,1.3,2.8,2.8
									C290.2,70.1,289.8,70.5,289.4,70.5z"/>
							</g>
						</g>
					</g>
					<g>
						<path class="st3" d="M301,188.4h-37.9c0,0,2.9-40,2.9-46c5.2-7.6,6.1-11.5,6.1-21.7c6.3,0,14.8,0,20.3,0
							c0,7.6,0.9,13.2,5.7,21.7C298.1,149.2,301,188.4,301,188.4z"/>
					</g>
					<g>
						<path class="st3" d="M282.5,112.8h-0.2H280c-0.6,0-1.1,0.6-0.9,1.2l1.3,3.8c0.1,0.4,0.5,0.6,0.9,0.6h1.1h0h1.1
							c0.4,0,0.8-0.3,0.9-0.6l1.3-3.8c0.2-0.6-0.3-1.2-0.9-1.2H282.5z"/>
					</g>
					<g>
						<polygon class="st3" points="281.3,118.5 279.5,126.7 285.3,126.7 283.5,118.5 						"/>
					</g>
					<g>
						<g>
							<path class="st70" d="M288.5,104.9c0.2-4.2,4.7,4.1,4.7,4.1s-2.1,6-4.4,7.3c-2.2,1.2-3.6,0.7-5.3-1.8l-1.1-1.6
								C282.4,112.8,288.3,109.5,288.5,104.9z"/>
						</g>
						<g>
							<path class="st70" d="M276.2,104.9c-0.2-4.2-4.7,4.1-4.7,4.1s2.1,6,4.4,7.3c2.2,1.2,3.6,0.7,5.3-1.8l1.1-1.6
								C282.4,112.8,276.5,109.5,276.2,104.9z"/>
						</g>
					</g>
					<g>
						<path class="st3" d="M274,139.9c-0.1,0-0.2,0-0.3,0c-1.2-0.2-2-1.2-1.8-2.4c1.3-10.3-1-20.4-3.4-25.9c-0.5-1.1,0-2.3,1.1-2.8
							c1.1-0.5,2.3,0,2.8,1.1c2.7,6,5.2,17,3.8,28.1C275.9,139.1,275,139.9,274,139.9z"/>
					</g>
					<g>
						<path class="st3" d="M290.8,139.9c-1.1,0-2-0.8-2.1-1.9c-1.5-11.4,1.8-24.2,3.8-28.2c0.5-1.1,1.8-1.5,2.9-1
							c1.1,0.5,1.5,1.8,1,2.9c-1.9,3.9-4.7,15.8-3.4,25.8c0.2,1.2-0.7,2.2-1.8,2.4C291,139.9,290.9,139.9,290.8,139.9z"/>
					</g>
					<g>
						<g>
							<rect x="279.1" y="152.8" class="st72" width="1.4" height="6.3"/>
						</g>
						<g>
							<g>
								<rect x="278.7" y="150.4" class="st72" width="2.1" height="1.9"/>
							</g>
							<g>
								<polygon class="st72" points="279.9,154.2 279.6,154.2 278.7,152.3 280.8,152.3 								"/>
							</g>
						</g>
						<g>
							<rect x="287.8" y="151.9" class="st72" width="2.5" height="7.2"/>
						</g>
						<g>
							<g>
								<rect x="274.7" y="156" class="st72" width="1.3" height="3.2"/>
							</g>
							<g>
								<path class="st72" d="M276.4,156.3h-2c-0.5,0-1-0.4-1-1v-0.1c0-0.5,0.4-1,1-1h2c0.5,0,1,0.4,1,1v0.1
									C277.3,155.9,276.9,156.3,276.4,156.3z"/>
							</g>
							<g>
								<g>
									<rect x="273.4" y="151.7" class="st72" width="0.4" height="3.6"/>
								</g>
								<g>
									<rect x="274.1" y="151.7" class="st72" width="0.4" height="3.6"/>
								</g>
								<g>
									<rect x="274.8" y="151.7" class="st72" width="0.4" height="3.6"/>
								</g>
								<g>
									<rect x="275.5" y="151.7" class="st72" width="0.4" height="3.6"/>
								</g>
								<g>
									<rect x="276.2" y="151.7" class="st72" width="0.4" height="3.6"/>
								</g>
								<g>
									<rect x="276.9" y="151.7" class="st72" width="0.4" height="3.6"/>
								</g>
							</g>
						</g>
					</g>
					<g>
						<g>
							<g>
								<path class="st72" d="M311.9,114l-1.9,2.4l-2.4-2l1.9-2.4c-1.2-0.3-2.6,0.2-3.4,1.2c-1.2,1.5-1,3.7,0.5,4.9
									c1.5,1.2,3.7,1,4.9-0.5C312.3,116.6,312.4,115.2,311.9,114z"/>
							</g>
						</g>
						<g>
							
								<rect x="302" y="114.8" transform="matrix(0.7776 0.6288 -0.6288 0.7776 144.1129 -163.7795)" class="st72" width="3" height="14"/>
						</g>
					</g>
					<g>
						<g>
							<path class="st73" d="M260.2,146.8c-1.3,0-2.5-0.4-3.6-1.2c-2-1.4-2.9-3.8-2.5-6.2l1-5.6c0.6-3.4,3.8-5.6,7.2-5
								c1.5,0.3,2.7,1,3.6,2.1c7.1-2.9,17.2-6,25.7-4.6c3.4,0.6,5.7,3.8,5.1,7.1c-0.6,3.4-3.8,5.7-7.1,5.1
								c-8.2-1.4-22.1,5.1-26.4,7.4C262.3,146.6,261.2,146.8,260.2,146.8z"/>
						</g>
						<g>
							<circle class="st73" cx="295.6" cy="132.8" r="9"/>
						</g>
						<g>
							<path class="st0" d="M303.7,144.3c-0.5,0-1-0.1-1.5-0.2c-6.3-1.6-24.5-5.4-33.4-3.9c-3.4,0.6-6.6-1.7-7.1-5.1
								c-0.6-3.4,1.7-6.6,5.1-7.1c5.7-1,14-0.5,24.6,1.3c3.2,0.5,6.2,1.1,8.5,1.6c1.5-1.6,3.7-2.3,5.9-1.8c3.3,0.7,5.5,4.1,4.7,7.4
								l-0.7,3c-0.4,1.6-1.4,3.1-2.8,3.9C306,144,304.9,144.3,303.7,144.3z"/>
						</g>
						<g>
							<circle class="st0" cx="268.3" cy="132.8" r="9"/>
						</g>
					</g>
				</g>
				<g>
					<g>
						<g>
							<path class="st74" d="M787.2,85.4c0,0.8-1.9,1.2-2.1,1.9c-0.2,0.7,1,2.2,0.6,2.8c-0.4,0.6-2.2-0.1-2.8,0.3
								c-0.6,0.4-0.5,2.4-1.2,2.6c-0.7,0.2-1.7-1.4-2.5-1.4c-0.8,0-1.8,1.6-2.5,1.4c-0.7-0.2-0.6-2.2-1.2-2.6
								c-0.6-0.4-2.4,0.3-2.8-0.3c-0.4-0.6,0.8-2.1,0.6-2.8c-0.2-0.7-2.1-1.2-2.1-1.9c0-0.8,1.9-1.2,2.1-1.9c0.2-0.7-1-2.2-0.6-2.8
								c0.4-0.6,2.2,0.1,2.8-0.3c0.6-0.4,0.5-2.4,1.2-2.6c0.7-0.2,1.7,1.4,2.5,1.4c0.8,0,1.8-1.6,2.5-1.4c0.7,0.2,0.6,2.2,1.2,2.6
								c0.6,0.4,2.4-0.3,2.8,0.3c0.4,0.6-0.8,2.1-0.6,2.8C785.4,84.1,787.2,84.6,787.2,85.4z"/>
						</g>
					</g>
					<g>
						<g>
							<path class="st63" d="M794.5,100.1c0.4,0.1,0.4,1.3,0.7,1.5c0.3,0.2,1.3-0.6,1.6-0.4c0.3,0.3-0.5,1.3-0.3,1.6
								c0.2,0.3,1.4,0.3,1.5,0.6c0.1,0.4-1.1,0.8-1.2,1.1c-0.1,0.4,1,1.1,0.8,1.4c-0.2,0.3-1.4,0-1.6,0.2c-0.3,0.3,0.2,1.4-0.2,1.6
								c-0.3,0.2-1.1-0.8-1.4-0.8c-0.4,0.1-0.7,1.3-1.1,1.2c-0.4-0.1-0.4-1.3-0.7-1.5c-0.3-0.2-1.3,0.6-1.6,0.4
								c-0.3-0.3,0.5-1.3,0.3-1.6c-0.2-0.3-1.4-0.3-1.5-0.6c-0.1-0.4,1.1-0.8,1.2-1.1c0.1-0.4-1-1.1-0.8-1.4c0.2-0.3,1.4,0,1.6-0.2
								c0.3-0.3-0.2-1.4,0.2-1.6c0.3-0.2,1.1,0.8,1.4,0.8C793.8,101.2,794.1,100,794.5,100.1z"/>
						</g>
						<g>
							<path class="st51" d="M795.7,102.2l-0.6,4.4c-0.2,1.3,0.8,2.4,2.1,2.4l1.6,0l2.2,0.3l9.6-0.2l1.5,0l2.4,0
								c1.1,0,2-0.8,2.1-1.8s-0.5-2.1-1.6-2.3l-7.3-2l-1.5-0.4l-7.9-2.1C797.2,100.1,795.9,101,795.7,102.2z"/>
						</g>
					</g>
					<g>
						
							<ellipse transform="matrix(0.3797 -0.9251 0.9251 0.3797 440.2522 744.3288)" class="st10" cx="775.1" cy="43.9" rx="19.2" ry="6.2"/>
					</g>
					<g>
						
							<ellipse transform="matrix(0.9251 -0.3797 0.3797 0.9251 39.8922 289.6636)" class="st74" cx="754.4" cy="43.7" rx="6.2" ry="19.2"/>
					</g>
					<g>
						<path class="st73" d="M789,134.2c-0.4,0-0.7,0-1.1-0.1c-2.1-0.3-3.9-1.6-4.9-3.4c-3.4-6.1-8.4-12.4-10.6-13.5
							c-3.6-0.3-6.4-3.3-6.4-6.9c0-3.8,3.1-6.9,6.9-6.9c5.1,0,10.2,3.6,16,11.2c0.5,0.7,1,1.4,1.5,2.1l6.2-5.6
							c2.8-2.6,7.2-2.3,9.7,0.5c2.6,2.8,2.3,7.2-0.5,9.7l-12.2,11C792.4,133.6,790.7,134.2,789,134.2z M772.9,117.3
							C772.9,117.3,773,117.3,772.9,117.3C773,117.3,772.9,117.3,772.9,117.3z"/>
					</g>
					<g>
						<path class="st10" d="M794.2,129.6c-1.9,0-3.8-0.8-5.1-2.3c-2.6-2.8-2.3-7.2,0.5-9.7l7-6.4c2.8-2.6,7.2-2.3,9.7,0.5
							c2.6,2.8,2.3,7.2-0.5,9.7l-7,6.4C797.5,129,795.9,129.6,794.2,129.6z"/>
					</g>
					<g>
						<path class="st73" d="M739.8,134.6c-1.4,0-2.7-0.4-3.9-1.2c-3.1-2.2-3.9-6.5-1.7-9.6c1-1.4,9-14.2,18.3-19.9
							c3.2-2,7.5-1,9.5,2.2c2,3.2,1,7.5-2.2,9.5c-5.8,3.6-12,12.8-14.2,16.1C744.1,133.6,741.9,134.6,739.8,134.6z"/>
					</g>
					<g>
						<path class="st66" d="M771.4,89.4v17.1c0,3.2-2.6,5.8-5.8,5.8l0,0c-3.2,0-5.8-2.6-5.8-5.8V89.4"/>
					</g>
					<g>
						<rect x="751.1" y="136.1" class="st3" width="13.1" height="90.3"/>
					</g>
					<g>
						<polyline class="st3" points="778.2,167.6 778.2,226.5 765.1,226.5 765.1,136.1 778.2,136.1 778.2,167.6 						"/>
					</g>
					<g>
						<path class="st73" d="M776.4,111.4c1.6-6.4-2.8-12.8-9.2-14.2c-6.5-1.4-12.8,2.8-14.2,9.2s2.8,12.8,9.2,14.2
							C762.2,120.7,773.9,121.2,776.4,111.4z"/>
					</g>
					<g>
						<path class="st10" d="M764.3,109.3h0.9c3.5,0,6.4-2.9,6.4-6.4V81.8c0-3.5-2.9-6.4-6.4-6.4h-0.9c-3.5,0-6.4,2.9-6.4,6.4v21.1
							C757.9,106.5,760.8,109.3,764.3,109.3z"/>
					</g>
					<g>
						<defs>
							<path id="SVGID_14_" d="M750.6,117.3c7-4.7,1-10.5,5.4-11.7c1.2-1,7.5,5.8,9.3,5.5c1.3-0.2,2-1.4,3.7-1.4
								c2.7,0,0.8-5.9,2.8-5c0.3,0,0.6,0.1,0.9,0.2c0.5,0.1-1.9,2.4,6.2,6.9c3.3,1.9,0.1,3.6-1.7,6.9c-1.3,2.3,2.8,3.8,0.3,3.8
								c-1.1,0,1.1,1.6,0,1c-2.3-1.3,4.7-1.1,1.6-2.2l0.4,17.5l-11.5,1.4l-3,0.1l-3.6,0l-11.3-0.6l0.8-17.8c-2.3,1,5.5,4,3.3,5.4
								c-1.2,0.8-0.4-6.2-1.7-6.2c-2.2,0-0.4,2.3-1.7,0.3C748.8,118.3,747.4,119.4,750.6,117.3z"/>
						</defs>
						<clipPath id="SVGID_15_">
							<use xlink:href="#SVGID_14_"  style="overflow:visible;"/>
						</clipPath>
					</g>
					<g>
						<path class="st3" d="M749.8,137.4h29.8v4.1c0,2.9-2.9,7.7-6.5,7.7h-16.4c-3.6,0-6.9-4.7-6.9-7.7V137.4z"/>
					</g>
					<g>
						<path class="st10" d="M763.9,98.3h2.5c9.6,0,17.4-7.8,17.4-17.4v-8.5c0-9.6-7.8-17.4-17.4-17.4h-2.5
							c-9.6,0-17.4,7.8-17.4,17.4v8.5C746.6,90.5,754.3,98.3,763.9,98.3z"/>
						<g>
							<defs>
								<path id="SVGID_16_" d="M763.9,98.3h2.5c9.6,0,17.4-7.8,17.4-17.4v-8.5c0-9.6-7.8-17.4-17.4-17.4h-2.5
									c-9.6,0-17.4,7.8-17.4,17.4v8.5C746.6,90.5,754.3,98.3,763.9,98.3z"/>
							</defs>
							<clipPath id="SVGID_17_">
								<use xlink:href="#SVGID_16_"  style="overflow:visible;"/>
							</clipPath>
							<path class="st75" d="M771.3,90.2v8.2c0,0,0,0,0,0c7.9-2.4,13.6-9.8,13.6-18.4v-8.2c0,0,0,0,0,0
								C777,74.2,771.3,81.6,771.3,90.2z"/>
							<path class="st75" d="M764.7,57.7v-3.6c-0.2,0-0.4,0-0.6,0h-1.8c-10.6,0-19.2,8.6-19.2,19.2V77c0.2,0,0.4,0,0.6,0h1.8
								C756,77,764.7,68.4,764.7,57.7z"/>
						</g>
					</g>
					<g>
						<g>
							<path class="st10" d="M758.9,85.4c0,0.8-1.9,1.2-2.1,1.9c-0.2,0.7,1,2.2,0.6,2.8c-0.4,0.6-2.2-0.1-2.8,0.3
								c-0.6,0.4-0.5,2.4-1.2,2.6c-0.7,0.2-1.7-1.4-2.5-1.4c-0.8,0-1.8,1.6-2.5,1.4c-0.7-0.2-0.6-2.2-1.2-2.6
								c-0.6-0.4-2.4,0.3-2.8-0.3c-0.4-0.6,0.8-2.1,0.6-2.8c-0.2-0.7-2.1-1.2-2.1-1.9c0-0.8,1.9-1.2,2.1-1.9c0.2-0.7-1-2.2-0.6-2.8
								c0.4-0.6,2.2,0.1,2.8-0.3c0.6-0.4,0.5-2.4,1.2-2.6c0.7-0.2,1.7,1.4,2.5,1.4s1.8-1.6,2.5-1.4c0.7,0.2,0.6,2.2,1.2,2.6
								c0.6,0.4,2.4-0.3,2.8,0.3c0.4,0.6-0.8,2.1-0.6,2.8C757,84.1,758.9,84.6,758.9,85.4z"/>
						</g>
					</g>
					<g>
						<path class="st73" d="M753.7,134.6h-13.9c-3.8,0-6.9-3.1-6.9-6.9s3.1-6.9,6.9-6.9h13.9c3.8,0,6.9,3.1,6.9,6.9
							S757.5,134.6,753.7,134.6z"/>
					</g>
					<g>
						<path class="st76" d="M774.5,102.1c1,0.8,3.7,1.5,4.1,2.8c-2.1,4.6-2.7,15.9,1,20.1v15.3h-12.3c-2,0-3.1-1.6-3.1-3.6V121
							c0,0,4.2-6.4,6.6-10.3C773.6,106.1,774.5,102.1,774.5,102.1z"/>
					</g>
					<g>
						<path class="st0" d="M771.6,99.3l0-0.2c0.4-0.1,3.2,2.8,3.2,2.8l-4.3,6.8c-0.9,1.1-2.5,1.2-3.6,0.2l-1.4-1.3
							c0,0,5.3-3.6,6.1-6.4C771.6,100.8,771.6,99.3,771.6,99.3z"/>
					</g>
					<g>
						<path class="st76" d="M754.9,102.1c-1,0.8-3.7,1.5-4.1,2.8c2.1,4.6,2.7,15.9-1,20.1v15.3H762c2,0,3.1-1.6,3.1-3.6V121
							c0,0-4.2-6.4-6.6-10.3C755.7,106.1,754.9,102.1,754.9,102.1z"/>
					</g>
					<g>
						<path class="st77" d="M743.3,125.5v29h12.9v-30c0-3-2.4-5.5-5.5-5.5L743.3,125.5z"/>
					</g>
					<g>
						<path class="st0" d="M748.4,131.3h0.9c3.5,0,6.3-2.8,6.3-6.3l0-1.6c0-2.4-2-4.4-4.4-4.4h-4.8c-2.4,0-4.4,2-4.4,4.4v1.6
							C742.1,128.5,744.9,131.3,748.4,131.3z"/>
					</g>
					<g>
						<path class="st10" d="M756.6,134.6h-11.4c-3.8,0-6.9-3.1-6.9-6.9s3.1-6.9,6.9-6.9h11.4c3.8,0,6.9,3.1,6.9,6.9
							S760.4,134.6,756.6,134.6z"/>
					</g>
					<g>
						<circle class="st10" cx="758.3" cy="129" r="7.6"/>
					</g>
					<g>
						<path class="st12" d="M766.5,71.5c-0.4,0-0.7-0.2-0.9-0.5c0-0.2,0.1-0.3,0.1-0.5c0-0.5-0.4-0.9-0.9-0.9c0,0-0.1,0-0.1,0
							c0,0-0.1,0-0.1,0c-0.5,0-0.9,0.4-0.9,0.9c0,0.2,0,0.4,0.1,0.5c-0.2,0.3-0.5,0.5-0.9,0.5c-0.5,0-0.9,0.4-0.9,0.9
							c0,0.5,0.4,0.9,0.9,0.9c0.7,0,1.4-0.3,1.9-0.7c0.5,0.4,1.2,0.7,1.9,0.7c0.5,0,0.9-0.4,0.9-0.9C767.4,71.9,767,71.5,766.5,71.5
							z"/>
						<g>
							<path class="st11" d="M762.4,64.8l1.5,2c0.3,0.4,1,0.5,1.4,0l1.6-2c0.5-0.6,0.1-1.5-0.7-1.5h-3.1
								C762.3,63.3,761.9,64.2,762.4,64.8z"/>
						</g>
					</g>
					<g>
						<path class="st10" d="M794.9,113.8c3.1,3.3,4.4,12.7,8,9.9c4.8-3.7,9.1-7.7,13.1-11.3c3.4-3-1-3.2-13.4-3.2
							C798,109.3,790.4,109.2,794.9,113.8z"/>
					</g>
					<g>
						<path class="st0" d="M823.8,110.9h-37.7c-0.8,0-1.4-0.6-1.4-1.4v-0.2c0-0.8,0.6-1.4,1.4-1.4h37.7c0.8,0,1.4,0.6,1.4,1.4v0.2
							C825.2,110.3,824.6,110.9,823.8,110.9z"/>
					</g>
					<g>
						<path class="st0" d="M757.9,99.3l0-0.2c-0.4-0.1-3.3,3-3.3,3l4.4,6.6c0.9,1.1,2.5,1.2,3.6,0.2l1.4-1.3c0,0-5-3.4-6-6.2
							c-0.1-0.2-0.1-0.4-0.1-0.5C757.9,100.3,757.9,99.3,757.9,99.3z"/>
					</g>
					<g>
						<g>
							<path class="st8" d="M767.4,111.8l4,2.7c1.3,0.9,3.1,0,3.1-1.7v-5.4c0-1.6-1.8-2.6-3.1-1.7l-4,2.7
								C766.2,109.3,766.2,111.1,767.4,111.8z"/>
						</g>
						<g>
							<path class="st8" d="M762.3,108.5l-4-2.7c-1.3-0.9-3.1,0-3.1,1.7v5.4c0,1.6,1.8,2.6,3.1,1.7l4-2.7
								C763.5,111.1,763.5,109.3,762.3,108.5z"/>
						</g>
						<g>
							<path class="st8" d="M765.2,112.8h-0.8c-1.4,0-2.5-1.1-2.5-2.5v-0.4c0-1.4,1.1-2.5,2.5-2.5h0.8c1.4,0,2.5,1.1,2.5,2.5v0.4
								C767.8,111.6,766.6,112.8,765.2,112.8z"/>
						</g>
					</g>
					<path class="st0" d="M745.6,120.3l0.8-1.3c-6.9,0-9.2,3.7-9.2,3.7l0,0c-1,1.3-1.5,3-1.5,4.7c0,2.2,0,25.7,0,25.7H747
						c0,0,0-17.8,0-22.6c0-5.6,0.4-9.6,4.6-9.6C756.9,120.9,752,120.3,745.6,120.3z"/>
					<g>
						<g>
							<path class="st12" d="M762.8,61.7c-0.5,0-0.9-0.4-0.9-0.9c0-0.6-0.5-1.1-1.1-1.1s-1.1,0.5-1.1,1.1c0,0.5-0.4,0.9-0.9,0.9
								c-0.5,0-0.9-0.4-0.9-0.9c0-1.6,1.3-2.8,2.8-2.8c1.6,0,2.8,1.3,2.8,2.8C763.6,61.3,763.2,61.7,762.8,61.7z"/>
						</g>
						<g>
							<path class="st12" d="M770.4,61.7c-0.5,0-0.9-0.4-0.9-0.9c0-0.6-0.5-1.1-1.1-1.1s-1.1,0.5-1.1,1.1c0,0.5-0.4,0.9-0.9,0.9
								c-0.5,0-0.9-0.4-0.9-0.9c0-1.6,1.3-2.8,2.8-2.8c1.6,0,2.8,1.3,2.8,2.8C771.3,61.3,770.9,61.7,770.4,61.7z"/>
						</g>
					</g>
				</g>
				<g>
					<g>
						<defs>
							<path id="SVGID_18_" d="M879,91.7L879,91.7c0-11.1-7.8-20.1-17.3-20.1l-9.6,0c-9.6,0-18,9-18,20.1v0
								c0,11.1,7.8,20.1,17.3,20.1h10.3C871.2,111.7,879,102.7,879,91.7z"/>
						</defs>
						<clipPath id="SVGID_19_">
							<use xlink:href="#SVGID_18_"  style="overflow:visible;"/>
						</clipPath>
						<g class="st78">
							<path class="st0" d="M879,91.7L879,91.7c0-11.1-7.8-20.1-17.3-20.1l-9.6,0c-9.6,0-18,9-18,20.1v0c0,11.1,7.8,20.1,17.3,20.1
								h10.3C871.2,111.7,879,102.7,879,91.7z"/>
						</g>
						<g class="st78">
							<path class="st10" d="M833.9,91.7L833.9,91.7c0,0.1,0,0.2,0,0.2H848c8.5,0,8.9-9.2,8.9-20.3h-0.2c0-0.1-2.9,0,0,0l-4.3-0.2
								C841.3,71.4,833.9,80.6,833.9,91.7z"/>
						</g>
						<g class="st78">
							<path class="st10" d="M866.6,99.4L866.6,99.4c0,3.9,1.8,7.3,4.7,9.5c5.1-3.6,8.4-9.6,8.4-16.3v0c0-1.8-0.2-3.6-0.7-5.2h-0.4
								C872,87.4,866.6,92.7,866.6,99.4z"/>
						</g>
					</g>
					<g>
						<circle class="st0" cx="873.4" cy="157.8" r="7.9"/>
					</g>
					<g>
						<path class="st3" d="M879,140.7c-1.6,0-3.2-0.6-4.5-1.7c-6.9-6.1-16.9-9.6-17-9.6c-3.6-1.2-5.5-5.1-4.3-8.7
							c1.2-3.6,5.1-5.5,8.7-4.3c0.5,0.2,12.6,4.3,21.7,12.3c2.9,2.5,3.1,6.9,0.6,9.7C882.8,139.9,880.9,140.7,879,140.7z"/>
					</g>
					<g>
						<path class="st0" d="M870.7,161.7c-1.6,0-3.3-0.6-4.5-1.9c-2.4-2.5-2.4-6.5,0.1-8.9c3.5-3.5,7.6-7.3,10.7-10.3l-1-0.7
							c-2.8-2.1-3.3-6.1-1.1-8.9c2.1-2.8,6.1-3.3,8.9-1.1l6.8,5.3c1.5,1.1,2.4,2.9,2.4,4.7c0.1,1.9-0.6,3.6-2,4.9
							c-0.1,0.1-9,8.4-15.9,15.2C873.9,161.1,872.3,161.7,870.7,161.7z"/>
					</g>
					<g>
						<circle class="st0" cx="838.9" cy="157.8" r="7.9"/>
					</g>
					<g>
						<path class="st3" d="M833.4,140.7c-1.9,0-3.8-0.8-5.2-2.3c-2.5-2.9-2.2-7.2,0.6-9.7c9.3-8.2,22.6-11.7,23.1-11.8
							c3.7-1,7.4,1.2,8.4,4.9c1,3.7-1.2,7.4-4.9,8.4l0,0c-0.1,0-10.7,2.9-17.5,8.9C836.6,140.1,835,140.7,833.4,140.7z"/>
					</g>
					<g>
						<path class="st0" d="M841.7,161.7c-1.6,0-3.2-0.6-4.4-1.8c-6.9-6.8-15.8-15.1-15.9-15.2c-1.4-1.3-2.1-3.1-2-4.9
							c0.1-1.9,1-3.6,2.4-4.7l6.8-5.3c2.8-2.1,6.7-1.6,8.9,1.1c2.1,2.8,1.6,6.7-1.1,8.9l-1,0.7c3.2,3,7.2,6.8,10.7,10.3
							c2.5,2.4,2.5,6.4,0.1,8.9C844.9,161.1,843.3,161.7,841.7,161.7z"/>
					</g>
					<g>
						<path class="st40" d="M865.9,166.9h-18.8c-3.1,0-5.6-2.5-5.6-5.6v-0.8c0-3.1,2.5-5.6,5.6-5.6h18.8c3.1,0,5.6,2.5,5.6,5.6v0.8
							C871.5,164.4,869,166.9,865.9,166.9z"/>
					</g>
					<g>
						<rect x="840.8" y="156.7" class="st40" width="13.1" height="58.7"/>
					</g>
					<g>
						<rect x="858.2" y="156.7" class="st40" width="13.4" height="58.7"/>
					</g>
					<g>
						<ellipse class="st83" cx="856.8" cy="119.8" rx="9.9" ry="7.7"/>
					</g>
					<g>
						<g>
							<path class="st8" d="M856.7,120.8L856.7,120.8c-10.3,0-15.9,9.3-15.9,19.4l-0.2,20.3h27l-0.3-23
								C865.5,123.5,867,120.8,856.7,120.8z"/>
						</g>
						<g>
							<path class="st8" d="M855.8,120.8L855.8,120.8c10.3,0,15.9,9.3,15.9,19.4l0.2,20.3h-26.7l0.3-23
								C847.2,123.5,845.5,120.8,855.8,120.8z"/>
						</g>
					</g>
					<g>
						<path class="st0" d="M857.1,123.2h-0.8c-3,0-5.4-2.4-5.4-5.4v-8.2c0-3,2.4-5.4,5.4-5.4h0.8c3,0,5.4,2.4,5.4,5.4v8.2
							C862.5,120.7,860.1,123.2,857.1,123.2z"/>
					</g>
					<g>
						
							<ellipse transform="matrix(0.3797 -0.9251 0.9251 0.3797 482.976 838.3593)" class="st0" cx="866.6" cy="59" rx="16.8" ry="5.4"/>
					</g>
					<g>
						
							<ellipse transform="matrix(0.9251 -0.3797 0.3797 0.9251 40.955 325.7658)" class="st10" cx="846.4" cy="59" rx="5.4" ry="16.8"/>
					</g>
					<g>
						<g>
							<path class="st12" d="M855,93.6c-0.5,0-0.9-0.4-0.9-0.9c0-0.5,0.4-0.9,0.9-0.9c0.6,0,1-0.5,1-1c0-0.5,0.4-0.9,0.9-0.9
								s0.9,0.4,0.9,0.9C857.8,92.4,856.6,93.6,855,93.6z"/>
						</g>
						<g>
							<path class="st12" d="M858.7,93.6c-1.5,0-2.8-1.3-2.8-2.8c0-0.5,0.4-0.9,0.9-0.9s0.9,0.4,0.9,0.9c0,0.6,0.5,1,1,1
								c0.6,0,1-0.5,1-1c0-0.5,0.4-0.9,0.9-0.9c0.5,0,0.9,0.4,0.9,0.9C861.5,92.4,860.2,93.6,858.7,93.6z"/>
						</g>
					</g>
					<g>
						<g>
							<circle class="st12" cx="854.4" cy="81.9" r="1.6"/>
						</g>
						<g>
							<circle class="st12" cx="858.8" cy="81.9" r="1.6"/>
						</g>
						<g>
							<g>
								<path class="st12" d="M852.7,86.4h-2.2c-2.7,0-4.9-2.2-4.9-4.9V81c0-2.7,2.2-4.9,4.9-4.9h2.2c2.7,0,4.9,2.2,4.9,4.9v0.6
									C857.5,84.2,855.3,86.4,852.7,86.4z M850.5,77.9c-1.7,0-3.1,1.4-3.1,3.1v0.6c0,1.7,1.4,3.1,3.1,3.1h2.2
									c1.7,0,3.1-1.4,3.1-3.1V81c0-1.7-1.4-3.1-3.1-3.1H850.5z"/>
							</g>
							<g>
								<path class="st12" d="M863,86.4h-2.2c-2.7,0-4.9-2.2-4.9-4.9V81c0-2.7,2.2-4.9,4.9-4.9h2.2c2.7,0,4.9,2.2,4.9,4.9v0.6
									C867.8,84.2,865.6,86.4,863,86.4z M860.8,77.9c-1.7,0-3.1,1.4-3.1,3.1v0.6c0,1.7,1.4,3.1,3.1,3.1h2.2c1.7,0,3.1-1.4,3.1-3.1
									V81c0-1.7-1.4-3.1-3.1-3.1H860.8z"/>
							</g>
						</g>
					</g>
					<g>
						<path class="st8" d="M844,119.6c0.6,8.5-3.1,12.8-2.9,19.2c0.1,3.5,27.3,1.2,27.7,0.2c0.2-0.6-9.3,0.8-14.3-4.8
							c-3.9-4.4-3.2-16.1-4.8-16.3C846.3,117.3,844,119.6,844,119.6z"/>
					</g>
					<g>
						<path class="st8" d="M868.8,119.6c-0.6,8.5,3.1,13,2.9,19.4c-0.1,3.5-27.3,1-27.7,0c-0.2-0.6,10.6-1.6,15.7-7.2
							c3.8-4.2,1.8-13.6,3.3-13.8C866.6,117.3,868.8,119.6,868.8,119.6z"/>
					</g>
					<g>
						<path class="st3" d="M849,121.5l4.4,12c1.3,3,5.6,3,6.8-0.1l4.3-12.1l-7.7,1.9l-7.7-1.9"/>
					</g>
					<g>
						<g>
							<path class="st83" d="M850.9,116.9c-0.2-3.4-3.3-1.2-3.7,1.2c-0.4,2.4,1.5,6.5,3.6,7.5c1.4,0.7,2.6,0.9,4-1.1l0.9-1.3
								C855.6,123.1,851.1,120.6,850.9,116.9z"/>
						</g>
						<g>
							<path class="st83" d="M862.7,116.8c0.2-3.4,3.5-1,3.9,1.5c0.4,2.5-1.8,6.5-3.7,7.6c-1.8,1-2.9,0.6-4.3-1.4l-0.9-1.3
								C857.7,123.1,862.5,120.5,862.7,116.8z"/>
						</g>
						<g>
							<circle class="st0" cx="856.8" cy="126.4" r="0.9"/>
						</g>
						<g>
							<circle class="st0" cx="856.8" cy="132.1" r="0.9"/>
						</g>
					</g>
					<g>
						<rect x="842.6" y="133.6" class="st0" width="8" height="4.3"/>
					</g>
					<g>
						<path class="st11" d="M858.6,86.8l-0.9,1.2c-0.5,0.7-1.5,0.7-2,0l-1-1.2c-0.7-0.9-0.1-2.2,1-2.2h1.9
							C858.7,84.7,859.3,85.9,858.6,86.8z"/>
					</g>
				</g>
				<g>
					<g>
						<ellipse class="st83" cx="605.8" cy="113" rx="9.1" ry="7.8"/>
					</g>
					<g>
						<path class="st26" d="M624.7,138.5c-2.4,0-4.7-1.2-6-3.4c-5.4-9-10.7-10.8-11-10.8c0.1,0,0.2,0.1,0.2,0.1l3.2-13.5
							c1.1,0.3,11,3,19.4,17.2c1.9,3.3,0.9,7.5-2.4,9.5C627.2,138.2,625.9,138.5,624.7,138.5z"/>
					</g>
					<g>
						<path class="st26" d="M586.6,138.5c-1.2,0-2.4-0.3-3.5-1c-3.3-1.9-4.4-6.2-2.4-9.5c8.4-14.2,18.3-16.9,19.4-17.2l3.2,13.5
							c0,0,0.1,0,0.2-0.1c-0.2,0.1-5.6,1.8-11,10.8C591.2,137.3,588.9,138.5,586.6,138.5z"/>
					</g>
					<g>
						<path class="st26" d="M605.6,112.2L605.6,112.2c-10.8,0-16.7,6.2-16.7,16.9l-0.2,25l32.9,0.1l-0.4-24.4
							C619.3,115,616.4,112.2,605.6,112.2z"/>
					</g>
					<g>
						<path class="st0" d="M606,115.5h-0.8c-3,0-5.4-2.4-5.4-5.4v-8.3c0-3,2.4-5.4,5.4-5.4h0.8c3,0,5.4,2.4,5.4,5.4v8.3
							C611.5,113,609,115.5,606,115.5z"/>
					</g>
					<g>
						<path class="st8" d="M597,142c-0.1,0-0.2,0-0.3,0c-1.2-0.2-2-1.2-1.9-2.4c1.2-9.1,0.2-18.1-2.7-24.8c-0.5-1.1,0-2.4,1.1-2.9
							c1.1-0.5,2.4,0,2.9,1.1c1.9,4.3,4.8,13.6,3.1,27.1C599,141.2,598.1,142,597,142z"/>
					</g>
					<g>
						<path class="st8" d="M614.2,142c-1.1,0-2-0.8-2.2-1.9c-1.5-11.4,0.8-22.6,3-26.9c0.5-1.1,1.8-1.5,2.9-1c1.1,0.5,1.5,1.8,1,2.9
							c-1.8,3.7-3.9,14-2.6,24.3c0.2,1.2-0.7,2.3-1.9,2.4C614.4,142,614.3,142,614.2,142z"/>
					</g>
					<g>
						<circle class="st0" cx="605.7" cy="118.7" r="0.9"/>
					</g>
					<g>
						<circle class="st86" cx="605.7" cy="125.9" r="0.9"/>
					</g>
					<g>
						<rect x="590.9" y="145.7" class="st83" width="13.5" height="69.5"/>
					</g>
					<g>
						<rect x="605.9" y="145.7" class="st83" width="13.5" height="69.5"/>
					</g>
					<g>
						<path class="st8" d="M624.7,191.6H586c0,0,3-40.9,3-47c5.3-7.8,6.2-11.7,6.2-22.1c6.4,0,15.2,0,20.8,0
							c0,7.8,0.9,13.5,5.9,22.1C621.8,151.6,624.7,191.6,624.7,191.6z"/>
					</g>
					<g>
						<circle class="st73" cx="617" cy="132.3" r="7.9"/>
					</g>
					<g>
						<path class="st73" d="M585.7,145.6c-1.3,0-2.6-0.4-3.7-1.2c-2-1.4-3-3.9-2.5-6.3l0.9-4.9c0.6-3.4,3.9-5.7,7.4-5.1
							c1.3,0.2,2.4,0.8,3.3,1.7c6.4-2.6,15.2-5.2,22.6-3.9c3.5,0.6,5.8,3.8,5.2,7.3c-0.6,3.5-3.8,5.8-7.3,5.2
							c-7-1.2-19,4.4-22.7,6.4C587.8,145.3,586.7,145.6,585.7,145.6z"/>
					</g>
					<g>
						<path class="st0" d="M624.1,143.3c-0.5,0-1.1-0.1-1.6-0.2c-5.5-1.4-21.4-4.8-29.1-3.5c-3.5,0.6-6.7-1.8-7.3-5.2
							c-0.6-3.5,1.8-6.7,5.2-7.3c8.6-1.4,21.7,0.9,29.1,2.5c1.5-1.3,3.6-2,5.7-1.5c3.4,0.8,5.6,4.1,4.8,7.6l-0.6,2.7
							c-0.4,1.7-1.4,3.1-2.9,4C626.5,143,625.3,143.3,624.1,143.3z"/>
					</g>
					<g>
						<circle class="st0" cx="592.8" cy="132.3" r="7.9"/>
					</g>
					<g>
						<path class="st83" d="M599.8,109c-0.2-3.4-4,3.2-4,3.2s1.7,4.6,3.8,5.6c1.4,0.7,2.6,0.9,4-1.1l0.9-1.3
							C604.5,115.4,600,112.8,599.8,109z"/>
					</g>
					<g>
						<path class="st83" d="M611.6,108.9c0.2-3.4,3.8,3.3,3.8,3.3s-1.6,4.8-3.6,5.8c-1.8,1-2.9,0.6-4.3-1.4l-0.9-1.3
							C606.7,115.4,611.4,112.7,611.6,108.9z"/>
					</g>
					<g>
						<circle class="st3" cx="604.4" cy="60.8" r="15.8"/>
					</g>
					<g>
						
							<ellipse transform="matrix(0.3797 -0.9251 0.9251 0.3797 326.5293 604.0488)" class="st40" cx="613.7" cy="58.5" rx="16.3" ry="5.2"/>
					</g>
					<g>
						
							<ellipse transform="matrix(0.9251 -0.3797 0.3797 0.9251 22.411 230.7338)" class="st0" cx="596.2" cy="58.5" rx="5.2" ry="16.3"/>
					</g>
					<g>
						<ellipse class="st8" cx="604.4" cy="76.3" rx="14.6" ry="13"/>
					</g>
					<g>
						<path class="st3" d="M611.6,66.3h-13.4c-8.3,0-15,6.7-15,15v2.2c0,8.3,6.7,15,15,15h13.4c8.3,0,15-6.7,15-15v-2.2
							C626.6,73,619.9,66.3,611.6,66.3z"/>
					</g>
					<g>
						<path class="st0" d="M608.9,71.1h-7.8c-9,0-16.3,7.3-16.3,16.3v2.4c0,9,7.3,16.3,16.3,16.3h7.8c9,0,16.3-7.3,16.3-16.3v-2.4
							C625.2,78.4,617.9,71.1,608.9,71.1z"/>
					</g>
					<g>
						<path class="st40" d="M623.2,77.9c-1-3.3-7.2-8.2-15.4-8.2h-3v4.4c0,4.5,0.1,7,5.2,8.2C615,83.5,621.5,80.2,623.2,77.9z"/>
					</g>
					<g>
						<path class="st40" d="M588.6,76.9c-2.8,3.1-4.6,7.3-4.6,11.8v0c0,6.1,3.1,11.5,7.9,14.6c2.8-3.1,4.6-7.3,4.6-11.8v0
							C596.5,85.4,593.4,80,588.6,76.9z"/>
					</g>
					<g>
						<g>
							<g>
								<g>
									<path class="st12" d="M614,87.1c-0.8,0-1.6-0.3-2.3-1c-0.7-0.7-1.2-1.6-1.3-2.7c-0.1-0.5,0.3-0.9,0.8-1
										c0.5-0.1,0.9,0.3,1,0.8c0.1,0.7,0.4,1.3,0.8,1.7c0.4,0.4,0.8,0.5,1.2,0.5c0.5-0.1,0.9,0.3,1,0.8c0.1,0.5-0.3,0.9-0.8,1
										C614.3,87.1,614.2,87.1,614,87.1z"/>
								</g>
							</g>
						</g>
						<g>
							<path class="st12" d="M609,88.3c-0.5,0-0.9-0.4-0.9-0.9c0-0.5,0.4-0.9,0.9-0.9c1.3,0,1.9-0.9,2.2-1.6
								c0.2-0.4,0.7-0.6,1.1-0.5c0.4,0.2,0.6,0.7,0.5,1.1C612.1,87.3,610.7,88.3,609,88.3C609,88.3,609,88.3,609,88.3z"/>
						</g>
					</g>
					<g>
						<path class="st11" d="M607.2,83l-0.8,1.1c-0.5,0.6-1.4,0.6-1.9,0l-0.9-1.1c-0.7-0.8-0.1-2,0.9-2h1.8
							C607.3,81.1,607.8,82.2,607.2,83z"/>
					</g>
					<g>
						<g>
							<path class="st12" d="M603.9,79.9c-0.5,0-0.9-0.4-0.9-0.9c0-0.6-0.5-1.1-1.1-1.1c-0.6,0-1.1,0.5-1.1,1.1
								c0,0.5-0.4,0.9-0.9,0.9s-0.9-0.4-0.9-0.9c0-1.6,1.3-2.8,2.8-2.8c1.6,0,2.8,1.3,2.8,2.8C604.8,79.5,604.4,79.9,603.9,79.9z"/>
						</g>
						<g>
							<path class="st12" d="M610.4,79.9c-0.5,0-0.9-0.4-0.9-0.9c0-0.6-0.5-1.1-1.1-1.1c-0.6,0-1.1,0.5-1.1,1.1
								c0,0.5-0.4,0.9-0.9,0.9s-0.9-0.4-0.9-0.9c0-1.6,1.3-2.8,2.8-2.8c1.6,0,2.8,1.3,2.8,2.8C611.3,79.5,610.9,79.9,610.4,79.9z"/>
						</g>
					</g>
					<g>
						<path class="st3" d="M583.9,82.2c4.7-5,11.6-6.8,21.5-6.8c11.2,0,16.8,1.9,20.7,6.8c0.4-4.9-4.3-9-10.2-11.6
							c-5.7-2.6-12.8-3.3-21.2-0.7C586.2,72.5,583.2,77.9,583.9,82.2z"/>
					</g>
					<g>
						<polyline class="st0" points="592.1,78.4 593.7,71 597.9,80.5 						"/>
					</g>
					<g>
						<path class="st0" d="M618,90.3c-0.1,0.6-1.5,1.2-1.4,1.8c0.1,0.6,1.6,0.7,1.9,1.3c0.3,0.5-0.5,1.8-0.1,2.3
							c0.4,0.4,1.7-0.4,2.3-0.1c0.5,0.3,0.7,1.8,1.3,1.9c0.6,0.1,1.2-1.3,1.8-1.4c0.6-0.1,1.6,1.1,2.1,0.8c0.5-0.3,0.2-1.8,0.6-2.2
							c0.4-0.4,1.9-0.1,2.2-0.6c0.3-0.5-0.9-1.5-0.8-2.1c0.1-0.6,1.5-1.2,1.4-1.8c-0.1-0.6-1.6-0.7-1.9-1.3
							c-0.3-0.5,0.5-1.8,0.1-2.3c-0.4-0.4-1.7,0.4-2.3,0.1c-0.5-0.3-0.7-1.8-1.3-1.9c-0.6-0.1-1.2,1.3-1.8,1.4
							c-0.6,0.1-1.6-1.1-2.1-0.8c-0.5,0.3-0.2,1.8-0.6,2.2c-0.4,0.4-1.9,0.1-2.2,0.6C616.9,88.7,618.1,89.7,618,90.3z"/>
					</g>
					<g>
						<path class="st40" d="M593,92.2c-0.1,0.6-1.6,0.7-1.9,1.2c-0.3,0.5,0.5,1.9,0,2.3c-0.4,0.4-1.7-0.4-2.3-0.1
							c-0.5,0.3-0.7,1.8-1.3,1.9c-0.6,0.1-1.1-1.3-1.7-1.5c-0.6-0.1-1.6,1-2.1,0.7c-0.5-0.3-0.2-1.8-0.6-2.2
							c-0.4-0.4-1.9-0.1-2.2-0.7c-0.3-0.5,0.9-1.5,0.8-2.1c-0.1-0.6-1.5-1.2-1.4-1.8c0.1-0.6,1.6-0.7,1.9-1.2c0.3-0.5-0.5-1.9,0-2.3
							c0.4-0.4,1.7,0.4,2.3,0.1c0.5-0.3,0.7-1.8,1.3-1.9c0.6-0.1,1.1,1.3,1.7,1.5c0.6,0.1,1.6-1,2.1-0.7c0.5,0.3,0.2,1.8,0.6,2.2
							c0.4,0.4,1.9,0.1,2.2,0.7c0.3,0.5-0.9,1.5-0.8,2.1C591.7,91,593.1,91.6,593,92.2z"/>
					</g>
				</g>
				<g>
					<g>
						<circle class="st87" cx="122.5" cy="162.5" r="7.8"/>
					</g>
					<g>
						<path class="st88" d="M121.4,149.2C121.4,149.2,121.4,149.2,121.4,149.2c-4,0-7.2-3.3-7.1-7.2c0.1-10.9,1.9-19.6,5.3-25.7
							c3.9-7.2,9.1-9.7,12.8-10.5c3.8-0.9,7.6,1.5,8.5,5.3c0.9,3.8-1.5,7.6-5.3,8.5c-2.5,0.6-6.9,6-7.1,22.6
							C128.5,146.1,125.3,149.2,121.4,149.2z"/>
					</g>
					<g>
						<path class="st87" d="M121.8,168.8c-0.1,0-0.2,0-0.3,0c-3.9-0.2-7-3.5-6.8-7.4l0.6-15.9c0.2-3.9,3.5-7,7.4-6.8
							c3.9,0.2,7,3.5,6.8,7.4l-0.6,15.9C128.7,165.8,125.6,168.8,121.8,168.8z"/>
					</g>
					<g>
						<path class="st88" d="M164.2,140.1c-2.3,0-4.5-1.1-5.8-3.1c-2.3-3.4-9.7-12.9-15.7-16.6c-3.3-2.1-4.4-6.4-2.3-9.8
							c2.1-3.3,6.4-4.4,9.8-2.3c9.6,5.9,18.9,19.1,19.9,20.6c2.2,3.2,1.4,7.7-1.8,9.9C167,139.7,165.6,140.1,164.2,140.1z"/>
					</g>
					<g>
						<path class="st89" d="M143,207.1L125.3,183c-0.8-1.2-1.3-2.6-1.3-4l0-37.4l13.5,0l0,35.2l16.3,22.3L143,207.1z"/>
					</g>
					<g>
						<path class="st0" d="M124.1,145.7l0.2-20.4c2-12.4,4.4-14.7,13.4-14.7l0,0c9,0,12.5,5.1,12.5,14.1l0,21"/>
					</g>
					<g>
						<path class="st91" d="M131.6,93.5v17.6c0,3.3,2.7,6,6,6h0c3.3,0,6-2.7,6-6V93.5"/>
					</g>
					<g>
						<rect x="139.2" y="141.7" class="st93" width="13.5" height="65.8"/>
					</g>
					<g>
						<circle class="st94" cx="138.5" cy="113.7" r="12.3"/>
					</g>
					<g>
						<path class="st97" d="M138.3,107.9L138.3,107.9c-9.5,0-14.6,5.4-14.6,14.9l-0.6,22.3l11.8,0.8l3.1,0.1l3.7,0l11.6-0.6
							l-0.9-21.8C150.2,110.4,147.7,107.9,138.3,107.9z"/>
					</g>
					<g>
						<path class="st87" d="M138.9,114h-1c-3.6,0-6.6-3-6.6-6.6V85.7c0-3.6,3-6.6,6.6-6.6h1c3.6,0,6.6,3,6.6,6.6v21.8
							C145.5,111.1,142.5,114,138.9,114z"/>
					</g>
					<g>
						<defs>
							<path id="SVGID_20_" d="M153,122.2c-7.2-4.9-1-10.8-5.6-12.1c-1.2-1-7.7,6-9.6,5.7c-1.3-0.2-2-1.4-3.8-1.4
								c-2.7,0-0.9-6.1-2.9-5.2c-0.3,0-0.6,0.1-0.9,0.2c-0.6,0.1,2,2.5-6.3,7.1c-3.4,1.9-0.1,3.7,1.8,7.1c1.3,2.3-2.8,3.9-0.4,3.9
								c1.2,0-1.1,1.7,0,1.1c2.4-1.3-4.8-1.1-1.7-2.3l-0.5,18l11.8,1.5l3.1,0.1l3.7,0l11.6-0.6l-0.8-18.3c2.4,1-5.7,4.1-3.4,5.6
								c1.2,0.8,0.4-6.4,1.8-6.4c2.3,0,0.4,2.4,1.8,0.4C154.9,123.2,156.3,124.4,153,122.2z"/>
						</defs>
						<clipPath id="SVGID_21_">
							<use xlink:href="#SVGID_20_"  style="overflow:visible;"/>
						</clipPath>
					</g>
					<g>
						<path class="st93" d="M153.4,151.1L153.4,151.1c0,3-3,5.5-6.7,5.5h-16.9c-3.7,0-6.7-2.5-6.7-5.5v0v-7.7h30.3V151.1"/>
					</g>
					<g>
						<path class="st88" d="M145.6,106.2c6.2,1.8,10.1,6.9,10.1,14.6v30.6h-6.4c-2.1,0-3.7-1.7-3.7-3.7V106.2z"/>
					</g>
					<g>
						<path class="st88" d="M131.3,106.2c-6.2,1.8-10.1,6.9-10.1,14.6v30.6h5.7c2.5,0,4.5-2,4.5-4.5V106.2z"/>
					</g>
					<path class="st0" d="M139.6,117.2c1-0.4,1.8-1.4,1.8-2.5c0-1.5-1.2-2.7-2.7-2.7h-0.5c-1.5,0-2.7,1.2-2.7,2.7
						c0,1.2,0.8,2.2,1.9,2.5l-2.5,20.3c0,0.2,0,0.4,0.1,0.5l2.6,5.8c0.4,0.8,1.5,0.8,1.9,0l2.6-5.8c0.1-0.2,0.1-0.4,0.1-0.5
						L139.6,117.2z"/>
					<g>
						<path class="st88" d="M164.2,140.1h-14.3c-3.9,0-7.1-3.2-7.1-7.1s3.2-7.1,7.1-7.1h14.3c3.9,0,7.1,3.2,7.1,7.1
							S168.1,140.1,164.2,140.1z"/>
					</g>
					<g>
						<path class="st98" d="M131.2,105.2l-3.3,3.1l4.5,5.2c0.9,1.1,2.6,1.2,3.6,0.2l1.8-1.7L131.2,105.2z"/>
					</g>
					<g>
						<path class="st98" d="M145.6,105.2l3.3,3.1l-4.4,5.2c-0.9,1.1-2.6,1.2-3.7,0.2l-1.6-1.6L145.6,105.2z"/>
					</g>
					<g>
						<path class="st94" d="M127.7,107.8l-3.7,7.9l5.1,7.1l-3.3,7.4l5.5,8.4l0.2-26.5l-0.1-7.7c0-0.5-2,1.1-2.2,1.6L127.7,107.8z"/>
					</g>
					<g>
						<polygon class="st94" points="148.8,106.9 152.9,115.6 147.8,122.7 151.1,130.1 145.6,138.5 145.5,111.9 145.5,105 
							145.9,104.3 						"/>
					</g>
					<g>
						<path class="st87" d="M158.5,140.1h-11.8c-3.9,0-7.1-3.2-7.1-7.1s3.2-7.1,7.1-7.1h11.8c3.9,0,7.1,3.2,7.1,7.1
							S162.5,140.1,158.5,140.1z"/>
					</g>
					<g>
						<circle class="st87" cx="146.1" cy="133.8" r="7.8"/>
					</g>
					<g>
						<path class="st0" d="M166.3,88.2v-2.3c0-8.5-6.9-15.4-15.4-15.4h-25.2c-8.5,0-15.4,6.9-15.4,15.4v2.3
							c0,8.5,6.9,15.4,15.4,15.4h25.2C159.4,103.6,166.3,96.7,166.3,88.2z"/>
					</g>
					<g>
						
							<ellipse transform="matrix(0.3797 -0.9251 0.9251 0.3797 45.4741 167.7622)" class="st74" cx="147.8" cy="50" rx="16.7" ry="5.4"/>
					</g>
					<g>
						
							<ellipse transform="matrix(0.9251 -0.3797 0.3797 0.9251 -9.4004 52.2791)" class="st87" cx="127.8" cy="50" rx="5.4" ry="16.7"/>
					</g>
					<g>
						<path class="st87" d="M163.6,83.6v-2.7c0-10.2-8.3-18.5-18.5-18.5h-14.5c-10.2,0-18.5,8.3-18.5,18.5v2.7
							c0,10.2,8.3,18.5,18.5,18.5h14.5C155.3,102.1,163.6,93.8,163.6,83.6z"/>
						<g>
							<defs>
								<path id="SVGID_22_" d="M163.6,83.6v-2.7c0-10.2-8.3-18.5-18.5-18.5h-14.5c-10.2,0-18.5,8.3-18.5,18.5v2.7
									c0,10.2,8.3,18.5,18.5,18.5h14.5C155.3,102.1,163.6,93.8,163.6,83.6z"/>
							</defs>
							<clipPath id="SVGID_23_">
								<use xlink:href="#SVGID_22_"  style="overflow:visible;"/>
							</clipPath>
							<path class="st99" d="M163,76c-2.2-7.8-7.8-13.6-17.9-13.6H138v1.8c0,6.5,5.3,11.8,11.8,11.8H163z"/>
						</g>
					</g>
					<g>
						<path class="st0" d="M131,80.9c-2.4,1.5-3.1,2.6-3.1,7.1c0,4.4,0,2.9,0,4.7c0,3.7,1,5.8,4.3,5.8c2.7,0,2.1,2.1-0.4,2.2
							s-7.8,0.8-8.2-1.7c-0.4-2.4-1.2-5.8-0.9-6.6c0.3-0.8,1-4.9,1.2-5.4c0.2-0.5,2.8-4.6,2.8-4.6l3-2"/>
					</g>
					<path class="st0" d="M163.8,82.2c0-0.9-0.1-1.9-0.2-2.8c-6.3,0-2.4,11.1-8.7,11.1c-0.4,0-0.8,0-1.1,0v-0.2
						c0-6.8-5.6-12.4-12.4-12.4h-6.7c-6.6,0-12,5.2-12.4,11.7c-0.3,0-0.6,0-0.9,0c-9.4,0-3.5-8.9-9.4-8.9c0,0.5-0.1,1-0.1,1.5
						l-0.7,1.5c0,11,9.6,19.8,20.6,19.8h11.8c11,0,21-9.5,21-20.5L163.8,82.2z M129.5,81.7c0.5-0.3,0.9-0.5,1.4-0.7
						C130.4,81.2,129.9,81.4,129.5,81.7z"/>
					<g>
						<path class="st87" d="M143.3,94h-10.1c-3.6,0-6.6-3-6.6-6.6v-1c0-3.6,3-6.6,6.6-6.6h10.1c3.6,0,6.6,3,6.6,6.6v1
							C149.9,91.1,146.9,94,143.3,94z"/>
					</g>
					<path class="st100" d="M139.7,82.6c-0.4,0-0.7-0.2-0.9-0.5c0-0.2,0.1-0.3,0.1-0.5c0-0.5-0.4-0.9-0.9-0.9c0,0-0.1,0-0.1,0
						c0,0-0.1,0-0.1,0c-0.5,0-0.9,0.4-0.9,0.9c0,0.2,0,0.3,0.1,0.5c-0.2,0.3-0.5,0.5-0.9,0.5c-0.5,0-0.9,0.4-0.9,0.9
						c0,0.5,0.4,0.9,0.9,0.9c0.7,0,1.3-0.3,1.8-0.7c0.5,0.4,1.1,0.7,1.8,0.7c0.5,0,0.9-0.4,0.9-0.9C140.5,83,140.2,82.6,139.7,82.6z
						"/>
					<g>
						<g>
							<g>
								<circle class="st100" cx="145" cy="69.2" r="2.1"/>
							</g>
							<g>
								<circle class="st100" cx="130.7" cy="69.2" r="2.1"/>
							</g>
						</g>
						<g>
							<g>
								<path class="st0" d="M134.2,76.1h-9.6c-2.5,0-4.5-2-4.5-4.5v-0.5c0-2.5,2-4.5,4.5-4.5h9.6c2.5,0,4.5,2,4.5,4.5v0.5
									C138.7,74,136.7,76.1,134.2,76.1z M124.6,68.7c-1.3,0-2.4,1.1-2.4,2.4v0.5c0,1.3,1.1,2.4,2.4,2.4h9.6c1.3,0,2.4-1.1,2.4-2.4
									v-0.5c0-1.3-1.1-2.4-2.4-2.4H124.6z"/>
							</g>
							<g>
								<path class="st0" d="M138.4,74.8c-0.8-0.8-1.4-2-1.4-3.2v-0.5c0-2.5,2-4.5,4.5-4.5h9.6c2.5,0,4.5,2,4.5,4.5v0.5
									c0,2.5-2,4.5-4.5,4.5h-9.6C140.3,76.1,139.2,75.6,138.4,74.8 M141.5,68.7c-1.3,0-2.4,1.1-2.4,2.4v0.5c0,1.3,1.1,2.4,2.4,2.4
									h9.6c1.3,0,2.4-1.1,2.4-2.4v-0.5c0-1.3-1.1-2.4-2.4-2.4H141.5z"/>
							</g>
						</g>
					</g>
					<g>
						<path class="st101" d="M139.7,75.5l-0.8,1.1c-0.5,0.6-1.4,0.6-1.9,0l-0.9-1.1c-0.7-0.8-0.1-2,0.9-2h1.8
							C139.8,73.6,140.3,74.7,139.7,75.5z"/>
					</g>
				</g>
			</g>
		</g>
		<g>
			<rect x="0.6" y="135.4" class="st102" width="1000.3" height="23.5"/>
			
				<rect x="0.6" y="155.1" transform="matrix(-1 -1.224647e-16 1.224647e-16 -1 1001.4601 313.983)" class="st103" width="1000.3" height="3.8"/>
			<rect x="318.5" y="135.2" class="st104" width="365" height="4.6"/>
		</g>
		<g>
			<g>
				<circle class="st105" cx="651.1" cy="137.4" r="7.7"/>
				<circle class="st53" cx="651.1" cy="137.9" r="7.7"/>
			</g>
			<g>
				<circle class="st105" cx="706" cy="137.4" r="7.7"/>
				<circle class="st53" cx="706" cy="137.9" r="7.7"/>
			</g>
		</g>
		<g>
			<g>
				<circle class="st105" cx="190" cy="137.6" r="7.5"/>
				<circle class="st0" cx="190" cy="138.1" r="7.5"/>
			</g>
			<g>
				<circle class="st105" cx="236.5" cy="137.6" r="7.5"/>
				<circle class="st0" cx="236.5" cy="138.1" r="7.5"/>
			</g>
		</g>
		<path class="st105" d="M164.2,126.4h-5.6h-8.7h-3.1c-0.3,0-0.5,0-0.8,0c-4.3,0-7.8,3.5-7.8,7.8c0,4.3,3.5,7.8,7.8,7.8
			c1.7,0,3.3-0.5,4.6-1.5h7.9h5.6c3.9,0,7.1-3.2,7.1-7.1S168.1,126.4,164.2,126.4z"/>
		<g>
			<path class="st88" d="M164.2,140.1h-14.3c-3.9,0-7.1-3.2-7.1-7.1s3.2-7.1,7.1-7.1h14.3c3.9,0,7.1,3.2,7.1,7.1
				S168.1,140.1,164.2,140.1z"/>
		</g>
		<g>
			<path class="st87" d="M158.5,140.1h-11.8c-3.9,0-7.1-3.2-7.1-7.1s3.2-7.1,7.1-7.1h11.8c3.9,0,7.1,3.2,7.1,7.1
				S162.5,140.1,158.5,140.1z"/>
		</g>
		<g>
			<circle class="st87" cx="146.1" cy="133.8" r="7.8"/>
		</g>
		<g>
			<g>
				<circle class="st73" cx="617" cy="132.3" r="7.9"/>
			</g>
			<g>
				<path class="st73" d="M585.7,145.6c-1.3,0-2.6-0.4-3.7-1.2c-2-1.4-3-3.9-2.5-6.3l0.9-4.9c0.6-3.4,3.9-5.7,7.4-5.1
					c1.3,0.2,2.4,0.8,3.3,1.7c6.4-2.6,15.2-5.2,22.6-3.9c3.5,0.6,5.8,3.8,5.2,7.3c-0.6,3.5-3.8,5.8-7.3,5.2c-7-1.2-19,4.4-22.7,6.4
					C587.8,145.3,586.7,145.6,585.7,145.6z"/>
			</g>
			<g>
				<path class="st0" d="M624.1,143.3c-0.5,0-1.1-0.1-1.6-0.2c-5.5-1.4-21.4-4.8-29.1-3.5c-3.5,0.6-6.7-1.8-7.3-5.2
					c-0.6-3.5,1.8-6.7,5.2-7.3c8.6-1.4,21.7,0.9,29.1,2.5c1.5-1.3,3.6-2,5.7-1.5c3.4,0.8,5.6,4.1,4.8,7.6l-0.6,2.7
					c-0.4,1.7-1.4,3.1-2.9,4C626.5,143,625.3,143.3,624.1,143.3z"/>
			</g>
		</g>
		<g>
			<circle class="st0" cx="617.6" cy="132.3" r="7.9"/>
		</g>
	</g>
</g>
</svg>
