<?xml version="1.0" encoding="utf-8"?>
<!-- Generator: Adobe Illustrator 24.0.3, SVG Export Plug-In . SVG Version: 6.00 Build 0)  -->
<svg version="1.1" id="Layer_1" xmlns="http://www.w3.org/2000/svg" xmlns:xlink="http://www.w3.org/1999/xlink" x="0px" y="0px"
	 viewBox="0 0 574 423.6" style="enable-background:new 0 0 574 423.6;" xml:space="preserve">
<style type="text/css">
	.st0{opacity:0.87;fill:#E0D4AB;}
	.st1{fill:#944B1F;}
	.st2{fill:url(#SVGID_1_);}
	.st3{fill:url(#SVGID_2_);}
	.st4{fill:url(#SVGID_3_);}
	.st5{fill:url(#SVGID_4_);}
	.st6{fill:url(#SVGID_5_);}
	.st7{fill:url(#SVGID_6_);}
	.st8{fill:url(#SVGID_7_);}
	.st9{fill:url(#SVGID_8_);}
	.st10{opacity:0.3;fill:#FFE096;}
	.st11{fill:url(#SVGID_9_);}
	.st12{fill:#FFE8AD;}
	.st13{fill:url(#SVGID_10_);}
	.st14{fill:url(#SVGID_11_);}
	.st15{fill:url(#SVGID_12_);}
	.st16{fill:url(#SVGID_13_);}
	.st17{fill:url(#SVGID_14_);}
	.st18{fill:url(#SVGID_15_);}
	.st19{fill:#A05827;}
	.st20{fill:#2E1B19;}
	.st21{fill:#E88A2D;}
	.st22{opacity:0.5;fill:#FFFFFF;}
	.st23{fill:#667787;}
	.st24{fill:url(#SVGID_16_);}
	.st25{fill:url(#SVGID_17_);}
	.st26{fill:url(#SVGID_18_);}
	.st27{fill:url(#SVGID_19_);}
	.st28{fill:url(#SVGID_20_);}
	.st29{fill:url(#SVGID_21_);}
	.st30{fill:url(#SVGID_22_);}
	.st31{fill:url(#SVGID_23_);}
	.st32{fill:url(#SVGID_24_);}
	.st33{fill:url(#SVGID_25_);}
	.st34{fill:url(#SVGID_26_);}
	.st35{fill:url(#SVGID_27_);}
	.st36{fill:url(#SVGID_28_);}
	.st37{fill:url(#SVGID_29_);}
	.st38{fill:url(#SVGID_30_);}
	.st39{fill:#728696;}
	.st40{fill:#452F28;}
	.st41{fill:#735649;}
	.st42{fill:#917A68;}
	.st43{fill:#4E5761;}
	.st44{fill:#3B2C1E;}
	.st45{fill:#EBA432;}
	.st46{fill:#B36822;}
	.st47{fill:#C5C7CF;}
	.st48{fill:#8099AE;}
	.st49{fill:#DCE8ED;}
	.st50{fill:#E8B679;}
	.st51{fill:#DBA763;}
	.st52{fill:#4D4D4D;}
	.st53{fill:#7F5454;}
	.st54{fill:#1C425B;}
	.st55{fill:#003FA5;}
	.st56{fill:#003582;}
	.st57{fill:#FFFFFF;}
	.st58{fill:#112D41;}
	.st59{fill:#F33B41;}
	.st60{fill:#1D1D1B;}
	.st61{fill:#FFC2C7;}
</style>
<g>
	<path class="st0" d="M571.8,351.9c0,0-92.6,57.1-260.8,70.3C142.9,435.3,2.2,356.4,2.2,356.4s118.1-37.9,270.7-40.9
		C431.1,312.4,571.8,351.9,571.8,351.9z"/>
	<g>
		<polygon class="st1" points="277.2,334.9 281.9,271.2 297.4,254.4 295.8,219.1 327.7,212.7 325.9,178.1 360.7,168.1 364.1,103.3 
			413.9,96.2 407.6,83.2 488.3,92.8 488.8,111.5 519.5,103.5 518.6,168.2 526.3,167.8 523.8,214.1 546.9,212.7 539,271.6 
			546.9,285.8 556.9,322.2 554.5,333.5 391.5,334.2 		"/>
		
			<linearGradient id="SVGID_1_" gradientUnits="userSpaceOnUse" x1="1947.9305" y1="343.1677" x2="2042.1317" y2="248.9665" gradientTransform="matrix(1 0 -2.780000e-02 1 -1653.1921 0)">
			<stop  offset="0" style="stop-color:#C55319"/>
			<stop  offset="1" style="stop-color:#DE9C4D"/>
		</linearGradient>
		<path class="st2" d="M391.5,334.2c-0.7-2.2-0.1-75.5-0.1-75.5L273,260.6l4.2,74.3L391.5,334.2z"/>
		
			<linearGradient id="SVGID_2_" gradientUnits="userSpaceOnUse" x1="2086.8789" y1="355.0163" x2="2187.1636" y2="254.7315" gradientTransform="matrix(1 0 -2.780000e-02 1 -1653.1921 0)">
			<stop  offset="0" style="stop-color:#A96628"/>
			<stop  offset="1" style="stop-color:#C77932"/>
		</linearGradient>
		<path class="st3" d="M404.3,334.9c0-1.4-6.4-53.2-6.4-53.2l155.2,0l-5.9,51.8L404.3,334.9z"/>
		
			<linearGradient id="SVGID_3_" gradientUnits="userSpaceOnUse" x1="2079.5552" y1="291.9023" x2="2168.7837" y2="202.6738" gradientTransform="matrix(1 0 -2.780000e-02 1 -1653.1942 0)">
			<stop  offset="0" style="stop-color:#D18237"/>
			<stop  offset="1" style="stop-color:#DE9C4D"/>
		</linearGradient>
		<polygon class="st4" points="399.9,273.1 526.9,275.2 527.3,220.6 396.4,224.2 		"/>
		
			<linearGradient id="SVGID_4_" gradientUnits="userSpaceOnUse" x1="1967.1036" y1="263.8271" x2="2022.9536" y2="207.9771" gradientTransform="matrix(1 0 -2.780000e-02 1 -1653.1921 0)">
			<stop  offset="0" style="stop-color:#C58449"/>
			<stop  offset="1" style="stop-color:#E39A57"/>
		</linearGradient>
		<polygon class="st5" points="297.4,254.4 376.5,254.8 376.9,221.3 293.1,217.9 		"/>
		
			<linearGradient id="SVGID_5_" gradientUnits="userSpaceOnUse" x1="2018.3369" y1="246.7482" x2="2125.1233" y2="139.9617" gradientTransform="matrix(1 0 -2.780000e-02 1 -1653.1921 0)">
			<stop  offset="0" style="stop-color:#C58449"/>
			<stop  offset="1" style="stop-color:#E39A57"/>
		</linearGradient>
		<polygon class="st6" points="324.4,178.4 327,214.6 496.7,213.4 500.3,173.1 		"/>
		
			<linearGradient id="SVGID_6_" gradientUnits="userSpaceOnUse" x1="2020.4332" y1="171.902" x2="2092.5835" y2="99.7517" gradientTransform="matrix(1 0 -2.780000e-02 1 -1653.1921 0)">
			<stop  offset="0" style="stop-color:#D18237"/>
			<stop  offset="1" style="stop-color:#DE9C4D"/>
		</linearGradient>
		<polygon class="st7" points="362.5,101.4 361.1,170.5 437.3,169.5 439.6,102.9 		"/>
		
			<linearGradient id="SVGID_7_" gradientUnits="userSpaceOnUse" x1="2107.2646" y1="172.8002" x2="2170.2454" y2="109.8194" gradientTransform="matrix(1 0 -2.780000e-02 1 -1653.1921 0)">
			<stop  offset="0" style="stop-color:#A96628"/>
			<stop  offset="1" style="stop-color:#C77932"/>
		</linearGradient>
		<polygon class="st8" points="444.9,120.1 446.4,169.9 512.3,168.4 516.1,112 		"/>
		
			<linearGradient id="SVGID_8_" gradientUnits="userSpaceOnUse" x1="2085.0303" y1="105.1448" x2="2120.7461" y2="69.429" gradientTransform="matrix(1 0 -2.780000e-02 1 -1653.1921 0)">
			<stop  offset="0" style="stop-color:#D18237"/>
			<stop  offset="1" style="stop-color:#DE9C4D"/>
		</linearGradient>
		<polygon class="st9" points="407.6,83.2 470,116.3 488.3,92.8 427,55.9 		"/>
		<path class="st10" d="M391.5,258.7l-81.1,1.3l80.9,63C391.1,302,391.5,258.7,391.5,258.7z"/>
		<path class="st10" d="M403.1,280.7C403.1,280.7,403.1,280.8,403.1,280.7C403.1,280.7,403.1,280.7,403.1,280.7z"/>
		<path class="st10" d="M545.9,330.7l7.2-49.1c0,0-42.6,0.1-82.4,0L545.9,330.7z"/>
		<polygon class="st10" points="527.3,220.6 440.2,223 527,265.3 		"/>
		<polygon class="st10" points="376.9,221.3 315.7,218.8 376.5,254.6 		"/>
		<polygon class="st10" points="496.7,213.4 500.3,173.1 398.6,176.1 496,213.4 		"/>
		<polygon class="st10" points="439.6,102.9 362.5,101.4 362.5,101.7 438.6,133.5 		"/>
		<polygon class="st10" points="516.1,112 444.9,120.1 445,123.5 513.5,149.5 		"/>
		<polygon class="st10" points="488.3,92.8 427,55.9 424,60.2 471.9,113.9 		"/>
		
			<linearGradient id="SVGID_9_" gradientUnits="userSpaceOnUse" x1="1994.522" y1="276.6641" x2="2163.1248" y2="276.6641" gradientTransform="matrix(1 0 -7.590000e-02 1 -1575.2877 0)">
			<stop  offset="0" style="stop-color:#FFBE5B"/>
			<stop  offset="0.8909" style="stop-color:#FFD28E"/>
		</linearGradient>
		<polygon class="st11" points="399.9,273.1 526.9,275.2 539,271.6 567.1,273.3 553.1,281.7 397.9,281.7 		"/>
		<polygon class="st12" points="520.1,333.8 515.5,282.2 521.6,275.2 525.9,275.2 520.6,281.8 524,333.8 		"/>
		
			<linearGradient id="SVGID_10_" gradientUnits="userSpaceOnUse" x1="1988.6692" y1="218.4042" x2="2138.3271" y2="218.4042" gradientTransform="matrix(1 0 -7.590000e-02 1 -1575.2877 0)">
			<stop  offset="0" style="stop-color:#FFBE5B"/>
			<stop  offset="0.8909" style="stop-color:#FFD28E"/>
		</linearGradient>
		<polygon class="st13" points="546.9,212.7 527.3,220.6 396.4,224.2 413.6,213.4 524,212.7 		"/>
		
			<linearGradient id="SVGID_11_" gradientUnits="userSpaceOnUse" x1="1868.0564" y1="257.1159" x2="1986.3752" y2="257.1159" gradientTransform="matrix(1 0 -7.590000e-02 1 -1575.2877 0)">
			<stop  offset="0" style="stop-color:#FFBE5B"/>
			<stop  offset="0.8909" style="stop-color:#FFD28E"/>
		</linearGradient>
		<polygon class="st14" points="273,260.6 297.6,253.6 376.5,254.8 391.5,258.7 		"/>
		
			<linearGradient id="SVGID_12_" gradientUnits="userSpaceOnUse" x1="1884.9382" y1="216.8455" x2="1981.3862" y2="216.8455" gradientTransform="matrix(1 0 -7.590000e-02 1 -1575.2877 0)">
			<stop  offset="0" style="stop-color:#FFBE5B"/>
			<stop  offset="0.8909" style="stop-color:#FFD28E"/>
		</linearGradient>
		<polygon class="st15" points="293.1,217.9 326.3,212.4 389.8,214.1 376.9,221.3 		"/>
		
			<linearGradient id="SVGID_13_" gradientUnits="userSpaceOnUse" x1="1913.2374" y1="173.1008" x2="2114.3184" y2="173.1008" gradientTransform="matrix(1 0 -7.590000e-02 1 -1575.2877 0)">
			<stop  offset="0" style="stop-color:#FFBE5B"/>
			<stop  offset="0.8909" style="stop-color:#FFD28E"/>
		</linearGradient>
		<polygon class="st16" points="324.4,178.4 357.5,168.1 526.3,167.8 500.3,173.1 		"/>
		
			<linearGradient id="SVGID_14_" gradientUnits="userSpaceOnUse" x1="1945.4888" y1="98.6124" x2="2022.7423" y2="98.6124" gradientTransform="matrix(1 0 -7.590000e-02 1 -1575.2877 0)">
			<stop  offset="0" style="stop-color:#FFBE5B"/>
			<stop  offset="0.8909" style="stop-color:#FFD28E"/>
		</linearGradient>
		<polygon class="st17" points="362.5,101.4 411.5,94.4 439.6,102.9 		"/>
		
			<linearGradient id="SVGID_15_" gradientUnits="userSpaceOnUse" x1="2029.3258" y1="111.8287" x2="2102.6365" y2="111.8287" gradientTransform="matrix(1 0 -7.590000e-02 1 -1575.2877 0)">
			<stop  offset="0" style="stop-color:#FFBE5B"/>
			<stop  offset="0.8909" style="stop-color:#FFD28E"/>
		</linearGradient>
		<polygon class="st18" points="488.7,109.5 519.5,103.5 516.1,112 444.9,120.1 449.4,115.6 470,116.3 		"/>
		<polygon class="st12" points="375.2,334.5 370.7,259.6 363.5,254.9 358.6,254.4 366.4,259.6 369.8,334.2 		"/>
		<polygon class="st12" points="311.8,253.9 294.2,260.5 297.6,334.7 303.8,334.5 298.8,260.9 315.3,253.9 		"/>
		<polygon class="st12" points="420.1,273.2 421,224.2 432.6,213.4 436.1,213.4 428,223.8 424.7,274 		"/>
		<polygon class="st12" points="503.1,275.1 504.6,221.9 514.2,212.6 508.4,212.6 498.8,221.1 497.7,274.7 		"/>
		<polygon class="st12" points="432.7,334.2 434.6,282.5 440,273.8 445.4,274.2 440,282.9 438.1,334.2 		"/>
		<polygon class="st12" points="473.8,213 472.5,174.5 485.5,167.5 479.7,167.5 466.7,174.5 468.2,213.3 		"/>
		<polygon class="st12" points="345.3,212.7 347.2,177.7 370.2,167.8 374.5,168.1 352.1,178.3 351.1,212.7 		"/>
		<polygon class="st12" points="378.3,167.9 381.7,102.3 416.4,96.1 419.5,97.2 387.1,103.4 383.4,168.3 		"/>
		<polygon class="st12" points="423.8,167.9 425.5,103.4 430.7,99.9 427.6,99.6 421.7,103.1 419.1,167.9 		"/>
		<polygon class="st12" points="475,168.1 474.6,116.7 477.6,116.5 479.7,167.5 		"/>
		<polygon class="st12" points="446,143.6 513.7,139 513,142.5 445.9,146.6 		"/>
		<polygon class="st12" points="418.7,67.6 479.4,104 477.9,106.4 415.6,72.3 		"/>
		<polygon class="st12" points="437.3,98.8 455.2,72.9 457.4,74.1 441.3,101.4 		"/>
		<polygon class="st12" points="328.7,253.8 330.7,219.6 353,212.6 364,213 336.3,220 332,254.1 		"/>
		<polygon class="st12" points="295.4,237.1 376.6,236.1 376.5,240.4 295.9,240.9 		"/>
		<polygon class="st1" points="567.1,273.3 555.8,329.8 545.9,330.7 553.1,281.7 		"/>
		<g>
			<g>
				
					<ellipse transform="matrix(0.3797 -0.9251 0.9251 0.3797 22.2352 630.4141)" class="st19" cx="481.2" cy="298.6" rx="9.9" ry="3.2"/>
			</g>
			<g>
				
					<ellipse transform="matrix(0.9251 -0.3797 0.3797 0.9251 -78.1402 201.0247)" class="st19" cx="470.6" cy="298.6" rx="3.2" ry="9.9"/>
			</g>
			<g>
				<circle class="st19" cx="475.7" cy="316.1" r="11.4"/>
			</g>
			<g>
				<g>
					<path class="st19" d="M468.5,314.2c0,0.3,0.8,0.6,0.7,0.9c0,0.3-0.8,0.4-1,0.6c-0.1,0.3,0.3,0.9,0,1.2c-0.2,0.2-0.9-0.2-1.2,0
						c-0.3,0.1-0.3,0.9-0.6,1s-0.6-0.7-0.9-0.7c-0.3,0-0.8,0.5-1.1,0.4c-0.3-0.1-0.1-0.9-0.3-1.1c-0.2-0.2-1,0-1.1-0.3
						c-0.1-0.3,0.5-0.8,0.4-1.1c0-0.3-0.8-0.6-0.7-0.9c0-0.3,0.8-0.4,1-0.6c0.1-0.3-0.3-0.9,0-1.2c0.2-0.2,0.9,0.2,1.2,0
						c0.3-0.1,0.3-0.9,0.6-1s0.6,0.7,0.9,0.7c0.3,0,0.8-0.5,1.1-0.4c0.3,0.1,0.1,0.9,0.3,1.1c0.2,0.2,1,0,1.1,0.3
						C469.1,313.3,468.5,313.8,468.5,314.2z"/>
				</g>
				<g>
					<path class="st19" d="M487.8,315c-0.1,0.3,0.5,0.8,0.4,1.1c-0.1,0.3-0.9,0.1-1.1,0.3c-0.2,0.2-0.1,1-0.3,1.1
						c-0.3,0.1-0.8-0.5-1.1-0.4c-0.3,0-0.6,0.8-0.9,0.7c-0.3-0.1-0.4-0.8-0.6-1c-0.3-0.1-1,0.2-1.2,0c-0.2-0.2,0.2-0.9,0.1-1.2
						c-0.1-0.3-0.9-0.4-0.9-0.7c0-0.3,0.7-0.6,0.7-0.9c0.1-0.3-0.5-0.8-0.4-1.1c0.1-0.3,0.9-0.1,1.1-0.3c0.2-0.2,0.1-1,0.3-1.1
						c0.3-0.1,0.8,0.5,1.1,0.4c0.3,0,0.6-0.8,0.9-0.7c0.3,0.1,0.4,0.8,0.6,1c0.3,0.1,1-0.2,1.2,0c0.2,0.2-0.2,0.9-0.1,1.2
						c0.1,0.3,0.9,0.4,0.9,0.7C488.6,314.4,487.8,314.7,487.8,315z"/>
				</g>
			</g>
		</g>
		<g>
			<g>
				
					<ellipse transform="matrix(0.3797 -0.9251 0.9251 0.3797 66.1625 578.9191)" class="st19" cx="464.8" cy="240.1" rx="9.9" ry="3.2"/>
			</g>
			<g>
				
					<ellipse transform="matrix(0.9251 -0.3797 0.3797 0.9251 -57.1601 190.4054)" class="st19" cx="454.2" cy="240.1" rx="3.2" ry="9.9"/>
			</g>
			<g>
				<circle class="st19" cx="459.2" cy="257.6" r="11.4"/>
			</g>
			<g>
				<g>
					<path class="st19" d="M452.1,255.7c0,0.3,0.8,0.6,0.7,0.9c0,0.3-0.8,0.4-1,0.6c-0.1,0.3,0.3,0.9,0,1.2c-0.2,0.2-0.9-0.2-1.2,0
						c-0.3,0.1-0.3,0.9-0.6,1s-0.6-0.7-0.9-0.7c-0.3,0-0.8,0.5-1.1,0.4c-0.3-0.1-0.1-0.9-0.3-1.1c-0.2-0.2-1,0-1.1-0.3
						c-0.1-0.3,0.5-0.8,0.4-1.1c0-0.3-0.8-0.6-0.7-0.9c0-0.3,0.8-0.4,1-0.6c0.1-0.3-0.3-0.9,0-1.2c0.2-0.2,0.9,0.2,1.2,0
						c0.3-0.1,0.3-0.9,0.6-1s0.6,0.7,0.9,0.7c0.3,0,0.8-0.5,1.1-0.4c0.3,0.1,0.1,0.9,0.3,1.1c0.2,0.2,1,0,1.1,0.3
						C452.6,254.8,452,255.3,452.1,255.7z"/>
				</g>
				<g>
					<path class="st19" d="M471.4,256.5c-0.1,0.3,0.5,0.8,0.4,1.1c-0.1,0.3-0.9,0.1-1.1,0.3c-0.2,0.2-0.1,1-0.3,1.1
						c-0.3,0.1-0.8-0.5-1.1-0.4c-0.3,0-0.6,0.8-0.9,0.7c-0.3-0.1-0.4-0.8-0.6-1c-0.3-0.1-1,0.2-1.2,0c-0.2-0.2,0.2-0.9,0.1-1.2
						c-0.1-0.3-0.9-0.4-0.9-0.7c0-0.3,0.7-0.6,0.7-0.9s-0.5-0.8-0.4-1.1c0.1-0.3,0.9-0.1,1.1-0.3c0.2-0.2,0.1-1,0.3-1.1
						c0.3-0.1,0.8,0.5,1.1,0.4c0.3,0,0.6-0.8,0.9-0.7c0.3,0.1,0.4,0.8,0.6,1c0.3,0.1,1-0.2,1.2,0c0.2,0.2-0.2,0.9-0.1,1.2
						c0.1,0.3,0.9,0.4,0.9,0.7C472.1,255.9,471.4,256.2,471.4,256.5z"/>
				</g>
			</g>
		</g>
		<g>
			<g>
				
					<ellipse transform="matrix(0.3797 -0.9251 0.9251 0.3797 -51.4611 492.5613)" class="st19" cx="341.6" cy="284.7" rx="9.9" ry="3.2"/>
			</g>
			<g>
				
					<ellipse transform="matrix(0.9251 -0.3797 0.3797 0.9251 -83.2896 146.9641)" class="st19" cx="331" cy="284.7" rx="3.2" ry="9.9"/>
			</g>
			<g>
				<circle class="st19" cx="336" cy="302.1" r="11.4"/>
			</g>
			<g>
				<g>
					<path class="st19" d="M328.9,300.2c0,0.3,0.8,0.6,0.7,0.9c0,0.3-0.8,0.4-1,0.6c-0.1,0.3,0.3,0.9,0,1.2c-0.2,0.2-0.9-0.2-1.2,0
						c-0.3,0.1-0.3,0.9-0.6,1c-0.3,0-0.6-0.7-0.9-0.7c-0.3,0-0.8,0.5-1.1,0.4c-0.3-0.1-0.1-0.9-0.3-1.1c-0.2-0.2-1,0-1.1-0.3
						c-0.1-0.3,0.5-0.8,0.4-1.1s-0.8-0.6-0.7-0.9c0-0.3,0.8-0.4,1-0.6c0.1-0.3-0.3-0.9,0-1.2c0.2-0.2,0.9,0.2,1.2,0
						c0.3-0.1,0.3-0.9,0.6-1s0.6,0.7,0.9,0.7c0.3,0,0.8-0.5,1.1-0.4c0.3,0.1,0.1,0.9,0.3,1.1c0.2,0.2,1,0,1.1,0.3
						C329.4,299.4,328.8,299.9,328.9,300.2z"/>
				</g>
				<g>
					<path class="st19" d="M348.1,301.1c-0.1,0.3,0.5,0.8,0.4,1.1c-0.1,0.3-0.9,0.1-1.1,0.3c-0.2,0.2-0.1,1-0.3,1.1
						c-0.3,0.1-0.8-0.5-1.1-0.4c-0.3,0-0.6,0.8-0.9,0.7s-0.4-0.8-0.6-1c-0.3-0.1-1,0.2-1.2,0c-0.2-0.2,0.2-0.9,0.1-1.2
						c-0.1-0.3-0.9-0.4-0.9-0.7c0-0.3,0.7-0.6,0.7-0.9c0.1-0.3-0.5-0.8-0.4-1.1c0.1-0.3,0.9-0.1,1.1-0.3c0.2-0.2,0.1-1,0.3-1.1
						c0.3-0.1,0.8,0.5,1.1,0.4c0.3,0,0.6-0.8,0.9-0.7c0.3,0.1,0.4,0.8,0.6,1c0.3,0.1,1-0.2,1.2,0c0.2,0.2-0.2,0.9-0.1,1.2
						c0.1,0.3,0.9,0.4,0.9,0.7C348.9,300.5,348.2,300.7,348.1,301.1z"/>
				</g>
			</g>
		</g>
		<g>
			<g>
				
					<ellipse transform="matrix(0.3797 -0.9251 0.9251 0.3797 81.2516 497.2097)" class="st19" cx="411.4" cy="188" rx="6.7" ry="2.2"/>
			</g>
			<g>
				
					<ellipse transform="matrix(0.9251 -0.3797 0.3797 0.9251 -41.1233 167.5119)" class="st19" cx="404.1" cy="188" rx="2.2" ry="6.7"/>
			</g>
			<g>
				<circle class="st19" cx="407.6" cy="199.9" r="7.8"/>
			</g>
			<g>
				<g>
					<path class="st19" d="M402.7,198.6c0,0.2,0.5,0.4,0.5,0.6c0,0.2-0.6,0.3-0.7,0.4c-0.1,0.2,0.2,0.6,0,0.8
						c-0.1,0.1-0.6-0.1-0.8,0c-0.2,0.1-0.2,0.6-0.4,0.7c-0.2,0-0.4-0.5-0.6-0.5c-0.2,0-0.6,0.4-0.7,0.3c-0.2-0.1-0.1-0.6-0.2-0.8
						c-0.1-0.1-0.7,0-0.8-0.2c-0.1-0.2,0.3-0.5,0.3-0.7s-0.5-0.4-0.5-0.6c0-0.2,0.6-0.3,0.7-0.4c0.1-0.2-0.2-0.6,0-0.8
						c0.1-0.1,0.6,0.1,0.8,0c0.2-0.1,0.2-0.6,0.4-0.7c0.2,0,0.4,0.5,0.6,0.5c0.2,0,0.6-0.4,0.7-0.3c0.2,0.1,0.1,0.6,0.2,0.8
						c0.1,0.1,0.7,0,0.8,0.2C403.1,198.1,402.7,198.4,402.7,198.6z"/>
				</g>
				<g>
					<path class="st19" d="M415.9,199.2c0,0.2,0.4,0.6,0.3,0.8c-0.1,0.2-0.6,0-0.8,0.2c-0.2,0.1,0,0.7-0.2,0.8
						c-0.2,0.1-0.5-0.3-0.7-0.3c-0.2,0-0.4,0.5-0.6,0.5c-0.2,0-0.2-0.6-0.4-0.7c-0.2-0.1-0.7,0.2-0.8,0c-0.1-0.2,0.1-0.6,0.1-0.8
						c-0.1-0.2-0.6-0.3-0.6-0.5c0-0.2,0.5-0.4,0.5-0.6s-0.4-0.6-0.3-0.8c0.1-0.2,0.6,0,0.8-0.2c0.2-0.1,0-0.7,0.2-0.8
						c0.2-0.1,0.5,0.3,0.7,0.3c0.2,0,0.4-0.5,0.6-0.5c0.2,0,0.2,0.6,0.4,0.7c0.2,0.1,0.7-0.2,0.8,0c0.1,0.2-0.1,0.6-0.1,0.8
						c0.1,0.2,0.6,0.3,0.6,0.5C416.4,198.8,415.9,199,415.9,199.2z"/>
				</g>
			</g>
		</g>
		<g>
			<g>
				
					<ellipse transform="matrix(0.3797 -0.9251 0.9251 0.3797 131.894 454.5125)" class="st19" cx="404.9" cy="128.9" rx="6.7" ry="2.2"/>
			</g>
			<g>
				
					<ellipse transform="matrix(0.9251 -0.3797 0.3797 0.9251 -19.1698 160.6124)" class="st19" cx="397.6" cy="128.9" rx="2.2" ry="6.7"/>
			</g>
			<g>
				<circle class="st19" cx="401.1" cy="140.8" r="7.8"/>
			</g>
			<g>
				<g>
					<path class="st19" d="M396.2,139.5c0,0.2,0.5,0.4,0.5,0.6c0,0.2-0.6,0.3-0.7,0.4c-0.1,0.2,0.2,0.6,0,0.8
						c-0.1,0.1-0.6-0.1-0.8,0c-0.2,0.1-0.2,0.6-0.4,0.7s-0.4-0.5-0.6-0.5c-0.2,0-0.6,0.4-0.7,0.3c-0.2-0.1-0.1-0.6-0.2-0.8
						c-0.1-0.1-0.7,0-0.8-0.2c-0.1-0.2,0.3-0.5,0.3-0.7s-0.5-0.4-0.5-0.6c0-0.2,0.6-0.3,0.7-0.4c0.1-0.2-0.2-0.6,0-0.8
						c0.1-0.1,0.6,0.1,0.8,0c0.2-0.1,0.2-0.6,0.4-0.7c0.2,0,0.4,0.5,0.6,0.5c0.2,0,0.6-0.4,0.7-0.3c0.2,0.1,0.1,0.6,0.2,0.8
						c0.1,0.1,0.7,0,0.8,0.2C396.6,139,396.2,139.3,396.2,139.5z"/>
				</g>
				<g>
					<path class="st19" d="M409.4,140.1c0,0.2,0.4,0.6,0.3,0.8c-0.1,0.2-0.6,0-0.8,0.2c-0.2,0.1,0,0.7-0.2,0.8
						c-0.2,0.1-0.5-0.3-0.7-0.3c-0.2,0-0.4,0.5-0.6,0.5s-0.2-0.6-0.4-0.7c-0.2-0.1-0.7,0.2-0.8,0c-0.1-0.2,0.1-0.6,0.1-0.8
						c-0.1-0.2-0.6-0.3-0.6-0.5c0-0.2,0.5-0.4,0.5-0.6s-0.4-0.6-0.3-0.8c0.1-0.2,0.6,0,0.8-0.2c0.2-0.1,0-0.7,0.2-0.8
						c0.2-0.1,0.5,0.3,0.7,0.3c0.2,0,0.4-0.5,0.6-0.5c0.2,0,0.2,0.6,0.4,0.7c0.2,0.1,0.7-0.2,0.8,0c0.1,0.2-0.1,0.6-0.1,0.8
						c0.1,0.2,0.6,0.3,0.6,0.5C409.9,139.7,409.4,139.9,409.4,140.1z"/>
				</g>
			</g>
		</g>
	</g>
	<g>
		<g>
			<path class="st20" d="M56.5,329.1c5.7,6.5,5.6,16-0.3,21.1c-5.9,5.1-15.2,3.9-20.9-2.6c-5.7-6.5-5.6-16,0.3-21.1
				C41.5,321.5,50.8,322.6,56.5,329.1z"/>
			<path class="st20" d="M171.5,328.5c5.7,6.5,5.6,16-0.3,21.1c-5.9,5.1-15.2,3.9-20.9-2.6c-5.7-6.5-5.6-16,0.3-21.1
				C156.5,320.8,165.8,322,171.5,328.5z"/>
			<path class="st21" d="M299.7,150.8l41.4,13.2l6.2-10.9l-44.1-7.5c0,0-2.3-0.3-3.7,1.6C298.1,148.8,299.7,150.8,299.7,150.8z"/>
			<path class="st22" d="M347.2,153l-44.1-7.5c0,0-2.3-0.3-3.7,1.6c-0.4,0.5-0.5,1-0.5,1.4l45.5,9.6L347.2,153z"/>
			<path class="st23" d="M201.4,255.4c0,0,36.5-98.8,39.2-101.2c2.7-2.4,66.6-5,66.6-5s0.5,1.4-0.3,2.2c-0.7,0.8-2.4,0.6-2.4,0.6
				s-57.8,3.5-59.5,5.9c-1.7,2.4-35.9,101.6-35.9,101.6L201.4,255.4z"/>
			<polygon class="st1" points="211.3,295.2 207.7,249.2 197.6,238.1 198.6,214.9 177.6,210.7 178.8,187.9 155.9,181.3 153.6,138.7 
				120.9,134 125,125.5 71.9,131.8 71.6,144.1 51.4,138.8 52,181.4 46.9,181.2 48.5,211.6 33.3,210.7 38.6,249.5 33.3,258.8 
				26.8,290.8 27.9,297.4 141.1,295.9 			"/>
			
				<linearGradient id="SVGID_16_" gradientUnits="userSpaceOnUse" x1="506.6854" y1="296.5647" x2="568.6868" y2="234.5632" gradientTransform="matrix(-1 0 2.780000e-02 1 704.0336 0)">
				<stop  offset="0" style="stop-color:#C55319"/>
				<stop  offset="1" style="stop-color:#DE9C4D"/>
			</linearGradient>
			<path class="st24" d="M135.6,290.6c0.4-1.4,0-49.7,0-49.7l78,1.3l-2.7,48.9L135.6,290.6z"/>
			
				<linearGradient id="SVGID_17_" gradientUnits="userSpaceOnUse" x1="598.754" y1="303.2826" x2="663.9116" y2="238.125" gradientTransform="matrix(-1 0 2.780000e-02 1 704.0336 0)">
				<stop  offset="0" style="stop-color:#A96628"/>
				<stop  offset="1" style="stop-color:#C77932"/>
			</linearGradient>
			<path class="st25" d="M127.4,289.2c0-0.9,4.1-33.1,4.1-33.1l-102.2,0l3.9,33.2L127.4,289.2z"/>
			
				<linearGradient id="SVGID_18_" gradientUnits="userSpaceOnUse" x1="593.3189" y1="262.8228" x2="652.0474" y2="204.0942" gradientTransform="matrix(-1 0 2.780000e-02 1 704.0356 0)">
				<stop  offset="0" style="stop-color:#D18237"/>
				<stop  offset="1" style="stop-color:#DE9C4D"/>
			</linearGradient>
			<polygon class="st26" points="130.1,250.4 46.5,251.8 46.2,215.9 132.4,218.2 			"/>
			
				<linearGradient id="SVGID_19_" gradientUnits="userSpaceOnUse" x1="519.3048" y1="244.3442" x2="556.0642" y2="207.5848" gradientTransform="matrix(-1 0 2.780000e-02 1 704.0336 0)">
				<stop  offset="0" style="stop-color:#C58449"/>
				<stop  offset="1" style="stop-color:#E39A57"/>
			</linearGradient>
			<polygon class="st27" points="197.6,238.1 145.5,238.4 145.2,216.3 200.4,214.1 			"/>
			
				<linearGradient id="SVGID_20_" gradientUnits="userSpaceOnUse" x1="553.0255" y1="233.1032" x2="623.3104" y2="162.8183" gradientTransform="matrix(-1 0 2.780000e-02 1 704.0336 0)">
				<stop  offset="0" style="stop-color:#C58449"/>
				<stop  offset="1" style="stop-color:#E39A57"/>
			</linearGradient>
			<polygon class="st28" points="179.8,188.1 178.1,211.9 66.4,211.1 64,184.6 			"/>
			
				<linearGradient id="SVGID_21_" gradientUnits="userSpaceOnUse" x1="554.4053" y1="183.8408" x2="601.8933" y2="136.3528" gradientTransform="matrix(-1 0 2.780000e-02 1 704.0336 0)">
				<stop  offset="0" style="stop-color:#D18237"/>
				<stop  offset="1" style="stop-color:#DE9C4D"/>
			</linearGradient>
			<polygon class="st29" points="154.7,137.5 155.7,182.9 105.5,182.3 103.9,138.4 			"/>
			
				<linearGradient id="SVGID_22_" gradientUnits="userSpaceOnUse" x1="611.556" y1="184.432" x2="653.0088" y2="142.9792" gradientTransform="matrix(-1 0 2.780000e-02 1 704.0336 0)">
				<stop  offset="0" style="stop-color:#A96628"/>
				<stop  offset="1" style="stop-color:#C77932"/>
			</linearGradient>
			<polygon class="st30" points="100.5,149.8 99.5,182.5 56.2,181.6 53.6,144.4 			"/>
			
				<linearGradient id="SVGID_23_" gradientUnits="userSpaceOnUse" x1="596.9219" y1="139.9025" x2="620.4293" y2="116.395" gradientTransform="matrix(-1 0 2.780000e-02 1 704.0336 0)">
				<stop  offset="0" style="stop-color:#D18237"/>
				<stop  offset="1" style="stop-color:#DE9C4D"/>
			</linearGradient>
			<polygon class="st31" points="125,125.5 84,147.2 71.9,131.8 112.2,107.5 			"/>
			<path class="st10" d="M135.7,241l53.4,0.9l-53.2,41.5C135.9,269.4,135.7,241,135.7,241z"/>
			<path class="st10" d="M128,255.5C128,255.5,128,255.5,128,255.5C128,255.4,128,255.4,128,255.5z"/>
			<path class="st10" d="M34,288.4l-4.7-32.3c0,0,28,0.1,54.2,0L34,288.4z"/>
			<polygon class="st10" points="46.2,215.9 103.5,217.4 46.5,245.3 			"/>
			<polygon class="st10" points="145.2,216.3 185.5,214.7 145.5,238.3 			"/>
			<polygon class="st10" points="66.4,211.1 64,184.6 130.9,186.6 66.9,211.1 			"/>
			<polygon class="st10" points="103.9,138.4 154.7,137.5 154.7,137.6 104.6,158.6 			"/>
			<polygon class="st10" points="53.6,144.4 100.5,149.8 100.4,152 55.3,169.1 			"/>
			<polygon class="st10" points="71.9,131.8 112.2,107.5 114.3,110.3 82.7,145.6 			"/>
			
				<linearGradient id="SVGID_24_" gradientUnits="userSpaceOnUse" x1="514.1223" y1="252.7933" x2="625.0935" y2="252.7933" gradientTransform="matrix(-1 0 7.590000e-02 1 626.1291 0)">
				<stop  offset="0" style="stop-color:#FFBE5B"/>
				<stop  offset="0.8909" style="stop-color:#FFD28E"/>
			</linearGradient>
			<polygon class="st32" points="130.1,250.4 46.5,251.8 38.6,249.5 20.1,250.6 29.3,256.1 131.4,256.1 			"/>
			<polygon class="st12" points="51,290.4 54,256.4 50,251.8 47.2,251.8 50.7,256.2 48.4,290.4 			"/>
			
				<linearGradient id="SVGID_25_" gradientUnits="userSpaceOnUse" x1="510.2702" y1="214.4477" x2="608.7722" y2="214.4477" gradientTransform="matrix(-1 0 7.590000e-02 1 626.1291 0)">
				<stop  offset="0" style="stop-color:#FFBE5B"/>
				<stop  offset="0.8909" style="stop-color:#FFD28E"/>
			</linearGradient>
			<polygon class="st33" points="33.3,210.7 46.2,215.9 132.4,218.2 121.1,211.1 48.4,210.7 			"/>
			
				<linearGradient id="SVGID_26_" gradientUnits="userSpaceOnUse" x1="430.8851" y1="239.927" x2="508.7603" y2="239.927" gradientTransform="matrix(-1 0 7.590000e-02 1 626.1291 0)">
				<stop  offset="0" style="stop-color:#FFBE5B"/>
				<stop  offset="0.8909" style="stop-color:#FFD28E"/>
			</linearGradient>
			<polygon class="st34" points="213.6,242.2 197.4,237.6 145.5,238.4 135.7,241 			"/>
			
				<linearGradient id="SVGID_27_" gradientUnits="userSpaceOnUse" x1="441.9965" y1="213.4218" x2="505.4767" y2="213.4218" gradientTransform="matrix(-1 0 7.590000e-02 1 626.1291 0)">
				<stop  offset="0" style="stop-color:#FFBE5B"/>
				<stop  offset="0.8909" style="stop-color:#FFD28E"/>
			</linearGradient>
			<polygon class="st35" points="200.4,214.1 178.5,210.5 136.7,211.6 145.2,216.3 			"/>
			
				<linearGradient id="SVGID_28_" gradientUnits="userSpaceOnUse" x1="460.6224" y1="184.6299" x2="592.9702" y2="184.6299" gradientTransform="matrix(-1 0 7.590000e-02 1 626.1291 0)">
				<stop  offset="0" style="stop-color:#FFBE5B"/>
				<stop  offset="0.8909" style="stop-color:#FFD28E"/>
			</linearGradient>
			<polygon class="st36" points="179.8,188.1 158,181.3 46.9,181.2 64,184.6 			"/>
			
				<linearGradient id="SVGID_29_" gradientUnits="userSpaceOnUse" x1="481.8497" y1="135.603" x2="532.6965" y2="135.603" gradientTransform="matrix(-1 0 7.590000e-02 1 626.1291 0)">
				<stop  offset="0" style="stop-color:#FFBE5B"/>
				<stop  offset="0.8909" style="stop-color:#FFD28E"/>
			</linearGradient>
			<polygon class="st37" points="154.7,137.5 122.5,132.8 103.9,138.4 			"/>
			
				<linearGradient id="SVGID_30_" gradientUnits="userSpaceOnUse" x1="537.0295" y1="144.3017" x2="585.2813" y2="144.3017" gradientTransform="matrix(-1 0 7.590000e-02 1 626.1291 0)">
				<stop  offset="0" style="stop-color:#FFBE5B"/>
				<stop  offset="0.8909" style="stop-color:#FFD28E"/>
			</linearGradient>
			<polygon class="st38" points="71.6,142.7 51.4,138.8 53.6,144.4 100.5,149.8 97.5,146.8 84,147.2 			"/>
			<polygon class="st12" points="146.3,290.9 149.3,241.5 154.1,238.5 157.3,238.2 152.1,241.5 149.9,290.6 			"/>
			<polygon class="st12" points="188.1,237.8 199.7,242.2 197.5,291 193.4,290.9 196.6,242.4 185.8,237.8 			"/>
			<polygon class="st12" points="116.8,250.5 116.2,218.3 108.6,211.1 106.3,211.1 111.6,218 113.8,251 			"/>
			<polygon class="st12" points="62.2,251.8 61.2,216.8 54.9,210.6 58.7,210.6 65,216.2 65.7,251.5 			"/>
			<polygon class="st12" points="108.5,289.6 107.3,256.6 103.7,250.9 100.1,251.1 103.7,256.9 104.9,289.6 			"/>
			<polygon class="st39" points="6.3,287.8 24.1,291.5 24.2,335.9 10.4,328.4 			"/>
			<polygon class="st12" points="81.5,210.9 82.3,185.6 73.7,181 77.6,181 86.1,185.6 85.1,211.1 			"/>
			<polygon class="st12" points="166,210.7 164.8,187.7 149.7,181.2 146.8,181.3 161.6,188.1 162.2,210.7 			"/>
			<polygon class="st12" points="144.3,181.2 142.1,138 119.2,133.9 117.2,134.7 138.5,138.8 141,181.5 			"/>
			<polygon class="st12" points="114.4,181.2 113.2,138.8 109.8,136.5 111.9,136.2 115.8,138.5 117.5,181.2 			"/>
			<g>
				<path class="st40" d="M79.9,333.5c7.2,8.3,7,20.2-0.4,26.6c-7.4,6.4-19.2,5-26.4-3.3c-7.2-8.3-7-20.2,0.4-26.6
					C60.9,323.8,72.7,325.2,79.9,333.5z"/>
				<path class="st41" d="M80.2,336.6c5.8,6.7,5.2,16.7-1.4,22.4c-6.6,5.7-16.6,5-22.4-1.7c-5.8-6.7-5.2-16.7,1.4-22.4
					C64.3,329.2,74.4,330,80.2,336.6z"/>
				<polygon class="st40" points="52,338.7 83.9,341.7 81,334.5 53.2,334.4 				"/>
				<path class="st40" d="M78,345c1.3,5.2-1.9,10.5-7.1,11.8c-5.3,1.3-10.6-1.8-11.9-7c-1.3-5.2,1.9-10.5,7.1-11.8
					C71.3,336.7,76.6,339.8,78,345z"/>
				<path class="st41" d="M73.5,345.6c0.7,2.9-1,5.9-4,6.6c-2.9,0.7-5.9-1-6.6-3.9c-0.7-2.9,1-5.8,4-6.6
					C69.8,341,72.8,342.7,73.5,345.6z"/>
				<g>
					<g>
						<path class="st42" d="M77.8,344.5c0,0,0,0.4,0,1.2c-0.1,0.8-0.2,1.9-0.7,3.1c-0.5,1.3-1.3,2.7-2.5,3.9c-1.3,1.2-3,2.2-5.1,2.5
							c-2.1,0.3-4-0.2-5.5-0.9c-1.5-0.8-2.6-1.7-3.4-2.7c-1.6-1.9-2-3.2-2-3.2c0,0,0,0.4,0.1,1.2c0.1,0.8,0.4,2,1.1,3.3
							c0.8,1.3,2,2.9,4,4c2,1.1,4.7,1.6,7.5,0.8c2.8-0.8,4.7-2.6,5.8-4.4c1.1-1.8,1.5-3.6,1.5-4.9c0-1.4-0.2-2.4-0.4-3
							C78,344.8,77.8,344.5,77.8,344.5z"/>
					</g>
				</g>
			</g>
			<polygon class="st12" points="80.7,181.3 80.9,147.5 78.9,147.3 77.6,181 			"/>
			<polygon class="st12" points="99.8,165.2 55.2,162.2 55.6,164.5 99.8,167.2 			"/>
			<polygon class="st12" points="117.7,115.2 77.8,139.2 78.8,140.7 119.7,118.3 			"/>
			<polygon class="st12" points="105.5,135.7 93.7,118.7 92.2,119.5 102.8,137.4 			"/>
			<polygon class="st12" points="176.9,237.7 175.7,215.2 161,210.6 153.7,210.9 172,215.5 174.8,238 			"/>
			<g>
				<path class="st40" d="M197.8,332.7c7.2,8.3,7,20.2-0.4,26.6c-7.4,6.4-19.2,5-26.4-3.3c-7.2-8.3-7-20.2,0.4-26.6
					C178.8,323,190.6,324.5,197.8,332.7z"/>
				<path class="st41" d="M198.1,335.9c5.8,6.7,5.2,16.7-1.4,22.4c-6.6,5.7-16.6,5-22.4-1.7c-5.8-6.7-5.2-16.7,1.4-22.4
					C182.2,328.5,192.3,329.2,198.1,335.9z"/>
				<polygon class="st40" points="169.9,338 201.8,341 198.9,333.7 171.1,333.6 				"/>
				<path class="st40" d="M195.9,344.3c1.3,5.2-1.9,10.5-7.1,11.8c-5.3,1.3-10.6-1.8-11.9-7c-1.3-5.2,1.9-10.5,7.1-11.8
					C189.2,335.9,194.6,339.1,195.9,344.3z"/>
				<path class="st41" d="M191.4,344.9c0.7,2.9-1,5.8-4,6.6c-2.9,0.7-5.9-1-6.6-3.9c-0.7-2.9,1-5.8,4-6.6
					C187.7,340.2,190.7,342,191.4,344.9z"/>
				<g>
					<g>
						<path class="st42" d="M195.8,343.8c0,0,0,0.4,0,1.2c-0.1,0.8-0.2,1.9-0.7,3.1c-0.5,1.3-1.3,2.7-2.5,3.9
							c-1.3,1.2-3,2.2-5.1,2.5c-2.1,0.3-4-0.2-5.5-0.9c-1.5-0.8-2.6-1.7-3.4-2.7c-1.6-1.9-2-3.2-2-3.2c0,0,0,0.4,0.1,1.2
							c0.1,0.8,0.4,2,1.1,3.3c0.8,1.3,2,2.9,4,4c2,1.1,4.7,1.6,7.5,0.8c2.8-0.8,4.7-2.6,5.8-4.4c1.1-1.8,1.5-3.6,1.5-4.9
							c0-1.4-0.2-2.4-0.4-3C195.9,344.1,195.7,343.8,195.8,343.8z"/>
					</g>
				</g>
			</g>
			<polygon class="st12" points="198.9,226.7 145.4,226.1 145.5,228.9 198.6,229.3 			"/>
			<polygon class="st43" points="19.5,291.1 24.2,335.9 234.9,335.3 233,294.3 			"/>
			<polygon class="st44" points="26.1,297.8 29.2,332 230.7,332.6 230.1,299.3 			"/>
			<polygon class="st45" points="26.1,297.8 29.2,332 29.7,332 52.1,298 			"/>
			<polygon class="st45" points="76.9,298.2 55,332.1 81.5,332.2 101.3,298.4 			"/>
			<polygon class="st45" points="126.7,298.5 107.2,332.2 131.4,332.3 151,298.7 			"/>
			<polygon class="st45" points="204.5,332.5 230.7,332.6 230.1,299.3 221.8,299.3 			"/>
			<polygon class="st45" points="174.8,298.9 156.1,332.4 180.4,332.4 199.1,299.1 			"/>
			<polygon class="st22" points="233,294.3 19.5,291.1 19.9,295 234.4,323.5 			"/>
			<path class="st46" d="M341.1,164c0,0-3-3.4-1.3-7c1.8-3.7,7.4-4,7.4-4s3.5,2.9,1.5,6.8C346.6,164.1,341.1,164,341.1,164z"/>
			<polygon class="st47" points="19.5,291.1 6.3,287.8 217.3,287.9 233,294.3 			"/>
			<path class="st48" d="M219,292.2c0,0,43.1-125.5,44.7-126.9c1.6-1.4,67.7-6.8,67.7-6.8s2.1,0.2,3.1-0.9c0.7-0.9,0.2-2.2,0.2-2.2
				s-75.7,3.6-77.5,6.4c-1.8,2.8-50.2,130-50.2,130L219,292.2z"/>
			<path class="st23" d="M216.8,265.2c0,0-23.9,1.3-25,3.7c-1.1,2.4-6.6,22.5-6.6,22.5h-7.1c0,0,8.4-23.9,10.2-26.1
				c1.8-2.1,30.3-4.4,30.3-4.4L216.8,265.2z"/>
			<path class="st48" d="M222,209.1l17.1,9.7l2.3-6.1l-18.1-6.4C223.4,206.3,221.5,207,222,209.1z"/>
			<path class="st48" d="M247.6,195.7l-18.9-4c0,0-1.5,1-1.2,2.4l17.8,6.8L247.6,195.7z"/>
			<g>
				<path class="st49" d="M207.7,292.1l-1.8-0.7c11.2-30.1,48-128.5,50.6-130.4c2.6-1.9,60.4-5.5,78-6.6l0.1,1.9
					c-29.2,1.8-73.5,4.8-77,6.2C254.9,166.5,226.3,242,207.7,292.1z"/>
			</g>
			<polygon class="st1" points="20.1,250.6 27.5,287.8 34,288.4 29.3,256.1 			"/>
			<path class="st48" d="M27.9,291.6c0,0-2.8-19.7-4.6-21.8c-1.8-2.2-16.6-3.4-18.8-2.2C2.4,268.9,9,287.9,9,287.9l2.8-0.2
				c0,0-4.9-14.6-3.4-15.5c1.5-0.9,8.9-0.3,10.5,1.5c1.5,1.8,2.9,17.5,2.9,17.5L27.9,291.6z"/>
			<g>
				<path class="st49" d="M179,291.7l-1.8-0.6c0.8-2.5,8.2-24.1,10.4-26.4c2.2-2.3,24.2-4.2,30.9-4.7l0.2,1.9
					c-13.5,1.1-28.4,2.9-29.7,4.2C187.6,267.5,182.1,282.6,179,291.7z"/>
			</g>
			<g>
				<polygon class="st49" points="232.9,295.2 19.4,292.1 6,288.7 6.5,286.9 19.6,290.2 233,293.3 				"/>
			</g>
		</g>
		<g>
			<g>
				
					<ellipse transform="matrix(0.9251 -0.3797 0.3797 0.9251 -95.7271 49.0889)" class="st19" cx="76.6" cy="267.2" rx="2.1" ry="6.5"/>
			</g>
			<g>
				
					<ellipse transform="matrix(0.3797 -0.9251 0.9251 0.3797 -195.4021 243.0931)" class="st19" cx="83.6" cy="267.2" rx="6.5" ry="2.1"/>
			</g>
			<g>
				<circle class="st19" cx="80.2" cy="278.7" r="7.5"/>
			</g>
			<g>
				<g>
					<path class="st19" d="M84.9,277.5c0,0.2-0.5,0.4-0.5,0.6c0,0.2,0.5,0.2,0.6,0.4c0.1,0.2-0.2,0.6,0,0.8c0.1,0.1,0.6-0.1,0.8,0
						c0.2,0.1,0.2,0.6,0.4,0.6s0.4-0.4,0.6-0.5c0.2,0,0.5,0.4,0.7,0.3c0.2-0.1,0.1-0.6,0.2-0.7c0.1-0.1,0.6,0,0.7-0.2
						c0.1-0.2-0.3-0.5-0.3-0.7s0.5-0.4,0.5-0.6c0-0.2-0.5-0.2-0.6-0.4c-0.1-0.2,0.2-0.6,0-0.8c-0.1-0.1-0.6,0.1-0.8,0
						c-0.2-0.1-0.2-0.6-0.4-0.6s-0.4,0.4-0.6,0.5c-0.2,0-0.5-0.4-0.7-0.3c-0.2,0.1-0.1,0.6-0.2,0.7c-0.1,0.1-0.6,0-0.7,0.2
						C84.6,276.9,85,277.3,84.9,277.5z"/>
				</g>
				<g>
					<path class="st19" d="M72.3,278c0,0.2-0.3,0.6-0.2,0.7c0.1,0.2,0.6,0,0.7,0.2c0.1,0.1,0,0.6,0.2,0.7c0.2,0.1,0.5-0.3,0.7-0.3
						c0.2,0,0.4,0.5,0.6,0.5c0.2,0,0.2-0.6,0.4-0.6c0.2-0.1,0.6,0.2,0.8,0c0.1-0.1-0.1-0.6-0.1-0.8c0.1-0.2,0.6-0.2,0.6-0.4
						c0-0.2-0.5-0.4-0.5-0.6c0-0.2,0.3-0.6,0.2-0.7c-0.1-0.2-0.6,0-0.7-0.2c-0.1-0.1,0-0.6-0.2-0.7c-0.2-0.1-0.5,0.3-0.7,0.3
						c-0.2,0-0.4-0.5-0.6-0.5c-0.2,0-0.2,0.6-0.4,0.6c-0.2,0.1-0.6-0.2-0.8,0c-0.1,0.1,0.1,0.6,0.1,0.8c-0.1,0.2-0.6,0.2-0.6,0.4
						C71.7,277.7,72.2,277.8,72.3,278z"/>
				</g>
			</g>
		</g>
		<g>
			<g>
				
					<ellipse transform="matrix(0.9251 -0.3797 0.3797 0.9251 -80.2987 50.3125)" class="st19" cx="87.4" cy="228.7" rx="2.1" ry="6.5"/>
			</g>
			<g>
				
					<ellipse transform="matrix(0.3797 -0.9251 0.9251 0.3797 -153.0701 229.2132)" class="st19" cx="94.4" cy="228.7" rx="6.5" ry="2.1"/>
			</g>
			<g>
				<circle class="st19" cx="91.1" cy="240.2" r="7.5"/>
			</g>
			<g>
				<g>
					<path class="st19" d="M95.7,239c0,0.2-0.5,0.4-0.5,0.6c0,0.2,0.5,0.2,0.6,0.4c0.1,0.2-0.2,0.6,0,0.8c0.1,0.1,0.6-0.1,0.8,0
						c0.2,0.1,0.2,0.6,0.4,0.6c0.2,0,0.4-0.4,0.6-0.5c0.2,0,0.5,0.4,0.7,0.3c0.2-0.1,0.1-0.6,0.2-0.7c0.1-0.1,0.6,0,0.7-0.2
						c0.1-0.2-0.3-0.5-0.3-0.7s0.5-0.4,0.5-0.6c0-0.2-0.5-0.2-0.6-0.4c-0.1-0.2,0.2-0.6,0-0.8c-0.1-0.1-0.6,0.1-0.8,0
						c-0.2-0.1-0.2-0.6-0.4-0.6c-0.2,0-0.4,0.4-0.6,0.5c-0.2,0-0.5-0.4-0.7-0.3c-0.2,0.1-0.1,0.6-0.2,0.7c-0.1,0.1-0.6,0-0.7,0.2
						C95.4,238.4,95.8,238.8,95.7,239z"/>
				</g>
				<g>
					<path class="st19" d="M83.1,239.5c0,0.2-0.3,0.6-0.2,0.7c0.1,0.2,0.6,0,0.7,0.2c0.1,0.1,0,0.6,0.2,0.7c0.2,0.1,0.5-0.3,0.7-0.3
						c0.2,0,0.4,0.5,0.6,0.5c0.2,0,0.2-0.6,0.4-0.6c0.2-0.1,0.6,0.2,0.8,0c0.1-0.1-0.1-0.6-0.1-0.8c0.1-0.2,0.6-0.2,0.6-0.4
						c0-0.2-0.5-0.4-0.5-0.6c0-0.2,0.3-0.6,0.2-0.7c-0.1-0.2-0.6,0-0.7-0.2c-0.1-0.1,0-0.6-0.2-0.7c-0.2-0.1-0.5,0.3-0.7,0.3
						c-0.2,0-0.4-0.5-0.6-0.5c-0.2,0-0.2,0.6-0.4,0.6c-0.2,0.1-0.6-0.2-0.8,0c-0.1,0.1,0.1,0.6,0.1,0.8c-0.1,0.2-0.6,0.2-0.6,0.4
						C82.6,239.1,83,239.3,83.1,239.5z"/>
				</g>
			</g>
		</g>
		<g>
			<g>
				
					<ellipse transform="matrix(0.9251 -0.3797 0.3797 0.9251 -85.354 83.2933)" class="st19" cx="168.5" cy="258.1" rx="2.1" ry="6.5"/>
			</g>
			<g>
				
					<ellipse transform="matrix(0.3797 -0.9251 0.9251 0.3797 -129.8785 322.4137)" class="st19" cx="175.5" cy="258.1" rx="6.5" ry="2.1"/>
			</g>
			<g>
				<circle class="st19" cx="172.1" cy="269.5" r="7.5"/>
			</g>
			<g>
				<g>
					<path class="st19" d="M176.8,268.3c0,0.2-0.5,0.4-0.5,0.6c0,0.2,0.5,0.2,0.6,0.4c0.1,0.2-0.2,0.6,0,0.8c0.1,0.1,0.6-0.1,0.8,0
						c0.2,0.1,0.2,0.6,0.4,0.6c0.2,0,0.4-0.4,0.6-0.5c0.2,0,0.5,0.4,0.7,0.3c0.2-0.1,0.1-0.6,0.2-0.7c0.1-0.1,0.6,0,0.7-0.2
						c0.1-0.2-0.3-0.5-0.3-0.7c0-0.2,0.5-0.4,0.5-0.6c0-0.2-0.5-0.2-0.6-0.4c-0.1-0.2,0.2-0.6,0-0.8c-0.1-0.1-0.6,0.1-0.8,0
						c-0.2-0.1-0.2-0.6-0.4-0.6s-0.4,0.4-0.6,0.5c-0.2,0-0.5-0.4-0.7-0.3c-0.2,0.1-0.1,0.6-0.2,0.7c-0.1,0.1-0.6,0-0.7,0.2
						C176.5,267.7,176.9,268.1,176.8,268.3z"/>
				</g>
				<g>
					<path class="st19" d="M164.2,268.8c0,0.2-0.3,0.6-0.2,0.7c0.1,0.2,0.6,0,0.7,0.2c0.1,0.1,0,0.6,0.2,0.7
						c0.2,0.1,0.5-0.3,0.7-0.3c0.2,0,0.4,0.5,0.6,0.5s0.2-0.6,0.4-0.6c0.2-0.1,0.6,0.2,0.8,0c0.1-0.1-0.1-0.6-0.1-0.8
						c0.1-0.2,0.6-0.2,0.6-0.4c0-0.2-0.5-0.4-0.5-0.6c0-0.2,0.3-0.6,0.2-0.7c-0.1-0.2-0.6,0-0.7-0.2c-0.1-0.1,0-0.6-0.2-0.7
						c-0.2-0.1-0.5,0.3-0.7,0.3c-0.2,0-0.4-0.5-0.6-0.5c-0.2,0-0.2,0.6-0.4,0.6c-0.2,0.1-0.6-0.2-0.8,0c-0.1,0.1,0.1,0.6,0.1,0.8
						c-0.1,0.2-0.6,0.2-0.6,0.4C163.6,268.5,164.1,268.6,164.2,268.8z"/>
				</g>
			</g>
		</g>
		<g>
			<g>
				
					<ellipse transform="matrix(0.9251 -0.3797 0.3797 0.9251 -64.6479 61.084)" class="st19" cx="122.5" cy="194.4" rx="1.4" ry="4.4"/>
			</g>
			<g>
				
					<ellipse transform="matrix(0.3797 -0.9251 0.9251 0.3797 -100.9172 238.3989)" class="st19" cx="127.3" cy="194.4" rx="4.4" ry="1.4"/>
			</g>
			<g>
				<circle class="st19" cx="125" cy="202.3" r="5.1"/>
			</g>
			<g>
				<g>
					<path class="st19" d="M128.2,201.4c0,0.1-0.3,0.3-0.3,0.4c0,0.1,0.4,0.2,0.4,0.3c0.1,0.1-0.1,0.4,0,0.5c0.1,0.1,0.4-0.1,0.5,0
						c0.1,0.1,0.2,0.4,0.3,0.4c0.1,0,0.3-0.3,0.4-0.3c0.1,0,0.4,0.2,0.5,0.2c0.1-0.1,0-0.4,0.1-0.5c0.1-0.1,0.4,0,0.5-0.1
						c0.1-0.1-0.2-0.4-0.2-0.5s0.3-0.3,0.3-0.4c0-0.1-0.4-0.2-0.4-0.3c-0.1-0.1,0.1-0.4,0-0.5c-0.1-0.1-0.4,0.1-0.5,0
						c-0.1-0.1-0.2-0.4-0.3-0.4s-0.3,0.3-0.4,0.3c-0.1,0-0.4-0.2-0.5-0.2c-0.1,0.1,0,0.4-0.1,0.5c-0.1,0.1-0.4,0-0.5,0.1
						C128,201.1,128.3,201.3,128.2,201.4z"/>
				</g>
				<g>
					<path class="st19" d="M119.6,201.8c0,0.1-0.2,0.4-0.2,0.5c0.1,0.1,0.4,0,0.5,0.1c0.1,0.1,0,0.4,0.2,0.5
						c0.1,0.1,0.3-0.2,0.5-0.2c0.1,0,0.3,0.3,0.4,0.3s0.2-0.4,0.3-0.4c0.1-0.1,0.4,0.1,0.5,0c0.1-0.1-0.1-0.4,0-0.5
						c0.1-0.1,0.4-0.2,0.4-0.3c0-0.1-0.3-0.3-0.3-0.4s0.2-0.4,0.2-0.5c-0.1-0.1-0.4,0-0.5-0.1c-0.1-0.1,0-0.4-0.2-0.5
						c-0.1-0.1-0.3,0.2-0.5,0.2c-0.1,0-0.3-0.3-0.4-0.3s-0.2,0.4-0.3,0.4c-0.1,0.1-0.4-0.1-0.5,0c-0.1,0.1,0.1,0.4,0,0.5
						c-0.1,0.1-0.4,0.2-0.4,0.3C119.2,201.6,119.6,201.7,119.6,201.8z"/>
				</g>
			</g>
		</g>
		<g>
			<g>
				
					<ellipse transform="matrix(0.9251 -0.3797 0.3797 0.9251 -49.5562 59.7994)" class="st19" cx="126.8" cy="155.5" rx="1.4" ry="4.4"/>
			</g>
			<g>
				
					<ellipse transform="matrix(0.3797 -0.9251 0.9251 0.3797 -62.2643 218.2318)" class="st19" cx="131.6" cy="155.5" rx="4.4" ry="1.4"/>
			</g>
			<g>
				<circle class="st19" cx="129.3" cy="163.4" r="5.1"/>
			</g>
			<g>
				<g>
					<path class="st19" d="M132.5,162.5c0,0.1-0.3,0.3-0.3,0.4c0,0.1,0.4,0.2,0.4,0.3c0.1,0.1-0.1,0.4,0,0.5c0.1,0.1,0.4-0.1,0.5,0
						c0.1,0.1,0.2,0.4,0.3,0.4s0.3-0.3,0.4-0.3c0.1,0,0.4,0.2,0.5,0.2c0.1-0.1,0-0.4,0.1-0.5c0.1-0.1,0.4,0,0.5-0.1
						c0.1-0.1-0.2-0.4-0.2-0.5s0.3-0.3,0.3-0.4c0-0.1-0.4-0.2-0.4-0.3c-0.1-0.1,0.1-0.4,0-0.5c-0.1-0.1-0.4,0.1-0.5,0
						c-0.1-0.1-0.2-0.4-0.3-0.4c-0.1,0-0.3,0.3-0.4,0.3c-0.1,0-0.4-0.2-0.5-0.2c-0.1,0.1,0,0.4-0.1,0.5c-0.1,0.1-0.4,0-0.5,0.1
						C132.3,162.2,132.5,162.4,132.5,162.5z"/>
				</g>
				<g>
					<path class="st19" d="M123.9,162.9c0,0.1-0.2,0.4-0.2,0.5c0.1,0.1,0.4,0,0.5,0.1c0.1,0.1,0,0.4,0.2,0.5
						c0.1,0.1,0.3-0.2,0.5-0.2c0.1,0,0.3,0.3,0.4,0.3c0.1,0,0.2-0.4,0.3-0.4c0.1-0.1,0.4,0.1,0.5,0c0.1-0.1-0.1-0.4,0-0.5
						c0.1-0.1,0.4-0.2,0.4-0.3c0-0.1-0.3-0.3-0.3-0.4s0.2-0.4,0.2-0.5c-0.1-0.1-0.4,0-0.5-0.1c-0.1-0.1,0-0.4-0.2-0.5
						c-0.1-0.1-0.3,0.2-0.5,0.2c-0.1,0-0.3-0.3-0.4-0.3s-0.2,0.4-0.3,0.4c-0.1,0.1-0.4-0.1-0.5,0c-0.1,0.1,0.1,0.4,0,0.5
						c-0.1,0.1-0.4,0.2-0.4,0.3C123.5,162.6,123.8,162.8,123.9,162.9z"/>
				</g>
			</g>
		</g>
	</g>
	<g>
		<g>
			<g>
				<g>
					<rect x="350.5" y="276.2" class="st50" width="98.2" height="98.3"/>
					<rect x="313.7" y="276.2" class="st51" width="49.1" height="98.3"/>
				</g>
				<rect x="348" y="350.2" class="st52" width="9.8" height="19.1"/>
				<rect x="417.4" y="354.5" class="st52" width="24.7" height="14.2"/>
				<rect x="333.7" y="350.2" class="st52" width="9.8" height="19.1"/>
				<rect x="368.7" y="366.1" class="st52" width="36.5" height="2.5"/>
				<rect x="368.7" y="360.9" class="st52" width="36.5" height="2.5"/>
				<rect x="368.7" y="283.6" class="st52" width="36.5" height="2.5"/>
			</g>
		</g>
		<g>
			<g>
				
					<ellipse transform="matrix(0.9251 -0.3797 0.3797 0.9251 -86.3663 173.6928)" class="st53" cx="397.2" cy="305.8" rx="4.6" ry="14.4"/>
			</g>
			<g>
				
					<ellipse transform="matrix(0.3797 -0.9251 0.9251 0.3797 -26.9815 571.3975)" class="st53" cx="412.6" cy="305.8" rx="14.4" ry="4.6"/>
			</g>
			<g>
				<circle class="st53" cx="405.2" cy="331.2" r="16.6"/>
			</g>
			<g>
				<g>
					<path class="st53" d="M415.6,328.4c-0.1,0.5-1.1,0.9-1,1.3c0.1,0.4,1.2,0.5,1.4,0.9c0.2,0.4-0.4,1.4-0.1,1.7
						c0.3,0.3,1.3-0.3,1.7-0.1c0.4,0.2,0.5,1.3,0.9,1.4c0.5,0.1,0.9-1,1.3-1c0.4-0.1,1.2,0.8,1.6,0.6c0.4-0.2,0.1-1.3,0.5-1.6
						c0.3-0.3,1.4-0.1,1.6-0.5c0.2-0.4-0.7-1.1-0.6-1.6c0.1-0.5,1.1-0.9,1-1.3c-0.1-0.4-1.2-0.5-1.4-0.9c-0.2-0.4,0.4-1.4,0.1-1.7
						c-0.3-0.3-1.3,0.3-1.7,0.1c-0.4-0.2-0.5-1.3-0.9-1.4c-0.5-0.1-0.9,1-1.3,1c-0.4,0.1-1.2-0.8-1.6-0.6c-0.4,0.2-0.1,1.3-0.5,1.6
						c-0.3,0.3-1.4,0.1-1.6,0.5C414.8,327.2,415.7,327.9,415.6,328.4z"/>
				</g>
				<g>
					<path class="st53" d="M387.6,329.6c0.1,0.4-0.7,1.2-0.5,1.6c0.2,0.4,1.3,0.1,1.6,0.4c0.3,0.3,0.1,1.4,0.5,1.6
						c0.4,0.2,1.1-0.7,1.6-0.6c0.4,0.1,0.9,1.1,1.4,1c0.4-0.1,0.5-1.2,0.9-1.4c0.4-0.2,1.4,0.3,1.7,0c0.3-0.3-0.3-1.3-0.1-1.7
						c0.2-0.4,1.3-0.5,1.4-1c0.1-0.4-1-0.8-1.1-1.3c-0.1-0.4,0.7-1.2,0.5-1.6c-0.2-0.4-1.3-0.1-1.6-0.4c-0.3-0.3-0.1-1.4-0.5-1.6
						c-0.4-0.2-1.1,0.7-1.6,0.6c-0.4-0.1-0.9-1.1-1.4-1c-0.4,0.1-0.5,1.2-0.9,1.4c-0.4,0.2-1.4-0.3-1.7,0c-0.3,0.3,0.3,1.3,0.1,1.7
						c-0.2,0.4-1.3,0.5-1.4,1C386.5,328.8,387.5,329.2,387.6,329.6z"/>
				</g>
			</g>
		</g>
	</g>
	<g>
		<g>
			<path class="st54" d="M268.2,148.3c0,6.4-8.2,14.3-18.9,14.3c-10.7,0-18.7-8.8-18.7-15.2s8-7.8,18.7-7.8
				C260,139.6,268.2,140.7,268.2,148.3z"/>
		</g>
		<g>
			<path class="st55" d="M297.4,187.2c-2.4,0-4.8-0.7-7-2.1c-11.9-8-30.5-13.4-36.7-14.9c-6.7-1.6-10.9-8.3-9.4-15
				c1.6-6.7,8.3-10.9,15-9.4c1.1,0.3,26.9,6.3,45,18.5c5.7,3.9,7.2,11.6,3.4,17.3C305.4,185.2,301.5,187.2,297.4,187.2z"/>
		</g>
		<g>
			<path class="st56" d="M297.4,189.2c-2.8,0-5.6-0.8-8.1-2.5c-1.2-0.8-2.6-1.7-4.1-2.5c-7-4-9.5-12.8-5.5-19.9
				c4-7,12.8-9.5,19.9-5.5c2.1,1.2,4.1,2.4,6,3.7c6.7,4.5,8.5,13.5,4,20.2C306.7,187,302.1,189.2,297.4,189.2z"/>
		</g>
		<g>
			<path class="st57" d="M279.9,221.1c-0.4,0-0.8,0-1.3-0.1c-6.3-0.7-10.8-6.4-10.1-12.6c1.3-11.9,12.5-19.2,22.8-24.9
				c-2.6-3.9-2.6-9.2,0.4-13.2c3.8-5.1,11-6.1,16-2.3c0.6,0.5,1.7,1.2,2.8,2c3,2,6.3,4.3,8.7,6.7c4.3,4.4,4.4,11.4,0.2,15.9
				c-3.2,3.4-8.1,6.1-13.7,9.2c-3.6,2-7.3,4-10.3,6.1c-2.9,2-3.9,3.3-4.2,3.7C290.3,217,285.5,221.1,279.9,221.1z"/>
		</g>
		<g>
			<path class="st55" d="M199.7,186.4c-4,0-8-1.9-10.4-5.5c-3.9-5.7-2.3-13.5,3.4-17.3c18.1-12.2,43.9-18.2,45-18.5
				c6.7-1.6,13.4,2.6,15,9.4c1.6,6.7-2.6,13.4-9.4,15l0,0c-0.2,0.1-22.5,5.3-36.7,14.9C204.6,185.7,202.1,186.4,199.7,186.4z"/>
		</g>
		<g>
			<path class="st56" d="M199.7,188.4c-4.7,0-9.3-2.3-12.1-6.4c-4.5-6.7-2.7-15.7,4-20.2c1.9-1.3,3.9-2.5,6-3.7
				c7-4,15.9-1.5,19.9,5.5c4,7,1.5,15.9-5.5,19.9c-1.5,0.8-2.8,1.7-4.1,2.5C205.4,187.6,202.5,188.4,199.7,188.4z"/>
		</g>
		<g>
			<path class="st57" d="M217.3,220.3c-5.6,0-10.4-4.1-11.3-9.6c-0.3-0.4-1.3-1.7-4.2-3.7c-3-2.1-6.7-4.1-10.3-6.1
				c-5.6-3.1-10.5-5.7-13.7-9.2c-4.2-4.5-4.1-11.5,0.2-15.9c2.4-2.4,5.7-4.7,8.7-6.7c1.1-0.8,2.2-1.5,2.8-2c5.1-3.8,12.2-2.8,16,2.3
				c3,4,3,9.3,0.4,13.2c10.3,5.7,21.5,13,22.8,24.9c0.7,6.3-3.8,11.9-10.1,12.6C218.1,220.3,217.7,220.3,217.3,220.3z"/>
		</g>
		<g>
			<path class="st57" d="M260,379.9c-6.6,0-11.9-5.3-11.9-11.9c0-0.1,0-14.1,0-36.7c0-6.6,5.3-11.9,11.9-11.9
				c6.6,0,11.9,5.3,11.9,11.9c0,22.5,0,36.5,0,36.6C271.9,374.5,266.6,379.9,260,379.9C260,379.9,260,379.9,260,379.9z"/>
		</g>
		<g>
			<path class="st54" d="M247.2,322.9c0,0,0-30.2,0-54c0-23.8,0-67.9,0-67.9l25.6,0c0,0,0,44.1,0,67.9c0,23.8,0,54,0,54L247.2,322.9
				z"/>
		</g>
		<g>
			<rect x="246.8" y="322.5" class="st58" width="26.2" height="11.9"/>
		</g>
		<g>
			<path class="st57" d="M202.3,377.5c-1,0-2-0.1-2.9-0.4c-6.4-1.6-10.3-8.1-8.6-14.5l12.8-50.7c1.6-6.4,8.1-10.3,14.5-8.6
				c6.4,1.6,10.3,8.1,8.6,14.5l-12.8,50.7C212.5,373.9,207.6,377.5,202.3,377.5z"/>
		</g>
		<g>
			
				<rect x="164.1" y="249.6" transform="matrix(0.2078 -0.9782 0.9782 0.2078 -77.6803 428.8666)" class="st54" width="123.7" height="25.6"/>
		</g>
		<g>
			
				<rect x="199.2" y="320.1" transform="matrix(-0.9778 -0.2095 0.2095 -0.9778 351.5805 689.2272)" class="st58" width="26.2" height="11.9"/>
		</g>
		<g>
			<path class="st55" d="M224.3,208.5l0.4-37.8c0-23.1,8.2-27.3,24.8-27.3l0,0c16.6,0,23.1,10.7,23.1,27.3l0,37.8"/>
		</g>
		<g>
			
				<ellipse transform="matrix(0.9251 -0.3797 0.3797 0.9251 3.9646 89.3566)" class="st57" cx="228.5" cy="34.6" rx="11.8" ry="36.7"/>
		</g>
		<g>
			
				<ellipse transform="matrix(0.3797 -0.9251 0.9251 0.3797 134.1026 269.2416)" class="st57" cx="267.8" cy="34.6" rx="36.7" ry="11.8"/>
		</g>
		<g>
			<circle class="st57" cx="249.1" cy="99.3" r="42.5"/>
		</g>
		<g>
			<g>
				<path class="st57" d="M275.5,92.3c-0.2,1.2-2.8,2.3-2.7,3.4c0.2,1.1,3.1,1.4,3.6,2.4c0.5,1-1,3.5-0.2,4.3
					c0.8,0.8,3.3-0.7,4.3-0.2c1,0.5,1.2,3.4,2.4,3.6c1.2,0.2,2.3-2.5,3.4-2.7c1.1-0.2,3.1,2,4.1,1.5c1-0.5,0.4-3.4,1.2-4.2
					c0.8-0.8,3.6-0.2,4.2-1.2c0.5-1-1.7-2.9-1.5-4c0.2-1.2,2.8-2.3,2.7-3.4c-0.2-1.1-3.1-1.4-3.6-2.4c-0.5-1,1-3.5,0.2-4.3
					c-0.8-0.8-3.3,0.7-4.3,0.2c-1-0.5-1.2-3.4-2.4-3.6c-1.2-0.2-2.3,2.5-3.4,2.7c-1.1,0.2-3.1-2-4.1-1.5c-1,0.5-0.4,3.4-1.2,4.2
					c-0.8,0.8-3.6,0.2-4.2,1.2C273.5,89.2,275.7,91.1,275.5,92.3z"/>
			</g>
			<g>
				<path class="st57" d="M204.1,95.5c0.2,1.1-1.9,3.1-1.4,4.1c0.6,1,3.4,0.3,4.2,1c0.8,0.8,0.3,3.6,1.3,4.1c1,0.5,2.9-1.8,4-1.6
					c1.1,0.1,2.3,2.8,3.5,2.6c1.1-0.2,1.3-3.1,2.3-3.7c1-0.6,3.5,0.9,4.3,0c0.8-0.8-0.8-3.3-0.3-4.3c0.5-1,3.4-1.4,3.5-2.5
					c0.1-1.1-2.6-2.2-2.8-3.3c-0.2-1.1,1.9-3.1,1.4-4.1c-0.6-1-3.4-0.3-4.2-1c-0.8-0.8-0.3-3.6-1.3-4.1c-1-0.5-2.9,1.8-4,1.6
					c-1.1-0.1-2.3-2.8-3.5-2.6c-1.1,0.2-1.3,3.1-2.3,3.7c-1,0.6-3.5-0.9-4.3,0c-0.8,0.8,0.8,3.3,0.3,4.3c-0.5,1-3.4,1.4-3.5,2.5
					C201.1,93.3,203.8,94.3,204.1,95.5z"/>
			</g>
		</g>
		<g>
			<path class="st57" d="M236.9,105.3v36.6c0,6.8,5.6,12.4,12.4,12.4h0c6.8,0,12.4-5.6,12.4-12.4v-36.6"/>
		</g>
		<g>
			<g>
				<circle class="st60" cx="254.6" cy="79.3" r="3.8"/>
			</g>
			<g>
				<circle class="st60" cx="244.9" cy="79.3" r="3.8"/>
			</g>
			<g>
				<g>
					<path class="st60" d="M246.7,96.7c-3,0-5.4-2.4-5.4-5.4c0-0.9,0.8-1.7,1.7-1.7s1.7,0.8,1.7,1.7c0,1.1,0.9,1.9,1.9,1.9
						s1.9-0.9,1.9-1.9c0-0.9,0.8-1.7,1.7-1.7s1.7,0.8,1.7,1.7C252.1,94.3,249.7,96.7,246.7,96.7z"/>
				</g>
				<g>
					<path class="st60" d="M253.6,96.7c-3,0-5.4-2.4-5.4-5.4c0-0.9,0.8-1.7,1.7-1.7s1.7,0.8,1.7,1.7c0,1.1,0.9,1.9,1.9,1.9
						c1.1,0,1.9-0.9,1.9-1.9c0-0.9,0.8-1.7,1.7-1.7s1.7,0.8,1.7,1.7C259,94.3,256.6,96.7,253.6,96.7z"/>
				</g>
			</g>
			<g>
				<path class="st61" d="M252.9,86.4l-1.8,2.3c-0.4,0.5-1.2,0.5-1.6,0l-1.9-2.3c-0.6-0.7-0.1-1.7,0.8-1.7h3.7
					C252.9,84.7,253.4,85.7,252.9,86.4z"/>
			</g>
		</g>
		<g>
			<g>
				<path class="st57" d="M171.7,377.1c0.3,3.1,10,4.7,24.9,4.4c14.9-0.3,26.9-3.1,26.9-6.2c0-1.7-0.8-8.5-6.1-9.4
					c-4.8-0.8-13.9,4.2-21,4.3C181.5,370.5,170.8,369.3,171.7,377.1z"/>
			</g>
			<g>
				<path class="st60" d="M200.8,363.6c-0.9-7-5.1-13.3-10.3-10.9c-5.1,2.4-3.9,7.6-5.4,9.7"/>
			</g>
			<g>
				<path class="st60" d="M174.8,368c0,0,5.8-2.7,12-11.7c0.7-0.9,1.8-2.1,7.3,1.5c3.2,2.2,8.5,3.3,14,2.1c1.3-0.3,8.3-1.7,9.2-8.5
					c0.2-1.7,3.4,3.6,3.4,3.6s1.6,2.3,1.9,6.8c0.3,4.5,0.5,8.8-3.2,11.1c-4.5,2.7-26,5.6-34.8,4.8C178,377.1,166.8,374.4,174.8,368z
					"/>
			</g>
			<g>
				<path class="st57" d="M216.1,349.6c2.4,3.6,1.2,10.9,5.4,7.9c1.1-0.8-2.1-6-2.1-6l-2.1-2.1"/>
			</g>
		</g>
		<g>
			<g>
				<path class="st57" d="M293.7,377.1c-0.3,3.1-10,4.7-24.9,4.4c-14.9-0.3-26.9-3.1-26.9-6.2c0-1.7,0.8-8.5,6.1-9.4
					c4.8-0.8,13.9,4.2,21,4.3C283.9,370.5,294.5,369.3,293.7,377.1z"/>
			</g>
			<g>
				<path class="st60" d="M264.6,363.6c0.9-7,5.1-13.3,10.3-10.9c5.1,2.4,3.9,7.6,5.4,9.7"/>
			</g>
			<g>
				<path class="st60" d="M290.5,368c0,0-5.8-2.7-12-11.7c-0.7-0.9-1.8-2.1-7.3,1.5c-3.2,2.2-8.5,3.3-14,2.1
					c-1.3-0.3-8.3-1.7-9.2-8.5c-0.2-1.7-3.4,3.6-3.4,3.6s-1.6,2.3-1.9,6.8s-0.5,8.8,3.2,11.1c4.5,2.7,26,5.6,34.8,4.8
					C287.3,377.1,298.5,374.4,290.5,368z"/>
			</g>
			<g>
				<path class="st57" d="M249.2,349.6c-2.4,3.6-1.2,10.9-5.4,7.9c-1.1-0.8,2.1-6,2.1-6l2.1-2.1"/>
			</g>
		</g>
		<g>
			<g>
				<path class="st57" d="M278.1,357.7c-3.3,0.9-4.3,1.8-5.4,2.8c-1.4,1.3,0.2,3.6,2.1,2.1c1.7-1.3,3.3-2,4.6-2.3
					C281.7,359.7,280.1,357.2,278.1,357.7z"/>
			</g>
			<g>
				<path class="st57" d="M280.9,361.2c-3.5,1-4.7,2.1-5.6,3c-1.4,1.3,0.3,3.7,2.2,2.1c1.6-1.4,3.2-2,4.6-2.4
					C284.3,363.3,282.9,360.7,280.9,361.2z"/>
			</g>
			<g>
				<path class="st57" d="M283.8,364.7c-3.3,0.9-4.3,1.8-5.4,2.8c-1.4,1.3,0.3,3.7,2.1,2.1c1.8-1.5,3.3-2,4.6-2.3
					C287.4,366.6,285.9,364.1,283.8,364.7z"/>
			</g>
		</g>
		<g>
			<g>
				<path class="st57" d="M188.2,357.7c3.3,0.9,4.3,1.8,5.4,2.8c1.4,1.3-0.2,3.6-2.1,2.1c-1.7-1.3-3.3-2-4.6-2.3
					C184.6,359.7,186.2,357.2,188.2,357.7z"/>
			</g>
			<g>
				<path class="st57" d="M185.3,361.2c3.5,1,4.7,2.1,5.6,3c1.4,1.3-0.3,3.7-2.2,2.1c-1.6-1.4-3.2-2-4.6-2.4
					C182,363.3,183.3,360.7,185.3,361.2z"/>
			</g>
			<g>
				<path class="st57" d="M182.4,364.7c3.3,0.9,4.3,1.8,5.4,2.8c1.4,1.3-0.3,3.7-2.1,2.1c-1.8-1.5-3.3-2-4.6-2.3
					C178.8,366.6,180.3,364.1,182.4,364.7z"/>
			</g>
		</g>
		<g>
			<g>
				<circle class="st57" cx="249.1" cy="160.4" r="1.8"/>
			</g>
			<g>
				<circle class="st57" cx="249.1" cy="171.4" r="1.8"/>
			</g>
		</g>
		<g>
			<path class="st56" d="M237.7,144.3c0-0.3-0.1-0.5-0.1-0.7l0,0l0,0c0-0.1-0.1-0.3-0.1-0.4l-0.6-2.3l-0.3,1
				c-1.9-1.2-5.6,1.5-6.2,4.3c-0.8,3.7,2.9,10.1,6.9,11.7c2.7,1,5.1,1.3,7.8-1.7l1.7-2C246.9,154.1,238.1,150.1,237.7,144.3z"/>
			<path class="st56" d="M268.4,146.6c-0.6-2.8-4.2-5.6-6.2-4.8l-0.5-1l-0.7,2.4l0,0c-0.1,0.3-0.2,0.7-0.2,1.1
				c-0.4,5.8-9.6,9.9-9.6,9.9l1.7,2c2.7,3.1,4.8,3.7,8.3,2.2C264.9,156.7,269.2,150.4,268.4,146.6z"/>
		</g>
		<g>
			<rect x="257.4" y="168.9" class="st57" width="11.4" height="4.2"/>
		</g>
	</g>
</g>
</svg>
